<?xml version="1.0" encoding="UTF-8"?>
<!DOCTYPE svg PUBLIC "-//W3C//DTD SVG 1.1//EN" "http://www.w3.org/Graphics/SVG/1.1/DTD/svg11.dtd">
<svg xmlns="http://www.w3.org/2000/svg" version="1.1" width="512px" height="512px" style="shape-rendering:geometricPrecision; text-rendering:geometricPrecision; image-rendering:optimizeQuality; fill-rule:evenodd; clip-rule:evenodd" xmlns:xlink="http://www.w3.org/1999/xlink">
<g><path style="opacity:0.99" fill="#FFFFFF" d="M 511.5,90.5 C 511.5,97.8333 511.5,105.167 511.5,112.5C 504.222,137.985 489.889,158.819 468.5,175C 411.992,214.087 355.659,253.42 299.5,293C 290.771,299.032 281.438,304.032 271.5,308C 258.917,311.776 246.584,311.109 234.5,306C 225.575,301.399 216.908,296.399 208.5,291C 153.008,251.754 97.3416,212.754 41.5,174C 21.7577,158.455 7.75773,138.955 -0.5,115.5C -0.5,108.5 -0.5,101.5 -0.5,94.5C 1.94434,81.7847 7.94434,70.9514 17.5,62C 25.2812,56.5532 33.9479,53.8865 43.5,54C 184.833,53.3333 326.167,53.3333 467.5,54C 490.244,56.5877 504.91,68.7544 511.5,90.5 Z"/></g>
<g><path style="opacity:0.981" fill="#FFFFFF" d="M -0.5,183.5 C 7.03302,191.2 15.033,198.367 23.5,205C 58.5452,228.517 93.2119,252.517 127.5,277C 85.3387,320.328 42.672,363.161 -0.5,405.5C -0.5,331.5 -0.5,257.5 -0.5,183.5 Z"/></g>
<g><path style="opacity:0.981" fill="#FFFFFF" d="M 511.5,183.5 C 511.5,257.5 511.5,331.5 511.5,405.5C 468.328,363.161 425.661,320.328 383.5,277C 421.148,250.693 458.815,224.36 496.5,198C 501.369,192.963 506.369,188.13 511.5,183.5 Z"/></g>
<g><path style="opacity:0.983" fill="#FFFFFF" d="M 159.5,299.5 C 172.283,308.067 184.95,316.901 197.5,326C 210.092,333.629 223.425,339.629 237.5,344C 256.642,348.311 274.976,345.978 292.5,337C 313.025,326.244 332.358,313.744 350.5,299.5C 399.32,347.82 447.986,396.32 496.5,445C 488.375,452.558 478.709,456.558 467.5,457C 326.167,457.667 184.833,457.667 43.5,457C 32.2913,456.558 22.6247,452.558 14.5,445C 63.0347,396.632 111.368,348.132 159.5,299.5 Z"/></g>
</svg>
