<?xml version="1.0" encoding="UTF-8"?>
<!DOCTYPE svg PUBLIC "-//W3C//DTD SVG 1.1//EN" "http://www.w3.org/Graphics/SVG/1.1/DTD/svg11.dtd">
<svg xmlns="http://www.w3.org/2000/svg" version="1.1" width="512px" height="512px" style="shape-rendering:geometricPrecision; text-rendering:geometricPrecision; image-rendering:optimizeQuality; fill-rule:evenodd; clip-rule:evenodd" xmlns:xlink="http://www.w3.org/1999/xlink">
<g><path style="opacity:0.996" fill="#02b7e4" d="M 28.5,-0.5 C 179.833,-0.5 331.167,-0.5 482.5,-0.5C 496.779,2.44387 506.446,10.7772 511.5,24.5C 511.5,137.833 511.5,251.167 511.5,364.5C 507.581,377.583 498.914,385.75 485.5,389C 406.11,389.009 326.776,389.675 247.5,391C 189.575,430.45 132.242,470.617 75.5,511.5C 75.1667,511.5 74.8333,511.5 74.5,511.5C 76.0846,477.479 78.0846,443.479 80.5,409.5C 80.3533,399.692 75.6866,393.192 66.5,390C 52.8333,389.667 39.1667,389.333 25.5,389C 12.0862,385.75 3.41949,377.583 -0.5,364.5C -0.5,251.167 -0.5,137.833 -0.5,24.5C 4.55384,10.7772 14.2205,2.44387 28.5,-0.5 Z"/></g>
</svg>
