<?xml version="1.0" encoding="UTF-8"?>
<!DOCTYPE svg PUBLIC "-//W3C//DTD SVG 1.1//EN" "http://www.w3.org/Graphics/SVG/1.1/DTD/svg11.dtd">
<svg xmlns="http://www.w3.org/2000/svg" version="1.1" width="512px" height="512px" style="shape-rendering:geometricPrecision; text-rendering:geometricPrecision; image-rendering:optimizeQuality; fill-rule:evenodd; clip-rule:evenodd" xmlns:xlink="http://www.w3.org/1999/xlink">
<g><path style="opacity:0.994" fill="#000000" d="M 511.5,74.5 C 511.5,195.167 511.5,315.833 511.5,436.5C 505.127,462.37 488.794,477.87 462.5,483C 324.5,483.667 186.5,483.667 48.5,483C 22.2061,477.87 5.87274,462.37 -0.5,436.5C -0.5,315.833 -0.5,195.167 -0.5,74.5C 5.87274,48.6299 22.2061,33.1299 48.5,28C 186.5,27.3333 324.5,27.3333 462.5,28C 488.794,33.1299 505.127,48.6299 511.5,74.5 Z M 109.5,170.5 C 140.502,170.333 171.502,170.5 202.5,171C 215.261,172.795 223.094,179.961 226,192.5C 226.5,203.828 226.667,215.162 226.5,226.5C 212.5,226.5 198.5,226.5 184.5,226.5C 184.5,221.833 184.5,217.167 184.5,212.5C 165.5,212.5 146.5,212.5 127.5,212.5C 127.5,241.167 127.5,269.833 127.5,298.5C 146.5,298.5 165.5,298.5 184.5,298.5C 184.5,293.833 184.5,289.167 184.5,284.5C 198.5,284.5 212.5,284.5 226.5,284.5C 226.667,295.838 226.5,307.172 226,318.5C 223.094,331.039 215.261,338.205 202.5,340C 171.5,340.667 140.5,340.667 109.5,340C 96.5666,338.4 88.7333,331.233 86,318.5C 85.3333,276.5 85.3333,234.5 86,192.5C 88.9061,179.757 96.7395,172.423 109.5,170.5 Z M 308.5,170.5 C 339.502,170.333 370.502,170.5 401.5,171C 412.491,172.405 419.991,178.238 424,188.5C 425.42,201.106 425.92,213.772 425.5,226.5C 411.5,226.5 397.5,226.5 383.5,226.5C 383.5,221.833 383.5,217.167 383.5,212.5C 364.5,212.5 345.5,212.5 326.5,212.5C 326.5,241.167 326.5,269.833 326.5,298.5C 345.5,298.5 364.5,298.5 383.5,298.5C 383.5,293.833 383.5,289.167 383.5,284.5C 397.5,284.5 411.5,284.5 425.5,284.5C 425.92,297.228 425.42,309.894 424,322.5C 419.991,332.762 412.491,338.595 401.5,340C 370.5,340.667 339.5,340.667 308.5,340C 295.739,338.205 287.906,331.039 285,318.5C 284.333,276.5 284.333,234.5 285,192.5C 288.146,180.033 295.979,172.7 308.5,170.5 Z"/></g>
</svg>
