<svg width="23" height="22" viewBox="0 0 23 22" fill="none" xmlns="http://www.w3.org/2000/svg">
<path opacity="0.993" fill-rule="evenodd" clip-rule="evenodd" d="M9.64569 0.0203552C10.8054 0.0203552 11.9652 0.0203552 13.1249 0.0203552C13.3222 0.112511 13.4672 0.255608 13.5598 0.449645C13.5827 3.51188 13.5903 6.57415 13.5827 9.63644C14.651 9.62927 15.7191 9.63644 16.7872 9.65791C17.1777 9.83932 17.3227 10.1327 17.2221 10.538C17.1501 10.7157 17.0433 10.8731 16.9017 11.0102C15.2101 12.802 13.5239 14.5979 11.8431 16.3978C11.3868 16.6014 10.9977 16.5227 10.6757 16.1616C9.09053 14.4318 7.48827 12.7146 5.86893 11.0102C5.72724 10.8731 5.62044 10.7157 5.54847 10.538C5.4479 10.1327 5.59288 9.83932 5.98337 9.65791C7.05144 9.63644 8.1196 9.62927 9.1879 9.63644C9.18026 6.57415 9.1879 3.51188 9.21079 0.449645C9.30336 0.255608 9.44834 0.112511 9.64569 0.0203552Z" fill="#A2A2A2"/>
<path opacity="0.999" fill-rule="evenodd" clip-rule="evenodd" d="M21.2741 22C14.6819 22 8.08972 22 1.49755 22C1.0991 21.8771 0.786276 21.6481 0.559084 21.3131C0.50431 21.202 0.458531 21.0875 0.421747 20.9697C0.398858 19.0236 0.391227 17.0775 0.398858 15.1313C1.37547 15.1313 2.3521 15.1313 3.32871 15.1313C3.32871 16.5051 3.32871 17.8788 3.32871 19.2525C8.70009 19.2525 14.0715 19.2525 19.4429 19.2525C19.4429 17.8788 19.4429 16.5051 19.4429 15.1313C20.4195 15.1313 21.3962 15.1313 22.3728 15.1313C22.3804 17.0775 22.3728 19.0236 22.3499 20.9697C22.2861 21.215 22.1641 21.4296 21.9836 21.6136C21.7731 21.7907 21.5366 21.9195 21.2741 22Z" fill="#A2A2A2"/>
</svg>
