<?xml version="1.0" encoding="UTF-8"?>
<!DOCTYPE svg PUBLIC "-//W3C//DTD SVG 1.1//EN" "http://www.w3.org/Graphics/SVG/1.1/DTD/svg11.dtd">
<svg xmlns="http://www.w3.org/2000/svg" version="1.1" width="512px" height="512px" style="shape-rendering:geometricPrecision; text-rendering:geometricPrecision; image-rendering:optimizeQuality; fill-rule:evenodd; clip-rule:evenodd" xmlns:xlink="http://www.w3.org/1999/xlink">
<g><path style="opacity:0.968" fill="#02b7e4" d="M 284.5,2.5 C 308.546,2.38153 322.213,14.2149 325.5,38C 324.944,42.2301 324.11,46.3967 323,50.5C 315.091,65.9905 306.425,80.9905 297,95.5C 277.412,83.6212 257.579,72.1212 237.5,61C 236.978,60.4387 236.645,59.772 236.5,59C 244.65,44.8434 252.817,30.6767 261,16.5C 267.319,9.09802 275.153,4.43135 284.5,2.5 Z"/></g>
<g><path style="opacity:0.976" fill="#02b7e4" d="M 220.5,85.5 C 223.691,86.0922 226.691,87.2589 229.5,89C 246.833,99 264.167,109 281.5,119C 282.517,120.049 282.684,121.216 282,122.5C 247.293,182.748 212.46,242.915 177.5,303C 150.167,303.667 122.833,303.667 95.5,303C 137.422,230.595 179.089,158.095 220.5,85.5 Z"/></g>
<g><path style="opacity:0.975" fill="#02b7e4" d="M -0.5,305.5 C -0.5,300.167 -0.5,294.833 -0.5,289.5C 20.3557,250.799 41.5223,212.132 63,173.5C 70.2653,160.559 79.432,149.059 90.5,139C 105.5,126.667 120.5,114.333 135.5,102C 150.182,93.8028 165.182,92.6361 180.5,98.5C 138.172,172.494 95.3382,246.161 52,319.5C 38.1864,330.809 24.0198,331.309 9.5,321C 5.00807,316.5 1.67473,311.333 -0.5,305.5 Z"/></g>
<g><path style="opacity:0.991" fill="#02b7e4" d="M 511.5,197.5 C 511.5,261.167 511.5,324.833 511.5,388.5C 509.261,393.234 505.594,396.401 500.5,398C 457.167,398.333 413.833,398.667 370.5,399C 324.775,422.313 279.109,422.313 233.5,399C 182.796,398.977 132.129,398.311 81.5,397C 62.8492,389.2 55.6825,375.367 60,355.5C 64.3303,343.837 72.497,336.337 84.5,333C 138.833,332.667 193.167,332.333 247.5,332C 249.5,331 251.5,330 253.5,329C 261.725,317.714 268.225,305.547 273,292.5C 274.068,269.558 263.235,256.058 240.5,252C 259.248,219.169 278.248,186.503 297.5,154C 301.599,154.7 305.599,156.033 309.5,158C 329.5,167.667 349.5,177.333 369.5,187C 413.167,187.333 456.833,187.667 500.5,188C 505.594,189.599 509.261,192.766 511.5,197.5 Z"/></g>
<g><path style="opacity:0.899" fill="#02b7e4" d="M 223.5,281.5 C 229.509,281.334 235.509,281.501 241.5,282C 244.203,283.82 245.036,286.32 244,289.5C 241.5,293.833 239,298.167 236.5,302.5C 228.167,303.833 219.833,303.833 211.5,302.5C 215.259,295.31 219.259,288.31 223.5,281.5 Z"/></g>
<g><path style="opacity:0.96" fill="#02b7e4" d="M 41.5,402.5 C 58.078,421.273 79.078,429.939 104.5,428.5C 81.6856,454.482 58.6856,480.315 35.5,506C 24.3874,510.853 16.554,507.686 12,496.5C 11.3333,494.167 11.3333,491.833 12,489.5C 21.5427,460.371 31.3761,431.371 41.5,402.5 Z"/></g>
<g><path style="opacity:0.963" fill="#02b7e4" d="M 138.5,427.5 C 167.835,427.333 197.169,427.5 226.5,428C 232.075,430.371 237.575,432.871 243,435.5C 246.316,455.377 238.816,469.211 220.5,477C 198.537,481.353 184.37,472.853 178,451.5C 171.63,472.853 157.463,481.353 135.5,477C 126.509,473.843 119.842,468.01 115.5,459.5C 125.147,450.186 132.814,439.519 138.5,427.5 Z"/></g>
</svg>
