<svg width="22" height="22" viewBox="0 0 22 22" fill="none" xmlns="http://www.w3.org/2000/svg">
<path opacity="0.976" fill-rule="evenodd" clip-rule="evenodd" d="M21.9796 1.88344C21.9796 2.18433 21.9796 2.48522 21.9796 2.78611C21.8708 3.17584 21.6919 3.53405 21.4429 3.86071C20.9844 4.327 20.5194 4.78547 20.0478 5.2362C18.9459 4.1616 17.8584 3.07267 16.7852 1.96941C17.3095 1.39416 17.8676 0.856864 18.4594 0.357509C19.6939 -0.255019 20.7456 -0.0329343 21.6147 1.02376C21.7749 1.29835 21.8965 1.58491 21.9796 1.88344Z" fill="#A2A2A2"/>
<path opacity="0.981" fill-rule="evenodd" clip-rule="evenodd" d="M15.7977 2.91504C16.9103 3.96446 18.005 5.03905 19.0818 6.13884C19.1104 6.16751 19.1104 6.19614 19.0818 6.22481C16.6563 8.65341 14.2308 11.082 11.8053 13.5106C10.6317 13.7886 9.45116 14.0394 8.2637 14.2628C7.97028 14.2269 7.80569 14.0621 7.77002 13.7685C7.99321 12.5793 8.24365 11.3973 8.52128 10.2223C10.9554 7.79222 13.3809 5.35649 15.7977 2.91504Z" fill="#A2A2A2"/>
<path opacity="0.988" fill-rule="evenodd" clip-rule="evenodd" d="M16.2701 22C11.5336 22 6.79707 22 2.06059 22C0.961055 21.6584 0.27419 20.9277 0 19.8078C0 15.1942 0 10.5805 0 5.96691C0.290179 4.72424 1.0629 3.97203 2.31816 3.71024C4.97976 3.68159 7.64136 3.68159 10.303 3.71024C10.8738 3.90001 11.0956 4.29403 10.9684 4.89231C10.8753 5.21469 10.6678 5.42243 10.3459 5.51557C7.79878 5.52989 5.25163 5.54425 2.70453 5.55856C2.26336 5.62772 1.98432 5.87849 1.86741 6.31078C1.82486 10.74 1.83917 15.1673 1.91034 19.5929C2.04119 19.913 2.2773 20.1064 2.61867 20.1731C6.98313 20.2018 11.3475 20.2018 15.712 20.1731C16.1636 20.0505 16.414 19.7568 16.4633 19.292C16.4776 16.7416 16.4919 14.1912 16.5062 11.6408C16.7411 11.1328 17.1345 10.9394 17.6867 11.0605C18.0254 11.1576 18.2329 11.3797 18.3092 11.7268C18.3378 14.3775 18.3378 17.0281 18.3092 19.6788C18.0762 20.8503 17.3965 21.624 16.2701 22Z" fill="#A2A2A2"/>
</svg>
