<?xml version="1.0" encoding="UTF-8"?>
<!DOCTYPE svg PUBLIC "-//W3C//DTD SVG 1.1//EN" "http://www.w3.org/Graphics/SVG/1.1/DTD/svg11.dtd">
<svg xmlns="http://www.w3.org/2000/svg" version="1.1" width="512px" height="512px" style="shape-rendering:geometricPrecision; text-rendering:geometricPrecision; image-rendering:optimizeQuality; fill-rule:evenodd; clip-rule:evenodd" xmlns:xlink="http://www.w3.org/1999/xlink">
<g><path style="opacity:0.977" fill="#000000" d="M 90.5,50.5 C 121.951,48.1462 141.451,62.1462 149,92.5C 151.037,122.107 137.871,140.941 109.5,149C 78.4886,151.972 58.9886,138.472 51,108.5C 48.6192,78.4085 61.7859,59.0752 90.5,50.5 Z"/></g>
<g><path style="opacity:0.987" fill="#000000" d="M 350.5,179.5 C 374.054,178.202 396.387,182.702 417.5,193C 433.464,203.307 444.631,217.474 451,235.5C 456.263,251.412 459.263,267.746 460,284.5C 460.5,343.166 460.667,401.832 460.5,460.5C 431.833,460.5 403.167,460.5 374.5,460.5C 374.667,407.499 374.5,354.499 374,301.5C 370.927,264.081 351.094,249.248 314.5,257C 297.575,262.932 287.408,274.765 284,292.5C 283.088,296.795 282.421,301.128 282,305.5C 281.5,357.166 281.333,408.832 281.5,460.5C 252.833,460.5 224.167,460.5 195.5,460.5C 195.5,369.167 195.5,277.833 195.5,186.5C 222.833,186.5 250.167,186.5 277.5,186.5C 277.333,198.838 277.5,211.171 278,223.5C 290.287,202.905 308.12,189.405 331.5,183C 337.938,181.61 344.272,180.443 350.5,179.5 Z"/></g>
<g><path style="opacity:0.986" fill="#000000" d="M 56.5,186.5 C 85.1667,186.5 113.833,186.5 142.5,186.5C 142.5,277.833 142.5,369.167 142.5,460.5C 113.833,460.5 85.1667,460.5 56.5,460.5C 56.5,369.167 56.5,277.833 56.5,186.5 Z"/></g>
</svg>
