<svg width="173" height="184" viewBox="0 0 173 184" fill="none" xmlns="http://www.w3.org/2000/svg">
<path opacity="0.941" fill-rule="evenodd" clip-rule="evenodd" d="M2.97713 0C18.607 0 34.2369 0 49.8668 0C51.2858 0.592362 52.2779 1.61019 52.8439 3.05349C68.9699 3.17323 85.0962 3.29298 101.222 3.41272C103.341 5.51866 103.093 7.31482 100.478 8.80122C84.6005 8.98084 68.7224 9.04073 52.8439 8.98084C52.8439 19.8776 52.8439 30.7744 52.8439 41.6711C87.7019 41.7907 122.559 41.6711 157.415 41.3119C160.319 36.0058 163.172 30.6772 165.975 25.326C163.172 19.9748 160.319 14.6462 157.415 9.34008C142.283 9.04073 127.15 8.86111 112.014 8.80122C109.801 7.92725 109.243 6.43043 110.34 4.3108C110.65 4.01145 110.96 3.71208 111.27 3.41272C127.644 3.17323 144.018 3.17323 160.392 3.41272C161.288 3.9954 161.97 4.77371 162.439 5.74774C166.007 12.2161 169.418 18.7422 172.673 25.326C169.074 32.2132 165.415 39.0986 161.695 45.9819C161.243 46.5384 160.685 46.9572 160.02 47.2392C124.171 47.4188 88.3215 47.4788 52.4718 47.4188C52.1052 48.7947 51.2367 49.8124 49.8668 50.4723C34.3608 50.7119 18.8551 50.7119 3.34927 50.4723C1.44164 49.7302 0.387258 48.3529 0.186079 46.3411C-0.0620265 32.331 -0.0620265 18.3209 0.186079 4.3108C0.298466 2.35269 1.22882 0.915758 2.97713 0ZM5.95425 5.3885C19.5994 5.3885 33.2444 5.3885 46.8897 5.3885C46.8897 18.5604 46.8897 31.7323 46.8897 44.9042C33.2444 44.9042 19.5994 44.9042 5.95425 44.9042C5.95425 31.7323 5.95425 18.5604 5.95425 5.3885Z" fill="#02B7E4"/>
<path opacity="0.926" fill-rule="evenodd" clip-rule="evenodd" d="M23.0724 12.5732C25.4325 12.5135 27.7894 12.5734 30.143 12.7528C30.5773 13.1719 31.0112 13.591 31.4455 14.0101C31.6937 21.554 31.6937 29.0979 31.4455 36.6419C29.8156 38.3816 28.0791 38.5016 26.2356 37.0011C25.693 30.7993 25.5069 24.5726 25.6774 18.3209C21.8459 18.285 20.6675 16.6086 22.142 13.2917C22.5122 13.0884 22.8223 12.8489 23.0724 12.5732Z" fill="#02B7E4"/>
<path opacity="0.97" fill-rule="evenodd" clip-rule="evenodd" d="M63.6362 16.1655C70.4598 16.1057 77.2826 16.1655 84.1039 16.3451C86.0885 18.0216 86.0885 19.698 84.1039 21.3744C77.2815 21.6139 70.4586 21.6139 63.6362 21.3744C61.7372 19.6551 61.7372 17.9188 63.6362 16.1655Z" fill="#02B7E4"/>
<path opacity="0.929" fill-rule="evenodd" clip-rule="evenodd" d="M64.752 29.0979C76.7852 29.0381 88.8176 29.0979 100.85 29.2775C102.4 29.6314 103.144 30.5893 103.082 32.1514C103.157 33.3275 102.66 34.1657 101.594 34.666C89.0651 34.9055 76.5366 34.9055 64.0077 34.666C61.3953 32.475 61.6432 30.619 64.752 29.0979Z" fill="#02B7E4"/>
<path opacity="0.936" fill-rule="evenodd" clip-rule="evenodd" d="M3.72141 66.4582C18.8556 66.3982 33.9894 66.4582 49.1225 66.6378C50.7477 66.9493 51.8641 67.8474 52.4718 69.3321C88.1965 69.6313 123.922 69.8109 159.648 69.8709C160.522 69.9952 161.204 70.4144 161.695 71.1282C165.168 77.5944 168.642 84.0607 172.115 90.5269C172.363 91.4849 172.363 92.4426 172.115 93.4007C168.568 100.31 164.784 107.075 160.765 113.697C160.269 113.817 159.772 113.937 159.276 114.057C123.674 114.117 88.0726 114.296 52.4718 114.596C51.8641 116.08 50.7477 116.978 49.1225 117.29C33.9887 117.529 18.8551 117.529 3.72141 117.29C1.54904 116.511 0.370587 115.014 0.186079 112.799C-0.0620265 98.9089 -0.0620265 85.0187 0.186079 71.1282C0.445796 68.9046 1.62425 67.348 3.72141 66.4582ZM5.95425 72.2059C19.5994 72.2059 33.2444 72.2059 46.8897 72.2059C46.8897 85.378 46.8897 98.5496 46.8897 111.722C33.2444 111.722 19.5994 111.722 5.95425 111.722C5.95425 98.5496 5.95425 85.378 5.95425 72.2059ZM52.8439 75.439C87.7019 75.3194 122.559 75.439 157.415 75.7983C160.37 81.1437 163.223 86.5322 165.975 91.9638C163.223 97.3954 160.37 102.784 157.415 108.129C122.559 108.489 87.7019 108.608 52.8439 108.489C52.8439 97.4719 52.8439 86.4557 52.8439 75.439Z" fill="#02B7E4"/>
<path opacity="0.923" fill-rule="evenodd" clip-rule="evenodd" d="M24.1896 79.0314C31.8691 78.9585 35.0323 82.5508 33.6792 89.8084C31.9569 93.076 29.9101 96.1295 27.5388 98.9689C29.5235 99.0885 31.5085 99.2085 33.4931 99.3281C34.8987 100.39 35.3326 101.767 34.7956 103.459C34.3438 104.016 33.7856 104.435 33.121 104.717C29.0274 104.956 24.9339 104.956 20.8403 104.717C18.4705 103.461 18.0364 101.725 19.5378 99.5077C22.9764 95.6506 25.8915 91.4598 28.2831 86.9346C27.6381 84.7975 26.3356 84.3183 24.3757 85.4976C23.3846 88.8805 21.3998 89.599 18.4214 87.653C17.7956 83.2409 19.7183 80.3671 24.1896 79.0314Z" fill="#02B7E4"/>
<path opacity="0.918" fill-rule="evenodd" clip-rule="evenodd" d="M64.0079 82.2645C70.5836 82.2045 77.1579 82.2645 83.7313 82.4441C86.2574 84.398 86.1335 86.1941 83.3592 87.8326C77.0328 88.0722 70.7064 88.0722 64.3801 87.8326C61.5335 86.1288 61.4096 84.2726 64.0079 82.2645Z" fill="#02B7E4"/>
<path opacity="0.927" fill-rule="evenodd" clip-rule="evenodd" d="M64.0079 95.5561C76.5371 95.4961 89.066 95.5561 101.594 95.7357C103 96.7815 103.434 98.1584 102.897 99.8669C102.445 100.423 101.887 100.842 101.222 101.124C88.9413 101.364 76.6607 101.364 64.3801 101.124C61.5335 99.4204 61.4096 97.5642 64.0079 95.5561Z" fill="#02B7E4"/>
<path opacity="0.941" fill-rule="evenodd" clip-rule="evenodd" d="M49.8668 183.928C34.2369 183.928 18.607 183.928 2.97713 183.928C1.22882 183.012 0.298466 181.575 0.186079 179.617C-0.0620265 165.607 -0.0620265 151.597 0.186079 137.587C0.387258 135.575 1.44164 134.198 3.34927 133.455C18.8551 133.216 34.3608 133.216 49.8668 133.455C51.1072 134.174 52.0996 135.132 52.8439 136.329C68.846 136.449 84.848 136.569 100.85 136.688C102.724 137.771 103.158 139.268 102.153 141.179C101.816 141.61 101.383 141.91 100.85 142.077C84.8484 142.257 68.8463 142.317 52.8439 142.257C52.8439 153.153 52.8439 164.05 52.8439 174.947C87.7019 175.066 122.559 174.947 157.415 174.588C160.319 169.281 163.172 163.953 165.975 158.602C163.172 153.251 160.319 147.922 157.415 142.616C142.159 142.317 126.901 142.137 111.642 142.077C109.768 140.995 109.334 139.498 110.34 137.587C110.676 137.155 111.11 136.855 111.642 136.688C127.768 136.449 143.894 136.449 160.02 136.688C160.685 136.97 161.243 137.389 161.695 137.946C165.415 144.829 169.074 151.714 172.673 158.602C169.418 165.185 166.007 171.712 162.439 178.18C161.97 179.154 161.288 179.932 160.392 180.515C124.543 180.635 88.6933 180.755 52.8439 180.874C52.2225 182.273 51.23 183.291 49.8668 183.928ZM5.95425 139.023C19.5994 139.023 33.2444 139.023 46.8897 139.023C46.8897 152.195 46.8897 165.367 46.8897 178.539C33.2444 178.539 19.5994 178.539 5.95425 178.539C5.95425 165.367 5.95425 152.195 5.95425 139.023Z" fill="#02B7E4"/>
<path opacity="0.92" fill-rule="evenodd" clip-rule="evenodd" d="M25.6777 145.49C32.4733 145.914 35.3887 149.387 34.423 155.907C34.1353 156.881 33.701 157.779 33.1205 158.602C35.0292 161.847 35.091 165.14 33.3065 168.481C28.6008 172.873 24.0111 172.753 19.5374 168.121C18.2737 166.173 18.0256 164.137 18.7931 162.014C20.6661 160.477 22.4027 160.597 24.003 162.374C23.9612 164.215 24.8295 165.412 26.608 165.966C28.9309 165.029 29.2409 163.651 27.5384 161.835C23.7799 161.342 22.7875 159.546 24.5612 156.446C25.7556 156.054 26.9341 155.635 28.0966 155.189C29.1635 153.196 28.6053 151.879 26.4219 151.237C25.0052 151.708 24.1989 152.666 24.003 154.111C21.2687 156.337 19.346 155.798 18.2349 152.495C19.2037 148.625 21.6846 146.29 25.6777 145.49Z" fill="#02B7E4"/>
<path opacity="0.92" fill-rule="evenodd" clip-rule="evenodd" d="M64.0081 149.441C70.5838 149.381 77.1581 149.441 83.7315 149.621C86.2699 151.559 86.1456 153.355 83.3594 155.009C77.033 155.249 70.7066 155.249 64.3803 155.009C61.5289 153.288 61.405 151.432 64.0081 149.441Z" fill="#02B7E4"/>
<path opacity="0.929" fill-rule="evenodd" clip-rule="evenodd" d="M63.6353 162.733C76.2889 162.673 88.9416 162.733 101.594 162.912C102.66 163.413 103.156 164.251 103.082 165.427C103.13 167.177 102.261 168.135 100.477 168.301C88.5687 168.541 76.6602 168.541 64.7518 168.301C61.7531 166.957 61.3809 165.101 63.6353 162.733Z" fill="#02B7E4"/>
</svg>
