<svg width="213" height="207" viewBox="0 0 213 207" fill="none" xmlns="http://www.w3.org/2000/svg">
<path opacity="0.984" fill-rule="evenodd" clip-rule="evenodd" d="M100.052 6.26659C125.633 4.84165 143.453 15.4882 153.51 38.206C159.328 56.0198 156.277 72.1916 144.357 86.7217C138.45 92.9931 131.447 97.7101 123.349 100.872C119.311 107.98 115.013 114.921 110.452 121.693C106.525 123.889 103.128 123.283 100.26 119.874C96.3905 113.352 92.4383 106.884 88.4034 100.468C64.3123 89.766 53.8425 71.5727 56.9942 45.8877C62.5426 23.5809 76.8951 10.3738 100.052 6.26659ZM103.796 26.0771C109.659 25.319 113.611 27.6101 115.652 32.9502C116.637 38.6531 114.349 42.494 108.788 44.4726C102.92 45.4292 98.9677 43.2056 96.9317 37.8018C95.9948 32.0726 98.2829 28.1644 103.796 26.0771ZM105.876 48.3135C110.125 48.1873 113.384 49.8045 115.652 53.165C116.118 58.6053 116.326 64.0633 116.276 69.5391C116.326 75.0149 116.118 80.4729 115.652 85.9131C114.547 88.2414 112.675 89.6565 110.036 90.1582C105.434 91.3937 101.343 90.5176 97.7637 87.5303C97.4862 86.9913 97.2092 86.452 96.9317 85.9131C96.4658 80.4057 96.2578 74.8802 96.3077 69.3369C96.2536 63.925 96.4616 58.5345 96.9317 53.165C97.4517 52.0852 98.2143 51.2094 99.2198 50.5371C101.336 49.3355 103.554 48.5945 105.876 48.3135Z" fill="#02B7E4"/>
<path opacity="0.988" fill-rule="evenodd" clip-rule="evenodd" d="M53.874 76.21C55.3214 78.21 56.5694 80.3661 57.6182 82.6787C52.8856 83.4004 48.1705 84.209 43.4736 85.1045C42.9882 115.695 42.9191 146.287 43.2656 176.88C59.0692 175.037 74.9473 174.43 90.8994 175.061C94.9102 175.219 98.8624 175.691 102.756 176.476C102.964 160.574 103.033 144.672 102.964 128.769C105.182 129.307 107.402 129.307 109.62 128.769C109.551 144.672 109.62 160.574 109.828 176.476C117.789 175.124 125.832 174.584 133.957 174.858C145.81 174.826 157.597 175.5 169.318 176.88C169.665 146.287 169.596 115.695 169.11 85.1045C164.456 84.0541 159.741 83.3802 154.966 83.083C155.954 80.7563 157.064 78.4655 158.294 76.21C162.747 76.8188 167.184 77.5599 171.606 78.4336C174.746 79.6186 176.272 81.8422 176.183 85.1045C182.489 84.3586 186.857 86.7843 189.287 92.3818C189.565 124.187 189.565 155.991 189.287 187.796C187.404 192.62 183.799 194.912 178.471 194.669C158.737 193.049 138.977 192.644 119.188 193.456C116.96 199.192 112.662 201.483 106.292 200.329C99.9224 201.483 95.6237 199.192 93.3955 193.456C73.6073 192.644 53.8466 193.049 34.1133 194.669C28.7851 194.912 25.1796 192.62 23.2969 187.796C23.0195 155.991 23.0195 124.187 23.2969 92.3818C25.7104 86.7916 30.0786 84.3658 36.4014 85.1045C36.3125 81.8422 37.8379 79.6186 40.9775 78.4336C45.3191 77.5963 49.6182 76.8548 53.874 76.21Z" fill="#02B7E4"/>
<path opacity="0.931" fill-rule="evenodd" clip-rule="evenodd" d="M63.8582 104.915C70.6734 104.744 77.4681 104.946 84.243 105.521C85.7123 107.692 87.0989 109.916 88.4031 112.192C87.9871 112.327 87.5711 112.462 87.1551 112.597C79.6859 111.825 72.1976 111.623 64.6902 111.99C59.6964 112.53 54.7042 112.934 49.7137 113.203C47.6531 111.326 47.5142 109.304 49.2976 107.139C54.1679 106.146 59.0216 105.404 63.8582 104.915Z" fill="#02B7E4"/>
<path opacity="0.929" fill-rule="evenodd" clip-rule="evenodd" d="M130.837 104.915C141.306 104.51 151.706 105.117 162.038 106.734C164.287 107.535 165.05 109.085 164.326 111.384C163.634 112.833 162.455 113.507 160.79 113.405C148.968 111.636 137.111 111.367 125.221 112.597C124.735 112.462 124.25 112.327 123.765 112.192C125.013 110.036 126.261 107.88 127.509 105.724C128.676 105.454 129.785 105.184 130.837 104.915Z" fill="#02B7E4"/>
<path opacity="0.932" fill-rule="evenodd" clip-rule="evenodd" d="M63.8582 125.534C74.1862 125.146 84.448 125.753 94.6433 127.354C97.444 128.879 97.86 130.9 95.8914 133.418C95.0452 133.825 94.1441 134.027 93.1873 134.024C86.3663 132.962 79.502 132.423 72.5945 132.407C64.9353 132.59 57.3084 133.061 49.7137 133.822C47.6531 131.945 47.5142 129.924 49.2976 127.758C54.1625 126.733 59.0158 125.992 63.8582 125.534Z" fill="#02B7E4"/>
<path opacity="0.933" fill-rule="evenodd" clip-rule="evenodd" d="M131.669 125.534C141.86 125.14 151.983 125.746 162.038 127.354C163.174 127.514 163.937 128.121 164.326 129.173C165.174 132.115 164.064 133.732 160.998 134.024C154.037 132.961 147.034 132.422 139.989 132.407C132.468 132.6 124.98 133.072 117.524 133.822C115.623 132.795 114.999 131.245 115.652 129.173C115.999 128.769 116.346 128.364 116.692 127.96C121.66 126.752 126.652 125.943 131.669 125.534Z" fill="#02B7E4"/>
<path opacity="0.933" fill-rule="evenodd" clip-rule="evenodd" d="M67.6027 145.749C76.2521 145.685 84.8499 146.291 93.3957 147.568C96.3402 147.868 97.5188 149.417 96.9318 152.218C96.2957 153.645 95.1862 154.454 93.6037 154.644C79.5282 151.955 65.4527 151.955 51.3781 154.644C48.4265 154.033 47.3864 152.281 48.258 149.388C48.7435 148.916 49.2286 148.444 49.714 147.973C55.7001 146.926 61.6628 146.184 67.6027 145.749Z" fill="#02B7E4"/>
<path opacity="0.932" fill-rule="evenodd" clip-rule="evenodd" d="M135.413 145.749C144.644 145.619 153.797 146.36 162.87 147.973C164.931 149.85 165.07 151.871 163.286 154.037C162.605 154.28 161.912 154.482 161.206 154.644C154.261 153.425 147.258 152.751 140.197 152.622C132.726 152.845 125.306 153.452 117.94 154.441C115.196 152.859 114.78 150.837 116.692 148.377C118.287 147.72 119.951 147.316 121.685 147.164C126.313 146.581 130.889 146.11 135.413 145.749Z" fill="#02B7E4"/>
</svg>
