<svg width="23" height="22" viewBox="0 0 23 22" fill="none" xmlns="http://www.w3.org/2000/svg">
<path opacity="0.993" fill-rule="evenodd" clip-rule="evenodd" d="M11.7323 0.0203552C13.0869 1.28498 14.4033 2.5933 15.6817 3.94529C15.7803 4.27386 15.6904 4.52736 15.4119 4.70575C14.5944 4.73028 13.7767 4.73847 12.9588 4.73028C12.9588 6.4311 12.9588 8.13187 12.9588 9.83269C14.6596 9.83269 16.3604 9.83269 18.0612 9.83269C18.053 9.01483 18.0612 8.19712 18.0857 7.37961C18.2641 7.10108 18.5176 7.01115 18.8462 7.10977C20.1783 8.38468 21.4867 9.68482 22.7711 11.0102C21.4867 12.3355 20.1783 13.6357 18.8462 14.9106C18.5176 15.0092 18.2641 14.9193 18.0857 14.6407C18.0612 13.8232 18.053 13.0055 18.0612 12.1877C16.3604 12.1877 14.6596 12.1877 12.9588 12.1877C12.9588 13.8885 12.9588 15.5892 12.9588 17.2901C13.7767 17.2819 14.5944 17.2901 15.4119 17.3146C15.6904 17.493 15.7803 17.7465 15.6817 18.0751C14.4068 19.4072 13.1067 20.7155 11.7813 22C10.456 20.7155 9.15583 19.4072 7.88092 18.0751C7.7823 17.7465 7.87223 17.493 8.15076 17.3146C8.96827 17.2901 9.78598 17.2819 10.6038 17.2901C10.6038 15.5892 10.6038 13.8885 10.6038 12.1877C8.90302 12.1877 7.20225 12.1877 5.50142 12.1877C5.50962 13.0055 5.50142 13.8232 5.47689 14.6407C5.29851 14.9193 5.045 15.0092 4.71644 14.9106C3.3843 13.6357 2.07598 12.3355 0.791504 11.0102C2.07598 9.68482 3.3843 8.38468 4.71644 7.10977C5.045 7.01115 5.29851 7.10108 5.47689 7.37961C5.50142 8.19712 5.50962 9.01483 5.50142 9.83269C7.20225 9.83269 8.90302 9.83269 10.6038 9.83269C10.6038 8.13187 10.6038 6.4311 10.6038 4.73028C9.78598 4.73847 8.96827 4.73028 8.15076 4.70575C7.87223 4.52736 7.7823 4.27386 7.88092 3.94529C9.15686 2.62848 10.4406 1.32017 11.7323 0.0203552Z" fill="#A2A2A2"/>
</svg>
