<?xml version="1.0" encoding="UTF-8"?>
<!DOCTYPE svg PUBLIC "-//W3C//DTD SVG 1.1//EN" "http://www.w3.org/Graphics/SVG/1.1/DTD/svg11.dtd">
<svg xmlns="http://www.w3.org/2000/svg" version="1.1" width="512px" height="512px" style="shape-rendering:geometricPrecision; text-rendering:geometricPrecision; image-rendering:optimizeQuality; fill-rule:evenodd; clip-rule:evenodd" xmlns:xlink="http://www.w3.org/1999/xlink">
<g><path style="opacity:0.976" fill="#000000" d="M 71.5,-0.5 C 75.8333,-0.5 80.1667,-0.5 84.5,-0.5C 172.817,15.796 261.15,32.296 349.5,49C 249.012,66.8869 148.512,84.7202 48,102.5C 47.1667,102.167 46.3333,101.833 45.5,101.5C 51.2135,71.2205 56.7135,40.8872 62,10.5C 63.5992,5.40601 66.7658,1.73934 71.5,-0.5 Z"/></g>
<g><path style="opacity:0.987" fill="#000000" d="M 511.5,426.5 C 511.5,430.833 511.5,435.167 511.5,439.5C 508.413,446.222 503.08,449.722 495.5,450C 379.973,470.197 264.64,490.697 149.5,511.5C 145.167,511.5 140.833,511.5 136.5,511.5C 129.778,508.413 126.278,503.08 126,495.5C 105.294,377.638 84.4609,259.805 63.5,142C 64.2156,134.292 68.2156,129.292 75.5,127C 195.052,105.881 314.552,84.7139 434,63.5C 443.782,64.9491 449.115,70.6158 450,80.5C 470.197,196.027 490.697,311.36 511.5,426.5 Z M 392.5,193.5 C 402.291,193.291 408.291,197.958 410.5,207.5C 409.688,214.481 406.021,219.315 399.5,222C 319.487,236.103 239.487,250.269 159.5,264.5C 151.096,263.263 146.096,258.43 144.5,250C 145.514,240.986 150.514,235.986 159.5,235C 237.358,221.459 315.025,207.625 392.5,193.5 Z M 403.5,252.5 C 415.498,252.661 420.998,258.661 420,270.5C 418.594,275.573 415.428,279.073 410.5,281C 330.333,295.167 250.167,309.333 170,323.5C 156.791,320.627 152.791,312.96 158,300.5C 159.938,297.894 162.438,296.061 165.5,295C 245.025,281.125 324.358,266.959 403.5,252.5 Z M 334.5,325.5 C 343.469,324.974 349.302,328.974 352,337.5C 352.535,345.621 349.035,351.121 341.5,354C 287.872,363.716 234.206,373.216 180.5,382.5C 167.712,379.916 163.546,372.583 168,360.5C 169.944,357.266 172.778,355.1 176.5,354C 229.359,344.792 282.025,335.292 334.5,325.5 Z"/></g>
<g><path style="opacity:0.968" fill="#000000" d="M -0.5,374.5 C -0.5,370.167 -0.5,365.833 -0.5,361.5C 11.8143,293.625 24.1477,225.625 36.5,157.5C 50.8749,235.915 64.8749,314.415 78.5,393C 78.3333,394.167 78.1667,395.333 78,396.5C 55.6108,391.962 33.1108,387.795 10.5,384C 5.40601,382.401 1.73934,379.234 -0.5,374.5 Z"/></g>
</svg>
