<svg width="174" height="174" viewBox="0 0 174 174" fill="none" xmlns="http://www.w3.org/2000/svg">
<g clip-path="url(#clip0_178_1520)">
<path opacity="0.967" fill-rule="evenodd" clip-rule="evenodd" d="M111.639 -0.169922C115.717 -0.169922 119.795 -0.169922 123.873 -0.169922C145.153 3.04268 160.389 14.3708 169.582 33.8145C171.674 39.0062 173.09 44.3306 173.83 49.7871C173.83 53.8652 173.83 57.9434 173.83 62.0215C172.458 72.7038 168.494 82.3326 161.936 90.9082C166.046 95.4679 170.01 100.113 173.83 104.842C173.83 106.201 173.83 107.561 173.83 108.92C173.213 110.272 172.194 111.235 170.771 111.809C151.174 111.979 131.577 112.035 111.979 111.979C113.238 135.686 103.949 153.868 84.1113 166.523C77.1673 170.368 69.8039 172.803 62.0215 173.83C42.3105 173.83 22.5996 173.83 2.88867 173.83C2.38335 173.387 1.81694 172.991 1.18945 172.641C0.782803 171.956 0.329677 171.333 -0.169922 170.771C-0.169922 169.412 -0.169922 168.053 -0.169922 166.693C3.64985 161.964 7.61471 157.319 11.7246 152.76C5.16651 144.184 1.20167 134.555 -0.169922 123.873C-0.169922 119.795 -0.169922 115.717 -0.169922 111.639C3.52262 87.7765 16.7765 71.8606 39.5918 63.8906C46.8179 61.8791 54.1813 61.1426 61.6816 61.6816C60.4222 37.9741 69.7111 19.7924 89.5488 7.13672C96.4929 3.29257 103.856 0.857028 111.639 -0.169922ZM117.416 10.0254C137.387 11.0277 151.604 20.5434 160.066 38.5723C166.664 57.1257 163.379 73.6649 150.211 88.1895C149.302 90.6557 149.641 92.9214 151.23 94.9863C153.213 97.1953 155.195 99.4043 157.178 101.613C143.924 101.84 130.67 101.84 117.416 101.613C98.0364 100.567 84.1592 91.3344 75.7852 73.916C68.311 53.3477 72.559 35.619 88.5293 20.7305C97.0149 14.032 106.644 10.4637 117.416 10.0254ZM55.5645 71.877C58.2784 72.1223 60.9972 72.4057 63.7207 72.7266C68.2179 85.8296 76.2609 96.1381 87.8496 103.652C92.0712 106.075 96.4327 108.171 100.934 109.939C103.423 128.572 97.249 143.582 82.4121 154.969C74.5464 160.385 65.8237 163.217 56.2441 163.465C42.9902 163.692 29.7363 163.692 16.4824 163.465C19.1215 160.619 21.5571 157.617 23.7891 154.459C24.0578 152.955 23.9445 151.482 23.4492 150.041C10.2811 135.516 6.99592 118.977 13.5938 100.424C21.9445 82.6136 35.9347 73.098 55.5645 71.877Z" fill="#02B7E4"/>
<path opacity="0.965" fill-rule="evenodd" clip-rule="evenodd" d="M114.017 20.9004C124.45 19.8489 131.87 24.0403 136.277 33.4746C139.526 46.1222 135.108 54.845 123.023 59.6426C122.91 63.7207 122.797 67.7988 122.683 71.8769C120.858 75.2414 118.196 76.091 114.697 74.4258C113.811 73.7672 113.189 72.9175 112.828 71.8769C112.601 65.5331 112.601 59.1896 112.828 52.8457C113.437 51.8958 114.174 51.0462 115.037 50.2969C117.897 49.9744 120.616 49.1815 123.193 47.918C128.029 43.1459 128.142 38.2749 123.533 33.3047C118.762 30.4045 114.4 30.9142 110.449 34.834C109.817 35.6455 109.364 36.5515 109.09 37.5527C108.829 39.5313 108.376 41.4572 107.73 43.3301C105.436 46.0026 102.774 46.3989 99.744 44.5195C98.5053 43.1744 97.9387 41.5887 98.0448 39.7617C99.0402 29.7637 104.364 23.4766 114.017 20.9004Z" fill="#02B7E4"/>
<path opacity="0.931" fill-rule="evenodd" clip-rule="evenodd" d="M115.717 80.373C121.207 79.6889 123.529 82.0678 122.684 87.5098C121.206 90.3696 118.884 91.3323 115.717 90.3984C112.857 88.9208 111.894 86.5986 112.828 83.4316C113.402 82.0094 114.365 80.9899 115.717 80.373Z" fill="#02B7E4"/>
<path opacity="0.986" fill-rule="evenodd" clip-rule="evenodd" d="M36.8729 102.463C49.561 102.406 62.2483 102.463 74.9354 102.633C77.7952 104.11 78.758 106.433 77.8241 109.6C77.3143 111.016 76.3515 111.979 74.9354 112.488C62.248 112.715 49.5603 112.715 36.8729 112.488C33.8229 110.737 32.9733 108.189 34.3241 104.842C35.0088 103.852 35.8585 103.059 36.8729 102.463Z" fill="#02B7E4"/>
<path opacity="0.986" fill-rule="evenodd" clip-rule="evenodd" d="M36.8729 122.854C49.561 122.797 62.2483 122.854 74.9354 123.023C77.7952 124.501 78.758 126.823 77.8241 129.99C77.3143 131.406 76.3515 132.369 74.9354 132.879C62.248 133.106 49.5603 133.106 36.8729 132.879C33.8229 131.128 32.9733 128.579 34.3241 125.232C35.0088 124.243 35.8585 123.45 36.8729 122.854Z" fill="#02B7E4"/>
</g>
<defs>
<clipPath id="clip0_178_1520">
<rect width="174" height="174" fill="white"/>
</clipPath>
</defs>
</svg>
