<?xml version="1.0" encoding="UTF-8"?>
<!DOCTYPE svg PUBLIC "-//W3C//DTD SVG 1.1//EN" "http://www.w3.org/Graphics/SVG/1.1/DTD/svg11.dtd">
<svg xmlns="http://www.w3.org/2000/svg" version="1.1" width="512px" height="512px" style="shape-rendering:geometricPrecision; text-rendering:geometricPrecision; image-rendering:optimizeQuality; fill-rule:evenodd; clip-rule:evenodd" xmlns:xlink="http://www.w3.org/1999/xlink">
<g><path style="opacity:0.992" fill="#02b7e4" d="M -0.5,424.5 C -0.5,342.5 -0.5,260.5 -0.5,178.5C 9.13984,118.033 41.8065,75.1992 97.5,50C 127.17,38.293 157.503,35.6264 188.5,42C 192.116,44.7425 194.616,48.2425 196,52.5C 196.667,69.8333 196.667,87.1667 196,104.5C 193.833,110.667 189.667,114.833 183.5,117C 170.88,118.231 158.214,118.898 145.5,119C 117.467,124.266 97.3003,139.766 85,165.5C 78.3761,182.444 77.0428,199.777 81,217.5C 84.6549,225.822 90.8215,231.322 99.5,234C 128.46,235.292 157.46,235.959 186.5,236C 212.029,241.196 228.196,256.363 235,281.5C 236.131,305.637 236.631,329.803 236.5,354C 252.888,449.779 213.221,489.279 117.5,472.5C 93.1271,472.642 68.7938,472.142 44.5,471C 20.6197,464.058 5.61967,448.558 -0.5,424.5 Z"/></g>
<g><path style="opacity:0.991" fill="#02b7e4" d="M 511.5,283.5 C 511.5,330.5 511.5,377.5 511.5,424.5C 505.035,450.926 488.368,466.76 461.5,472C 416.167,472.667 370.833,472.667 325.5,472C 299.426,467.26 282.926,452.093 276,426.5C 274.854,385.861 274.354,345.194 274.5,304.5C 274.371,261.817 274.871,219.15 276,176.5C 287.229,110.609 324.396,66.7759 387.5,45C 412.289,38.1481 437.289,36.8147 462.5,41C 467.551,43.7199 470.718,47.8865 472,53.5C 472.959,71.2328 472.625,88.8995 471,106.5C 468.117,111.05 464.284,114.55 459.5,117C 446.88,118.231 434.214,118.898 421.5,119C 383.759,126.741 361.592,149.574 355,187.5C 354.114,196.895 354.447,206.228 356,215.5C 359.591,224.759 366.091,230.925 375.5,234C 404.127,235.292 432.793,235.959 461.5,236C 488.454,241.123 505.12,256.956 511.5,283.5 Z"/></g>
</svg>
