<?xml version="1.0" encoding="UTF-8"?>
<!DOCTYPE svg PUBLIC "-//W3C//DTD SVG 1.1//EN" "http://www.w3.org/Graphics/SVG/1.1/DTD/svg11.dtd">
<svg xmlns="http://www.w3.org/2000/svg" version="1.1" width="512px" height="512px" style="shape-rendering:geometricPrecision; text-rendering:geometricPrecision; image-rendering:optimizeQuality; fill-rule:evenodd; clip-rule:evenodd" xmlns:xlink="http://www.w3.org/1999/xlink">
<g><path style="opacity:0.993" fill="#FFFFFF" d="M 511.5,73.5 C 511.5,194.833 511.5,316.167 511.5,437.5C 504.937,463.897 488.604,481.064 462.5,489C 393.53,490.157 324.53,490.657 255.5,490.5C 186.47,490.657 117.47,490.157 48.5,489C 22.3959,481.064 6.06257,463.897 -0.5,437.5C -0.5,316.167 -0.5,194.833 -0.5,73.5C 6.06257,47.1026 22.3959,29.936 48.5,22C 117.47,20.8432 186.47,20.3432 255.5,20.5C 324.53,20.3432 393.53,20.8432 462.5,22C 488.604,29.936 504.937,47.1026 511.5,73.5 Z M 42.5,127.5 C 184.5,127.5 326.5,127.5 468.5,127.5C 468.667,228.167 468.5,328.834 468,429.5C 465.148,440.02 458.315,445.853 447.5,447C 319.5,447.667 191.5,447.667 63.5,447C 52.685,445.853 45.8516,440.02 43,429.5C 42.5,328.834 42.3333,228.167 42.5,127.5 Z"/></g>
<g><path style="opacity:0.982" fill="#FFFFFF" d="M 99.5,191.5 C 153.834,191.333 208.168,191.5 262.5,192C 270.192,195.023 275.025,200.523 277,208.5C 277.667,221.833 277.667,235.167 277,248.5C 271.731,265.05 260.898,270.216 244.5,264C 239.884,261.382 236.717,257.549 235,252.5C 233.696,246.577 233.196,240.577 233.5,234.5C 223.167,234.5 212.833,234.5 202.5,234.5C 202.5,276.833 202.5,319.167 202.5,361.5C 213.054,359.76 222.22,362.426 230,369.5C 236.895,380.929 235.729,391.429 226.5,401C 223.382,402.893 220.049,404.226 216.5,405C 192.5,405.667 168.5,405.667 144.5,405C 130.645,400.469 125.145,390.969 128,376.5C 131.023,368.808 136.523,363.975 144.5,362C 149.489,361.501 154.489,361.334 159.5,361.5C 159.5,319.167 159.5,276.833 159.5,234.5C 148.833,234.5 138.167,234.5 127.5,234.5C 127.666,240.176 127.499,245.843 127,251.5C 122.098,263.206 113.265,268.039 100.5,266C 92.6667,263.5 87.5,258.333 85,250.5C 84.3333,236.167 84.3333,221.833 85,207.5C 86.9469,199.393 91.7802,194.06 99.5,191.5 Z"/></g>
<g><path style="opacity:0.977" fill="#FFFFFF" d="M 333.5,191.5 C 359.502,191.333 385.502,191.5 411.5,192C 423.206,196.902 428.039,205.735 426,218.5C 423.5,226.333 418.333,231.5 410.5,234C 385.5,234.667 360.5,234.667 335.5,234C 321.895,229.3 316.728,219.8 320,205.5C 322.687,198.981 327.187,194.314 333.5,191.5 Z"/></g>
<g><path style="opacity:0.978" fill="#FFFFFF" d="M 335.5,276.5 C 360.502,276.333 385.502,276.5 410.5,277C 422.995,281.483 428.161,290.317 426,303.5C 424.222,311.575 419.389,316.742 411.5,319C 385.833,319.667 360.167,319.667 334.5,319C 324.597,315.536 319.597,308.536 319.5,298C 319.138,291.75 321.138,286.417 325.5,282C 328.767,279.87 332.1,278.037 335.5,276.5 Z"/></g>
<g><path style="opacity:0.961" fill="#FFFFFF" d="M 336.5,361.5 C 361.885,361.038 387.218,361.538 412.5,363C 426.006,369.844 429.84,380.344 424,394.5C 420.474,400.352 415.307,403.852 408.5,405C 384.5,405.667 360.5,405.667 336.5,405C 322.645,400.469 317.145,390.969 320,376.5C 323.198,368.795 328.698,363.795 336.5,361.5 Z"/></g>
</svg>
