<svg width="22" height="22" viewBox="0 0 22 22" fill="none" xmlns="http://www.w3.org/2000/svg">
<path opacity="0.989" fill-rule="evenodd" clip-rule="evenodd" d="M9.02118 0.00285104C10.3398 -0.00475212 11.6583 0.00285104 12.9768 0.0256697C14.1066 0.11218 14.8195 0.69786 15.1156 1.7827C15.1386 2.31492 15.1463 2.84735 15.1386 3.38C17.2698 3.3724 19.4009 3.38 21.532 3.40282C21.9243 3.59569 22.07 3.90753 21.969 4.33839C21.8622 4.68454 21.6245 4.85947 21.256 4.86321C20.6583 4.88603 20.0603 4.89365 19.4622 4.88603C19.4699 9.05426 19.4622 13.2224 19.4392 17.3906C19.2347 19.4795 18.1538 20.9171 16.1965 21.7033C15.6746 21.8784 15.1381 21.9696 14.5867 21.9772C12.1949 22.0076 9.80311 22.0076 7.41133 21.9772C5.07673 21.8359 3.52053 20.6722 2.74278 18.4859C2.64168 18.1275 2.58035 17.7624 2.55879 17.3906C2.5358 13.2224 2.52813 9.05426 2.5358 4.88603C1.92233 4.89365 1.30905 4.88603 0.695969 4.86321C0.137228 4.76697 -0.0850874 4.43988 0.0290324 3.88201C0.0936839 3.65049 0.239338 3.49076 0.465991 3.40282C2.59707 3.38 4.72818 3.3724 6.85939 3.38C6.85171 2.84735 6.85939 2.31492 6.88238 1.7827C7.18609 0.697427 7.89903 0.104143 9.02118 0.00285104ZM9.02118 1.50888C10.4034 1.48749 11.7832 1.51031 13.1608 1.57734C13.3678 1.661 13.5134 1.80552 13.5977 2.01089C13.6207 2.46701 13.6284 2.92338 13.6207 3.38C11.8729 3.38 10.1251 3.38 8.37724 3.38C8.36961 2.92338 8.37724 2.46701 8.40024 2.01089C8.52057 1.73124 8.72755 1.5639 9.02118 1.50888ZM8.28525 8.30882C8.76011 8.25118 9.05908 8.44898 9.18217 8.90211C9.21285 11.2752 9.21285 13.6484 9.18217 16.0215C8.99234 16.5074 8.64738 16.6671 8.14726 16.5007C7.99401 16.387 7.87902 16.2425 7.8023 16.0672C7.77162 13.6484 7.77162 11.2296 7.8023 8.81083C7.89521 8.5742 8.05619 8.40685 8.28525 8.30882ZM13.2988 8.30882C13.7252 8.25785 14.0242 8.42515 14.1957 8.81083C14.2264 11.2296 14.2264 13.6484 14.1957 16.0672C13.9642 16.5509 13.604 16.6802 13.1148 16.4551C12.9598 16.3471 12.8602 16.2026 12.8158 16.0215C12.7851 13.6332 12.7851 11.2448 12.8158 8.85647C12.9049 8.60857 13.0659 8.42602 13.2988 8.30882Z" fill="#A2A2A2"/>
</svg>
