<svg width="68" height="62" viewBox="0 0 68 62" fill="none" xmlns="http://www.w3.org/2000/svg">
<path opacity="0.969" fill-rule="evenodd" clip-rule="evenodd" d="M32.5637 11.0389C33.755 10.9145 34.8886 11.0883 35.9646 11.5605C41.706 17.1444 47.5031 22.6825 53.3558 28.175C54.4046 29.8686 54.1728 31.3834 52.6601 32.7197C51.0036 33.6999 49.4577 33.5509 48.0225 32.2727C44.4885 28.8165 40.9071 25.4141 37.2786 22.0656C37.2272 34.483 37.1755 46.9005 37.1241 59.3178C36.7489 61.0448 35.6409 61.9389 33.8004 62C31.9579 61.9367 30.8501 61.0426 30.4768 59.3178C30.4253 46.9501 30.3737 34.5823 30.3222 22.2146C26.6336 25.8199 22.8977 29.3712 19.1146 32.8687C16.8741 33.8376 15.1995 33.2665 14.0905 31.1551C13.8809 30.1008 14.0355 29.1073 14.5542 28.175C20.5023 22.3667 26.5054 16.6548 32.5637 11.0389Z" fill="white"/>
<path opacity="0.968" fill-rule="evenodd" clip-rule="evenodd" d="M2.85981 0.0113501C23.62 -0.018916 44.3802 0.0113501 65.1402 0.10213C66.9838 0.545082 67.9371 1.84625 68 4.00567C67.9349 6.16735 66.9816 7.46853 65.1402 7.90922C44.38 8.03026 23.62 8.03026 2.85981 7.90922C1.01622 7.46626 0.0629477 6.16509 0 4.00567C0.0957402 1.84119 1.04901 0.509751 2.85981 0.0113501Z" fill="white"/>
</svg>
