<?xml version="1.0" encoding="UTF-8"?>
<!DOCTYPE svg PUBLIC "-//W3C//DTD SVG 1.1//EN" "http://www.w3.org/Graphics/SVG/1.1/DTD/svg11.dtd">
<svg xmlns="http://www.w3.org/2000/svg" version="1.1" width="512px" height="512px" style="shape-rendering:geometricPrecision; text-rendering:geometricPrecision; image-rendering:optimizeQuality; fill-rule:evenodd; clip-rule:evenodd" xmlns:xlink="http://www.w3.org/1999/xlink">
<g><path style="opacity:0.994" fill="#FFFFFF" d="M 511.5,213.5 C 511.5,241.5 511.5,269.5 511.5,297.5C 510.117,315.392 508.284,333.392 506,351.5C 504.634,364.031 502.301,376.365 499,388.5C 489.232,410.13 472.732,423.297 449.5,428C 412.662,432.782 375.662,435.448 338.5,436C 257.101,438.529 175.768,437.196 94.5,432C 78.5036,431.167 62.8369,428.501 47.5,424C 29.8497,416.35 17.683,403.517 11,385.5C 5.2887,354.582 1.45536,323.582 -0.5,292.5C -0.5,267.167 -0.5,241.833 -0.5,216.5C 1.38418,186.397 5.21751,156.397 11,126.5C 20.0575,103.044 36.8908,88.5435 61.5,83C 97.3309,78.1771 133.331,75.5105 169.5,75C 247.877,72.6033 326.21,73.6033 404.5,78C 419.582,78.9415 434.582,80.6082 449.5,83C 474.973,88.1349 492.14,102.968 501,127.5C 505.94,156.144 509.44,184.811 511.5,213.5 Z M 204.5,178.5 C 248.637,204.07 292.637,229.903 336.5,256C 292.749,281.626 248.915,307.126 205,332.5C 204.5,281.168 204.333,229.834 204.5,178.5 Z"/></g>
</svg>
