<svg width="32" height="33" viewBox="0 0 32 33" fill="none" xmlns="http://www.w3.org/2000/svg">
<path d="M8.75 0C3.91825 0 0 4.01154 0 8.95833V23.2917C0 28.2385 3.91825 32.25 8.75 32.25H22.75C27.5817 32.25 31.5 28.2385 31.5 23.2917V8.95833C31.5 4.01154 27.5817 0 22.75 0H8.75ZM26.25 3.58333C27.216 3.58333 28 4.386 28 5.375C28 6.364 27.216 7.16667 26.25 7.16667C25.284 7.16667 24.5 6.364 24.5 5.375C24.5 4.386 25.284 3.58333 26.25 3.58333ZM15.75 7.16667C20.5817 7.16667 24.5 11.1782 24.5 16.125C24.5 21.0718 20.5817 25.0833 15.75 25.0833C10.9183 25.0833 7 21.0718 7 16.125C7 11.1782 10.9183 7.16667 15.75 7.16667ZM15.75 10.75C14.3576 10.75 13.0223 11.3163 12.0377 12.3243C11.0531 13.3323 10.5 14.6995 10.5 16.125C10.5 17.5505 11.0531 18.9177 12.0377 19.9257C13.0223 20.9337 14.3576 21.5 15.75 21.5C17.1424 21.5 18.4777 20.9337 19.4623 19.9257C20.4469 18.9177 21 17.5505 21 16.125C21 14.6995 20.4469 13.3323 19.4623 12.3243C18.4777 11.3163 17.1424 10.75 15.75 10.75Z" fill="white"/>
</svg>
