<svg width="31" height="32" viewBox="0 0 31 32" fill="none" xmlns="http://www.w3.org/2000/svg">
<path d="M27.3333 0H3.41667C1.52896 0 0 1.56625 0 3.5V28C0 29.9338 1.52896 31.5 3.41667 31.5H27.3333C29.221 31.5 30.75 29.9338 30.75 28V3.5C30.75 1.56625 29.221 0 27.3333 0ZM10.25 24.5H5.93988V12.25H10.25V24.5ZM8.01892 10.0048C6.70179 10.0048 5.822 9.10525 5.822 7.90475C5.822 6.70425 6.70008 5.80475 8.16412 5.80475C9.48125 5.80475 10.361 6.70425 10.361 7.90475C10.361 9.10525 9.48296 10.0048 8.01892 10.0048ZM25.625 24.5H21.4532V17.8045C21.4532 15.953 20.3411 15.526 19.9243 15.526C19.5075 15.526 18.1169 15.8112 18.1169 17.8045C18.1169 18.0898 18.1169 24.5 18.1169 24.5H13.8068V12.25H18.1169V13.9598C18.6721 12.9623 19.7842 12.25 21.8701 12.25C23.956 12.25 25.625 13.9597 25.625 17.8045V24.5Z" fill="white"/>
</svg>
