<svg width="36" height="29" viewBox="0 0 36 29" fill="none" xmlns="http://www.w3.org/2000/svg">
<path d="M36 0C34.596 0.839135 31.779 1.98275 30.123 2.31261C30.0744 2.32529 30.0348 2.3416 29.988 2.35429C28.5246 0.900756 26.5194 0 24.3 0C19.827 0 16.2 3.65196 16.2 8.15574C16.2 8.39316 16.1802 8.82995 16.2 9.06193C10.1646 9.06193 5.571 5.87938 2.277 1.81239C1.9188 2.71858 1.7622 4.15037 1.7622 5.49516C1.7622 8.03431 3.7332 10.5282 6.8022 12.0741C6.237 12.2209 5.6142 12.326 4.9662 12.326C3.9204 12.326 2.8134 12.0487 1.8 11.2078C1.8 11.2386 1.8 11.2676 1.8 11.3002C1.8 14.8489 5.5404 17.2648 8.8668 17.9372C8.1918 18.3377 6.831 18.3776 6.1668 18.3776C5.6988 18.3776 4.0428 18.1619 3.6 18.0786C4.5252 20.9874 7.8624 22.6222 11.043 22.6802C8.5554 24.6448 6.8292 25.3734 1.7352 25.3734H0C3.2184 27.4504 7.317 29 11.4246 29C24.7986 29 32.4 18.7365 32.4 9.06193C32.4 8.90607 32.3964 8.57984 32.391 8.2518C32.391 8.21917 32.4 8.18836 32.4 8.15574C32.4 8.1068 32.3856 8.05968 32.3856 8.01075C32.3802 7.76426 32.3748 7.53409 32.3694 7.41447C33.7914 6.38141 35.0244 5.09281 36 3.62477C34.695 4.20836 33.2946 4.59984 31.824 4.77745C33.3252 3.87126 35.4582 1.71089 36 0Z" fill="white"/>
</svg>
