<svg width="33" height="35" viewBox="0 0 33 35" fill="none" xmlns="http://www.w3.org/2000/svg">
<path fill-rule="evenodd" clip-rule="evenodd" d="M16.5 0C25.6066 0 33 7.84146 33 17.5C33 27.1585 25.6066 35 16.5 35C7.39337 35 0 27.1585 0 17.5C0 7.84146 7.39337 0 16.5 0ZM20.0159 23.3333H12.9828C13.7335 26.9208 14.9641 29.3329 16.5 31.71C18.1418 29.171 19.3064 26.7371 20.0159 23.3333ZM10.175 23.3333H3.89538C5.59487 27.4531 8.98838 30.5842 13.1835 31.6692C11.7425 29.1419 10.7319 26.3346 10.175 23.3333ZM29.1046 23.3333H22.825C22.2874 26.2325 21.3194 29.0019 19.8344 31.6371C23.9759 30.5244 27.4202 27.4152 29.1046 23.3333ZM9.84775 14.5833H3.025C2.65788 16.4981 2.65788 18.499 3.025 20.4167H9.78312C9.6195 18.4785 9.64425 16.52 9.84775 14.5833ZM20.3816 14.5833H12.617C12.3901 16.5171 12.3626 18.48 12.5441 20.4167H20.4545C20.6374 18.48 20.6071 16.5185 20.3816 14.5833ZM29.975 14.5833H23.1509C23.3544 16.52 23.3791 18.4785 23.2169 20.4167H29.975C30.3325 18.5427 30.3504 16.555 29.975 14.5833ZM13.2605 3.31187C9.02962 4.37937 5.60588 7.52063 3.89538 11.6667H10.2933C10.8914 8.68875 11.913 5.85521 13.2605 3.31187ZM16.4986 3.24188C15.0012 5.82313 13.8724 8.2775 13.112 11.6667H19.8866C19.1524 8.39125 18.0483 5.90917 16.4986 3.24188ZM19.7546 3.3425C21.1475 5.985 22.1375 8.82583 22.7054 11.6667H29.1046C27.4106 7.56 23.9319 4.43625 19.7546 3.3425Z" fill="white"/>
</svg>
