<svg width="33" height="35" viewBox="0 0 33 35" fill="none" xmlns="http://www.w3.org/2000/svg">
<path d="M4.91276 0L7.62337 9.35156V13.8359H9.97233V9.35156L12.7188 0H10.3519L9.36719 4.25537C9.09035 5.49787 8.91433 6.38096 8.83366 6.90771H8.76204C8.64654 6.17096 8.47052 5.28128 8.22852 4.23828L7.27962 0H4.91276ZM15.458 3.53076C14.6623 3.53076 14.0211 3.67918 13.5316 3.98193C13.0421 4.28293 12.6812 4.76457 12.4502 5.42432C12.221 6.08407 12.1064 6.9574 12.1064 8.0459V9.51562C12.1064 10.5919 12.2056 11.4538 12.4072 12.103C12.6089 12.7523 12.9492 13.2306 13.4277 13.5386C13.9062 13.8466 14.5646 14 15.4043 14C16.222 14 16.872 13.8482 17.3486 13.5454C17.8253 13.2427 18.1708 12.7678 18.3835 12.1133C18.5961 11.4588 18.7021 10.5936 18.7021 9.51562V8.0459C18.7021 6.95915 18.5945 6.08907 18.3763 5.43457C18.1581 4.78182 17.8109 4.30019 17.3379 3.99219C16.8649 3.68419 16.2408 3.53076 15.458 3.53076ZM19.9447 3.729V11.2793C19.9447 12.2138 20.1087 12.9011 20.4424 13.3403C20.7761 13.7796 21.2943 14 21.9964 14C23.0084 14 23.7713 13.5331 24.2773 12.5986H24.3275L24.5352 13.8359H26.4007V3.729H24.0195V11.7578C23.9279 11.9451 23.7877 12.0985 23.597 12.2192C23.4063 12.3417 23.2098 12.4004 23.0026 12.4004C22.7606 12.4004 22.5879 12.3058 22.4834 12.1133C22.3789 11.9208 22.3258 11.5975 22.3258 11.146V3.729H19.9447ZM15.4043 5.09619C15.738 5.09619 15.9741 5.26263 16.1061 5.59863C16.2381 5.93288 16.3031 6.46516 16.3031 7.19141V10.3394C16.3031 11.0866 16.2381 11.6271 16.1061 11.9561C15.9741 12.2851 15.7397 12.4499 15.4079 12.4517C15.0742 12.4517 14.8433 12.2851 14.7168 11.9561C14.5885 11.6271 14.527 11.0866 14.527 10.3394V7.19141C14.527 6.46691 14.592 5.93463 14.724 5.59863C14.856 5.26438 15.0816 5.09619 15.4043 5.09619ZM3.66667 15.75C1.65 15.75 0 17.325 0 19.25V31.5C0 33.425 1.65 35 3.66667 35H29.3333C31.35 35 33 33.425 33 31.5V19.25C33 17.325 31.35 15.75 29.3333 15.75H3.66667ZM16.5895 19.25H18.5267V23.7446H18.541C18.7152 23.4191 18.965 23.158 19.2858 22.9585C19.6066 22.759 19.9539 22.6611 20.3242 22.6611C20.8009 22.6611 21.1737 22.7819 21.445 23.0234C21.7163 23.2649 21.9148 23.6551 22.0358 24.1924C22.1568 24.7314 22.2148 25.4791 22.2148 26.4346V27.7847H22.2184C22.2184 29.0569 22.0559 29.9889 21.735 30.5874C21.4142 31.1859 20.9149 31.4863 20.2347 31.4863C19.8552 31.4863 19.5115 31.4031 19.1999 31.2368C18.8882 31.0706 18.6539 30.842 18.498 30.5532H18.4551L18.251 31.3599H16.5895V19.25ZM4.55827 19.6807H10.5202V21.229H8.52214V31.3599H6.55632V21.229H4.55827V19.6807ZM25.8457 22.6646C26.535 22.6646 27.0652 22.7854 27.4355 23.0269C27.804 23.2684 28.064 23.6455 28.2161 24.1548C28.3665 24.6658 28.4417 25.371 28.4417 26.2705V27.7334H25.0758V28.1675C25.0758 28.7152 25.0911 29.1249 25.126 29.3979C25.1608 29.6709 25.2309 29.8718 25.3372 29.9961C25.4436 30.1221 25.6077 30.1841 25.8314 30.1841C26.132 30.1841 26.339 30.0714 26.4508 29.8491C26.5627 29.6269 26.6243 29.258 26.6335 28.7383L28.3701 28.834C28.3793 28.9075 28.3844 29.0121 28.3844 29.1416C28.3844 29.9309 28.1569 30.5202 27.7041 30.9087C27.2513 31.2989 26.6152 31.4932 25.7884 31.4932C24.7966 31.4932 24.1005 31.1943 23.7008 30.6011C23.3012 30.0078 23.1029 29.0904 23.1029 27.8462V26.356C23.1029 25.075 23.3098 24.1396 23.7223 23.5498C24.1348 22.9601 24.8447 22.6646 25.8457 22.6646ZM9.91862 22.8286H11.9346V29.0938C11.9346 29.4735 11.9791 29.7462 12.0671 29.9072C12.1551 30.07 12.2986 30.1499 12.5039 30.1499C12.6781 30.1499 12.8493 30.0993 13.0088 29.9961C13.1701 29.8946 13.2844 29.7639 13.3633 29.6064V22.8286H15.3792V31.3599H15.3757H13.8001L13.6283 30.314H13.5817C13.1527 31.105 12.5114 31.5 11.6553 31.5C11.0613 31.5 10.6271 31.3139 10.3447 30.9429C10.0624 30.5719 9.91862 29.9906 9.91862 29.2031V22.8286ZM25.8027 23.9634C25.5882 23.9634 25.4292 24.0255 25.3265 24.1445C25.2238 24.2653 25.1554 24.4628 25.1224 24.7358C25.0876 25.0088 25.0723 25.4235 25.0723 25.98V26.5918H26.5439V25.98C26.5439 25.4322 26.5252 25.0193 26.4867 24.7358C26.45 24.4523 26.3781 24.2532 26.2754 24.1377C26.1727 24.0222 26.0172 23.9634 25.8027 23.9634ZM19.4183 24.0249C19.224 24.0249 19.0462 24.0983 18.8812 24.2471C18.7162 24.3958 18.5981 24.5869 18.5303 24.8179V29.6611C18.6183 29.8099 18.7329 29.9208 18.874 29.9961C19.0152 30.0696 19.1655 30.1089 19.3324 30.1089C19.5469 30.1089 19.7143 30.0355 19.8408 29.8867C19.9673 29.738 20.0598 29.4883 20.113 29.1348C20.1661 28.783 20.1917 28.2931 20.1917 27.6719V26.5747C20.1917 25.9062 20.1713 25.392 20.1273 25.0298C20.0833 24.6675 20.0045 24.4062 19.8945 24.2539C19.7827 24.1017 19.6236 24.0249 19.4183 24.0249Z" fill="white"/>
</svg>
