<svg width="32" height="32" viewBox="0 0 32 32" fill="none" xmlns="http://www.w3.org/2000/svg">
<g clip-path="url(#clip0)">
<path d="M2.6665 13.3333C2.6665 10.4694 5.12724 8.22305 7.9902 8.29622C10.2821 8.35479 12.8472 8.31871 14.6665 8C19.0486 7.23233 23.9998 4 23.9998 4V22.6667C23.9998 22.6667 19.0486 19.4343 14.6665 18.6667C12.8472 18.348 10.2821 18.3119 7.9902 18.3704C5.12724 18.4436 2.6665 16.1972 2.6665 13.3333V13.3333Z" stroke="#14142B" stroke-width="2"/>
<path d="M17.3333 20.0003V29.8996C17.3333 30.9001 16.0268 31.2805 15.4897 30.4365L8 18.667" stroke="#14142B" stroke-width="2"/>
<path d="M24 17.333C26.2091 17.333 28 15.5421 28 13.333C28 11.1239 26.2091 9.33301 24 9.33301" stroke="#14142B" stroke-width="2"/>
</g>
<defs>
<clipPath id="clip0">
<rect width="32" height="32" fill="white"/>
</clipPath>
</defs>
</svg>
