<svg width="28" height="28" viewBox="0 0 28 28" fill="none" xmlns="http://www.w3.org/2000/svg">
<path fill-rule="evenodd" clip-rule="evenodd" d="M12.6665 8.66666C12.6665 7.93066 13.2638 7.33332 13.9998 7.33332C14.7358 7.33332 15.3332 7.93066 15.3332 8.66666C15.3332 9.40266 14.7358 9.99999 13.9998 9.99999C13.2638 9.99999 12.6665 9.40266 12.6665 8.66666ZM12.6665 12.6667C12.6665 11.9307 13.2638 11.3333 13.9998 11.3333C14.7358 11.3333 15.3332 11.9307 15.3332 12.6667V19.3333C15.3332 20.0693 14.7358 20.6667 13.9998 20.6667C13.2638 20.6667 12.6665 20.0693 12.6665 19.3333V12.6667ZM13.9998 24.6667C8.1185 24.6667 3.33317 19.8813 3.33317 14C3.33317 8.11866 8.1185 3.33332 13.9998 3.33332C19.8812 3.33332 24.6665 8.11866 24.6665 14C24.6665 19.8813 19.8812 24.6667 13.9998 24.6667ZM13.9998 0.666656C6.63584 0.666656 0.666504 6.63599 0.666504 14C0.666504 21.364 6.63584 27.3333 13.9998 27.3333C21.3625 27.3333 27.3332 21.364 27.3332 14C27.3332 6.63599 21.3625 0.666656 13.9998 0.666656Z" fill="#273966"/>
</svg>
