<svg width="68" height="68" viewBox="0 0 68 68" fill="none" xmlns="http://www.w3.org/2000/svg">
<path fill-rule="evenodd" clip-rule="evenodd" d="M37.3332 10.667C37.3332 12.5103 35.8398 14.0003 33.9998 14.0003C32.1598 14.0003 30.6665 12.5103 30.6665 10.667V4.00033C30.6665 2.15699 32.1598 0.666992 33.9998 0.666992C35.8398 0.666992 37.3332 2.15699 37.3332 4.00033V10.667ZM17.3332 34.0003C17.3332 24.8103 24.8098 17.3337 33.9998 17.3337C43.1898 17.3337 50.6665 24.8103 50.6665 34.0003C50.6665 39.2637 48.1532 44.207 43.9998 47.3203V60.667C43.9998 64.3437 41.0098 67.3337 37.3332 67.3337H30.6665C26.9898 67.3337 23.9998 64.3437 23.9998 60.667V47.3203C19.8432 44.207 17.3332 39.2637 17.3332 34.0003ZM63.9998 30.667H57.3332C55.4898 30.667 53.9998 32.157 53.9998 34.0003C53.9998 35.8437 55.4898 37.3337 57.3332 37.3337H63.9998C65.8432 37.3337 67.3332 35.8437 67.3332 34.0003C67.3332 32.157 65.8432 30.667 63.9998 30.667ZM3.99984 30.667H10.6665C12.5065 30.667 13.9998 32.157 13.9998 34.0003C13.9998 35.8437 12.5065 37.3337 10.6665 37.3337H3.99984C2.15984 37.3337 0.666504 35.8437 0.666504 34.0003C0.666504 32.157 2.15984 30.667 3.99984 30.667ZM19.5322 15.3937L14.7355 10.7603C13.4122 9.48366 11.3055 9.52366 10.0222 10.847C8.74217 12.167 8.77884 14.2803 10.1022 15.5603L14.8988 20.1903C15.5488 20.817 16.3822 21.127 17.2155 21.127C18.0888 21.127 18.9588 20.7837 19.6122 20.107C20.8922 18.787 20.8555 16.6737 19.5322 15.3937ZM53.2645 10.766C54.5845 9.48933 56.7045 9.52599 57.9745 10.846C59.2545 12.166 59.2178 14.2793 57.8945 15.556L53.0978 20.1893C52.4545 20.8127 51.6178 21.126 50.7845 21.126C49.9112 21.126 49.0378 20.7827 48.3878 20.106C47.1078 18.786 47.1445 16.6727 48.4678 15.396L53.2645 10.766Z" fill="#FFB137"/>
</svg>
