<svg width="68" height="68" viewBox="0 0 68 68" fill="none" xmlns="http://www.w3.org/2000/svg">
<path fill-rule="evenodd" clip-rule="evenodd" d="M47.3319 37.3309C45.4919 37.3309 43.9985 35.8376 43.9985 33.9976C43.9985 32.1576 45.4919 30.6642 47.3319 30.6642C49.1719 30.6642 50.6652 32.1576 50.6652 33.9976C50.6652 35.8376 49.1719 37.3309 47.3319 37.3309ZM33.9985 37.3309C32.1585 37.3309 30.6652 35.8376 30.6652 33.9976C30.6652 32.1576 32.1585 30.6642 33.9985 30.6642C35.8385 30.6642 37.3319 32.1576 37.3319 33.9976C37.3319 35.8376 35.8385 37.3309 33.9985 37.3309ZM20.6652 37.3309C18.8252 37.3309 17.3319 35.8376 17.3319 33.9976C17.3319 32.1576 18.8252 30.6642 20.6652 30.6642C22.5052 30.6642 23.9985 32.1576 23.9985 33.9976C23.9985 35.8376 22.5052 37.3309 20.6652 37.3309ZM57.5685 10.4276C49.9552 2.81423 39.4185 -0.582437 28.6552 1.0809C15.0652 3.2009 3.79853 14.1476 1.2552 27.7042C0.0318642 34.2309 0.735198 40.8776 3.29186 46.9209C3.61853 47.6876 3.71853 48.4076 3.58853 49.0509L0.731864 63.3442C0.511864 64.4376 0.855198 65.5676 1.64186 66.3542C2.27186 66.9842 3.12186 67.3309 3.99853 67.3309C4.2152 67.3309 4.4352 67.3109 4.65186 67.2642L18.9285 64.4109C19.7485 64.2542 20.5452 64.4842 21.0752 64.7042C27.1219 67.2609 33.7685 67.9609 40.2919 66.7409C53.8485 64.1976 64.7952 52.9309 66.9152 39.3409C68.5919 28.5809 65.1852 18.0442 57.5685 10.4276Z" fill="#FFB137"/>
</svg>
