<svg width="68" height="60" viewBox="0 0 68 60" fill="none" xmlns="http://www.w3.org/2000/svg">
<path fill-rule="evenodd" clip-rule="evenodd" d="M23.9998 26.6667C31.3532 26.6667 37.3332 20.6867 37.3332 13.3333C37.3332 5.98 31.3532 0 23.9998 0C16.6465 0 10.6665 5.98 10.6665 13.3333C10.6665 20.6867 16.6465 26.6667 23.9998 26.6667ZM50.6665 33.3333C56.1798 33.3333 60.6665 28.8467 60.6665 23.3333C60.6665 17.82 56.1798 13.3333 50.6665 13.3333C45.1532 13.3333 40.6665 17.82 40.6665 23.3333C40.6665 28.8467 45.1532 33.3333 50.6665 33.3333ZM67.3332 53.3333C67.3332 55.1733 65.8432 56.6667 63.9998 56.6667H47.3332C47.3332 58.5067 45.8432 60 43.9998 60H3.99984C2.1565 60 0.666504 58.5067 0.666504 56.6667C0.666504 43.8 11.1365 33.3333 23.9998 33.3333C30.4232 33.3333 36.2432 35.9433 40.4665 40.1533C43.3632 37.9133 46.9298 36.6667 50.6665 36.6667C59.8565 36.6667 67.3332 44.1433 67.3332 53.3333Z" fill="#FFB137"/>
</svg>
