<svg width="33" height="32" viewBox="0 0 33 32" fill="none" xmlns="http://www.w3.org/2000/svg">
<path d="M19.5154 4.56127C19.6437 4.05977 20.356 4.05977 20.4842 4.56127L21.8341 9.83966C22.3773 11.964 24.0361 13.6229 26.1605 14.1661L31.4389 15.5159C31.9404 15.6442 31.9404 16.3565 31.4389 16.4847L26.1605 17.8346C24.0361 18.3778 22.3773 20.0366 21.8341 22.161L20.4842 27.4394C20.356 27.9409 19.6437 27.9409 19.5154 27.4394L18.1656 22.161C17.6224 20.0366 15.9635 18.3778 13.8392 17.8346L8.56078 16.4847C8.05928 16.3565 8.05928 15.6442 8.56078 15.5159L13.8392 14.1661C15.9635 13.6229 17.6224 11.964 18.1656 9.83967L19.5154 4.56127Z" stroke="#14142B" stroke-width="2"/>
<path d="M4 1.33301V6.66634" stroke="#14142B" stroke-width="2" stroke-linecap="round" stroke-linejoin="round"/>
<path d="M6.66683 4H1.3335" stroke="#14142B" stroke-width="2" stroke-linecap="round" stroke-linejoin="round"/>
<path d="M5.3335 25.333V30.6663" stroke="#14142B" stroke-width="2" stroke-linecap="round" stroke-linejoin="round"/>
<path d="M7.99984 28H2.6665" stroke="#14142B" stroke-width="2" stroke-linecap="round" stroke-linejoin="round"/>
</svg>
