<svg width="80" height="80" viewBox="0 0 80 80" fill="none" xmlns="http://www.w3.org/2000/svg">
<path d="M78.2974 61.8281L60.0005 43.5312C56.3911 39.9219 51.0005 39.2188 46.6567 41.3594L30.0005 24.7031V15L10.0005 0L0.000488162 10L15.0005 30H24.7036L41.3599 46.6562C39.2349 51 39.9224 56.3906 43.5317 60L61.8286 78.2969C64.1099 80.5781 67.7974 80.5781 70.063 78.2969L78.2974 70.0625C80.563 67.7812 80.563 64.0938 78.2974 61.8281ZM51.8286 35.1562C56.2505 35.1562 60.4067 36.875 63.5317 40L66.563 43.0312C69.0317 41.9531 71.3755 40.4531 73.4067 38.4219C79.2036 32.625 81.1724 24.4688 79.3286 17.0625C78.9849 15.6562 77.2192 15.1719 76.188 16.2031L64.563 27.8281L53.9536 26.0625L52.188 15.4531L63.813 3.82812C64.8442 2.79688 64.3442 1.03125 62.9224 0.671875C55.5161 -1.15625 47.3599 0.8125 41.5786 6.59375C37.1255 11.0469 35.0317 16.9219 35.1411 22.7812L47.9692 35.6094C49.2349 35.3125 50.5474 35.1562 51.8286 35.1562ZM35.5942 47.9688L26.7349 39.1094L2.92236 62.9375C-0.983887 66.8438 -0.983887 73.1719 2.92236 77.0781C6.82861 80.9844 13.1567 80.9844 17.063 77.0781L36.3755 57.7656C35.188 54.6563 34.8286 51.2656 35.5942 47.9688ZM10.0005 73.75C7.93799 73.75 6.25049 72.0625 6.25049 70C6.25049 67.9219 7.92236 66.25 10.0005 66.25C12.0786 66.25 13.7505 67.9219 13.7505 70C13.7505 72.0625 12.0786 73.75 10.0005 73.75Z" fill="#FFB137"/>
</svg>
