<svg width="32" height="32" viewBox="0 0 32 32" fill="none" xmlns="http://www.w3.org/2000/svg">
<circle cx="16.147" cy="16" r="15.8531" fill="#ECEDF5"/>
<path d="M23.9796 22.8465C22.7155 22.0931 19.5778 20.4587 16.1468 20.4587C12.7158 20.4587 9.57819 22.0931 8.31408 22.8465C7.93193 23.0743 7.69491 23.4716 7.64249 23.9134C7.42273 25.7657 8.86961 27.3944 10.7349 27.3944H21.5588C23.4241 27.3944 24.871 25.7657 24.6512 23.9134C24.5988 23.4716 24.3617 23.0743 23.9796 22.8465Z" fill="#6267DA"/>
<path d="M16.1462 16.9908C18.6086 16.9908 20.6048 14.9946 20.6048 12.5321C20.6048 10.0697 18.6086 8.07346 16.1462 8.07346C13.6837 8.07346 11.6875 10.0697 11.6875 12.5321C11.6875 14.9946 13.6837 16.9908 16.1462 16.9908Z" fill="#6267DA"/>
</svg>
