<?xml version="1.0" encoding="UTF-8"?>
<!DOCTYPE svg PUBLIC "-//W3C//DTD SVG 1.1//EN" "http://www.w3.org/Graphics/SVG/1.1/DTD/svg11.dtd">
<svg xmlns="http://www.w3.org/2000/svg" version="1.1" width="203px" height="44px" style="shape-rendering:geometricPrecision; text-rendering:geometricPrecision; image-rendering:optimizeQuality; fill-rule:evenodd; clip-rule:evenodd" xmlns:xlink="http://www.w3.org/1999/xlink">
<g><path style="opacity:0.695" fill="#fefffe" d="M 27.5,-0.5 C 34.5,-0.5 41.5,-0.5 48.5,-0.5C 62.8122,8.39196 65.9789,20.392 58,35.5C 54.929,38.4148 51.7623,41.0815 48.5,43.5C 41.8333,43.5 35.1667,43.5 28.5,43.5C 26.401,42.2482 24.401,40.7482 22.5,39C 20.3203,38.5812 18.1537,38.7479 16,39.5C 9.12303,38.3169 3.62303,34.9835 -0.5,29.5C -0.5,24.1667 -0.5,18.8333 -0.5,13.5C 1.71254,10.4365 4.37921,7.76984 7.5,5.5C 12.0506,3.40141 16.7173,3.06808 21.5,4.5C 23.5707,2.81491 25.5707,1.14824 27.5,-0.5 Z M 36.5,6.5 C 49.7551,7.67544 54.5884,14.6754 51,27.5C 48.636,32.8084 44.4694,35.475 38.5,35.5C 35.2979,35.3022 32.2979,34.4689 29.5,33C 33.3482,27.4516 34.5149,21.285 33,14.5C 32.4257,12.508 31.259,11.008 29.5,10C 31.7133,8.38383 34.0466,7.21716 36.5,6.5 Z M 15.5,10.5 C 16.2891,10.7828 16.9558,11.2828 17.5,12C 15.9007,13.7863 15.0674,15.953 15,18.5C 14.6667,18.1667 14.3333,17.8333 14,17.5C 13.3333,20.1667 13.3333,22.8333 14,25.5C 14.3333,25.1667 14.6667,24.8333 15,24.5C 15.0929,27.0075 15.9262,29.1741 17.5,31C 8.11217,30.7859 4.61217,25.9526 7,16.5C 9.36382,13.6822 12.1972,11.6822 15.5,10.5 Z M 24.5,15.5 C 26.8475,18.9744 27.0142,22.6411 25,26.5C 24.5014,22.8484 24.3347,19.1817 24.5,15.5 Z"/></g>
<g><path style="opacity:0.618" fill="#fefffe" d="M 160.5,-0.5 C 161.833,-0.5 163.167,-0.5 164.5,-0.5C 165.985,2.58583 166.985,5.91916 167.5,9.5C 168.216,8.68895 169.05,8.02229 170,7.5C 177.66,9.65065 181.16,14.6507 180.5,22.5C 180.399,25.6996 179.732,28.6996 178.5,31.5C 178,31.8333 177.5,32.1667 177,32.5C 175.662,31.4939 174.329,30.4939 173,29.5C 172.667,25.8333 172.333,22.1667 172,18.5C 170.451,15.9974 168.784,15.9974 167,18.5C 166.827,22.5408 166.327,26.5408 165.5,30.5C 164.672,31.4147 163.672,32.0814 162.5,32.5C 160.543,31.0465 158.71,29.3798 157,27.5C 151.817,33.2098 145.984,33.8764 139.5,29.5C 138.833,27.8333 138.167,26.1667 137.5,24.5C 135.864,27.9719 133.198,30.1386 129.5,31C 129.833,31.3333 130.167,31.6667 130.5,32C 128.19,32.4966 125.857,32.6633 123.5,32.5C 124.34,36.5393 123.007,39.5393 119.5,41.5C 118.5,40.8333 117.5,40.1667 116.5,39.5C 116.167,35.5 115.833,31.5 115.5,27.5C 115.391,22.7222 115.891,18.0555 117,13.5C 120.44,10.8627 123.607,8.86274 126.5,7.5C 132.355,8.5228 136.189,11.8561 138,17.5C 138.662,15.1873 139.162,12.854 139.5,10.5C 142.57,10.1988 145.403,9.19877 148,7.5C 150.451,8.64259 152.951,9.64259 155.5,10.5C 156.192,11.0253 156.692,11.6919 157,12.5C 157.333,9.16667 157.667,5.83333 158,2.5C 159.045,1.62656 159.878,0.626561 160.5,-0.5 Z M 125.5,16.5 C 131.568,18.3646 131.901,20.6979 126.5,23.5C 122.987,21.627 122.654,19.2937 125.5,16.5 Z M 156.5,16.5 C 157.598,17.6009 157.765,18.9343 157,20.5C 155.232,19.3181 155.065,17.9848 156.5,16.5 Z M 138.5,19.5 C 139.309,20.4687 140.309,21.3021 141.5,22C 138.874,24.0288 137.874,23.1954 138.5,19.5 Z"/></g>
<g><path style="opacity:0.622" fill="#fefffe" d="M 81.5,7.5 C 84.435,8.1137 87.2683,9.1137 90,10.5C 91.4768,11.444 92.4768,12.7774 93,14.5C 97.6644,8.52457 103.164,7.19123 109.5,10.5C 111.948,11.8025 113.448,13.8025 114,16.5C 114.828,21.202 114.662,25.8687 113.5,30.5C 112.672,31.4147 111.672,32.0814 110.5,32.5C 109.214,32.1485 108.381,31.4818 108,30.5C 101.889,32.8098 96.8892,31.1432 93,25.5C 88.8578,32.4926 83.3578,33.826 76.5,29.5C 70.353,23.7842 70.0197,17.7842 75.5,11.5C 78.0216,10.6971 80.0216,9.36376 81.5,7.5 Z M 91.5,22.5 C 90.3052,22.3225 89.1385,21.9891 88,21.5C 86.1049,23.1821 83.9383,23.6821 81.5,23C 79.9157,20.1751 80.5824,18.0084 83.5,16.5C 86.8559,19.4563 89.6892,19.1229 92,15.5C 92.0178,17.7972 91.8511,20.1305 91.5,22.5 Z M 101.5,16.5 C 105.713,16.6988 107.046,18.6988 105.5,22.5C 103.958,23.7468 102.458,23.7468 101,22.5C 100.51,20.4546 100.677,18.4546 101.5,16.5 Z"/></g>
<g><path style="opacity:0.658" fill="#fefffe" d="M 202.5,13.5 C 202.5,18.1667 202.5,22.8333 202.5,27.5C 199.427,29.5344 196.094,31.2011 192.5,32.5C 182.418,29.6684 179.251,23.3351 183,13.5C 185.754,10.8716 188.921,8.87155 192.5,7.5C 196.262,8.9564 199.596,10.9564 202.5,13.5 Z M 191.5,16.5 C 195.264,17.385 196.264,19.5516 194.5,23C 189.361,22.886 188.361,20.7193 191.5,16.5 Z"/></g>
</svg>
