<svg width="277" height="21" viewBox="0 0 277 21" fill="none" xmlns="http://www.w3.org/2000/svg">
<g clip-path="url(#clip0)">
<rect x="0.839233" y="0.0397949" width="80.8297" height="20.5459" rx="3.16091" fill="#3897F0"/>
<path d="M19.1858 13.7812V7.03962H21.1768C21.7726 7.03962 22.3004 7.17235 22.7603 7.43782C23.2234 7.70329 23.5814 8.07988 23.8346 8.5676C24.0877 9.05532 24.2142 9.61403 24.2142 10.2437V10.5818C24.2142 11.2207 24.0861 11.7825 23.8299 12.2672C23.5768 12.7518 23.2141 13.1253 22.7418 13.3877C22.2726 13.6501 21.734 13.7812 21.1259 13.7812H19.1858ZM20.3572 7.98419V12.8459H21.1212C21.7355 12.8459 22.2062 12.6546 22.5335 12.2718C22.8637 11.8859 23.032 11.3334 23.0381 10.6142V10.2391C23.0381 9.50754 22.8792 8.94882 22.5612 8.56297C22.2433 8.17711 21.7818 7.98419 21.1768 7.98419H20.3572ZM28.2657 13.7812C28.2163 13.6856 28.1731 13.5297 28.136 13.3136C27.778 13.6871 27.3396 13.8739 26.8211 13.8739C26.3179 13.8739 25.9074 13.7303 25.5894 13.4432C25.2715 13.1562 25.1125 12.8012 25.1125 12.3783C25.1125 11.8443 25.3101 11.4353 25.7052 11.1513C26.1034 10.8642 26.6713 10.7207 27.4091 10.7207H28.099V10.3919C28.099 10.1326 28.0265 9.9258 27.8814 9.77146C27.7363 9.61403 27.5156 9.53532 27.2193 9.53532C26.9631 9.53532 26.7531 9.60014 26.5895 9.72979C26.4259 9.85635 26.3441 10.0184 26.3441 10.216H25.219C25.219 9.94124 25.3101 9.68503 25.4922 9.44734C25.6743 9.20657 25.9212 9.01828 26.233 8.88245C26.5479 8.74663 26.8982 8.67872 27.2841 8.67872C27.8706 8.67872 28.3382 8.82689 28.687 9.12323C29.0359 9.41648 29.2149 9.83011 29.2242 10.3641V12.6237C29.2242 13.0744 29.2874 13.434 29.414 13.7025V13.7812H28.2657ZM27.0294 12.971C27.2517 12.971 27.46 12.9169 27.6545 12.8089C27.8521 12.7009 28.0002 12.5558 28.099 12.3737V11.4291H27.4924C27.0757 11.4291 26.7624 11.5016 26.5525 11.6467C26.3426 11.7918 26.2376 11.9971 26.2376 12.2625C26.2376 12.4786 26.3086 12.6515 26.4506 12.7811C26.5957 12.9077 26.7886 12.971 27.0294 12.971ZM33.0256 9.79924C32.8774 9.77455 32.7246 9.7622 32.5672 9.7622C32.0517 9.7622 31.7044 9.95976 31.5254 10.3549V13.7812H30.4002V8.77133H31.4744L31.5022 9.33159C31.7739 8.89635 32.1505 8.67872 32.632 8.67872C32.7925 8.67872 32.9253 8.70033 33.0302 8.74355L33.0256 9.79924ZM35.3639 11.6328L34.8638 12.1468V13.7812H33.7386V6.6692H34.8638V10.7716L35.2157 10.3317L36.6001 8.77133H37.9522L36.0908 10.8596L38.1513 13.7812H36.8502L35.3639 11.6328ZM42.1101 8.77133L42.1425 9.29455C42.4944 8.884 42.976 8.67872 43.5872 8.67872C44.257 8.67872 44.7154 8.93493 44.9623 9.44734C45.3266 8.93493 45.839 8.67872 46.4996 8.67872C47.0521 8.67872 47.4627 8.83152 47.7312 9.13712C48.0029 9.44271 48.1418 9.89339 48.1479 10.4891V13.7812H47.0228V10.5216C47.0228 10.2036 46.9533 9.97056 46.8144 9.82239C46.6755 9.67423 46.4456 9.60014 46.1245 9.60014C45.8683 9.60014 45.6584 9.6696 45.4948 9.8085C45.3343 9.94432 45.2216 10.1234 45.1568 10.3456L45.1614 13.7812H44.0363V10.4845C44.0209 9.89493 43.7199 9.60014 43.1334 9.60014C42.6827 9.60014 42.3632 9.78381 42.1749 10.1511V13.7812H41.0498V8.77133H42.1101ZM49.0925 11.23C49.0925 10.7392 49.1898 10.2978 49.3842 9.90574C49.5787 9.51062 49.8519 9.20812 50.2038 8.99821C50.5557 8.78522 50.96 8.67872 51.4169 8.67872C52.0929 8.67872 52.6408 8.89635 53.0606 9.33159C53.4835 9.76683 53.712 10.3441 53.7459 11.0633L53.7505 11.3272C53.7505 11.8211 53.6548 12.2625 53.4635 12.6515C53.2752 13.0404 53.0035 13.3414 52.6485 13.5544C52.2966 13.7674 51.8892 13.8739 51.4262 13.8739C50.7193 13.8739 50.1528 13.6393 49.7269 13.1701C49.304 12.6978 49.0925 12.0696 49.0925 11.2856V11.23ZM50.2177 11.3272C50.2177 11.8427 50.3242 12.2471 50.5372 12.5403C50.7501 12.8305 51.0465 12.9756 51.4262 12.9756C51.8058 12.9756 52.1006 12.8274 52.3105 12.5311C52.5235 12.2347 52.63 11.8011 52.63 11.23C52.63 10.7237 52.5204 10.3225 52.3013 10.0261C52.0852 9.72979 51.7904 9.58162 51.4169 9.58162C51.0496 9.58162 50.7579 9.72825 50.5418 10.0215C50.3257 10.3117 50.2177 10.7469 50.2177 11.3272ZM54.4914 11.2392C54.4914 10.4675 54.6704 9.84863 55.0285 9.38252C55.3866 8.91332 55.8666 8.67872 56.4685 8.67872C56.9994 8.67872 57.4285 8.86393 57.7557 9.23435V6.6692H58.8808V13.7812H57.8622L57.8066 13.2627C57.4702 13.6701 57.021 13.8739 56.4592 13.8739C55.8727 13.8739 55.3974 13.6377 55.0331 13.1654C54.672 12.6931 54.4914 12.0511 54.4914 11.2392ZM55.6165 11.3365C55.6165 11.8458 55.7138 12.244 55.9082 12.5311C56.1058 12.8151 56.3851 12.9571 56.7463 12.9571C57.2062 12.9571 57.5427 12.7518 57.7557 12.3412V10.2021C57.5489 9.80079 57.2155 9.60014 56.7556 9.60014C56.3913 9.60014 56.1104 9.74522 55.9129 10.0354C55.7153 10.3225 55.6165 10.7562 55.6165 11.3365ZM62.2609 13.8739C61.5479 13.8739 60.9691 13.6501 60.5246 13.2025C60.0832 12.7518 59.8625 12.1529 59.8625 11.4059V11.267C59.8625 10.767 59.9582 10.3209 60.1495 9.92889C60.344 9.53378 60.6156 9.22664 60.9645 9.00747C61.3133 8.78831 61.7022 8.67872 62.1313 8.67872C62.8135 8.67872 63.3398 8.89635 63.7102 9.33159C64.0837 9.76683 64.2704 10.3827 64.2704 11.1791V11.6328H60.9969C61.0308 12.0465 61.1682 12.3737 61.409 12.6144C61.6528 12.8552 61.9584 12.9756 62.3257 12.9756C62.8412 12.9756 63.2611 12.7672 63.5852 12.3505L64.1917 12.9293C63.9911 13.2287 63.7225 13.4618 63.3861 13.6285C63.0527 13.7921 62.6776 13.8739 62.2609 13.8739ZM62.1266 9.58162C61.818 9.58162 61.5679 9.68966 61.3765 9.90574C61.1883 10.1218 61.0679 10.4228 61.0154 10.8086H63.1592V10.7253C63.1345 10.3487 63.0342 10.0647 62.8582 9.87333C62.6823 9.67886 62.4384 9.58162 62.1266 9.58162Z" fill="white"/>
<rect x="85.2249" y="0.434909" width="80.0394" height="19.7557" rx="2.7658" fill="white"/>
<path d="M107.935 7.03962L109.879 12.207L111.819 7.03962H113.334V13.7812H112.167V11.5587L112.283 8.58612L110.292 13.7812H109.453L107.467 8.59075L107.583 11.5587V13.7812H106.416V7.03962H107.935ZM116.82 13.8739C116.107 13.8739 115.528 13.6501 115.084 13.2025C114.642 12.7518 114.422 12.1529 114.422 11.4059V11.267C114.422 10.767 114.517 10.3209 114.709 9.92889C114.903 9.53378 115.175 9.22664 115.524 9.00747C115.872 8.78831 116.261 8.67872 116.69 8.67872C117.373 8.67872 117.899 8.89635 118.269 9.33159C118.643 9.76683 118.83 10.3827 118.83 11.1791V11.6328H115.556C115.59 12.0465 115.727 12.3737 115.968 12.6144C116.212 12.8552 116.518 12.9756 116.885 12.9756C117.4 12.9756 117.82 12.7672 118.144 12.3505L118.751 12.9293C118.55 13.2287 118.282 13.4618 117.945 13.6285C117.612 13.7921 117.237 13.8739 116.82 13.8739ZM116.686 9.58162C116.377 9.58162 116.127 9.68966 115.936 9.90574C115.747 10.1218 115.627 10.4228 115.575 10.8086H117.718V10.7253C117.694 10.3487 117.593 10.0647 117.417 9.87333C117.241 9.67886 116.998 9.58162 116.686 9.58162ZM122.515 12.42C122.515 12.2193 122.432 12.0665 122.265 11.9616C122.102 11.8566 121.829 11.764 121.446 11.6838C121.063 11.6035 120.744 11.5016 120.487 11.3782C119.925 11.1065 119.645 10.7129 119.645 10.1974C119.645 9.76529 119.827 9.40413 120.191 9.11397C120.555 8.82381 121.018 8.67872 121.58 8.67872C122.179 8.67872 122.662 8.82689 123.029 9.12323C123.4 9.41956 123.585 9.80387 123.585 10.2762H122.46C122.46 10.0601 122.38 9.88104 122.219 9.73905C122.058 9.59397 121.846 9.52143 121.58 9.52143C121.333 9.52143 121.131 9.57853 120.973 9.69275C120.819 9.80696 120.742 9.95976 120.742 10.1511C120.742 10.324 120.815 10.4583 120.96 10.554C121.105 10.6497 121.398 10.7469 121.839 10.8457C122.281 10.9414 122.626 11.0571 122.877 11.1929C123.13 11.3257 123.316 11.4862 123.437 11.6745C123.56 11.8628 123.622 12.0912 123.622 12.3598C123.622 12.8104 123.435 13.1762 123.062 13.4571C122.688 13.7349 122.199 13.8739 121.594 13.8739C121.183 13.8739 120.818 13.7998 120.497 13.6516C120.176 13.5034 119.925 13.2997 119.746 13.0404C119.567 12.7811 119.478 12.5018 119.478 12.2023H120.571C120.586 12.4678 120.686 12.6731 120.872 12.8182C121.057 12.9602 121.302 13.0312 121.608 13.0312C121.904 13.0312 122.129 12.9756 122.284 12.8645C122.438 12.7502 122.515 12.6021 122.515 12.42ZM127.414 12.42C127.414 12.2193 127.331 12.0665 127.164 11.9616C127.001 11.8566 126.727 11.764 126.345 11.6838C125.962 11.6035 125.642 11.5016 125.386 11.3782C124.824 11.1065 124.543 10.7129 124.543 10.1974C124.543 9.76529 124.726 9.40413 125.09 9.11397C125.454 8.82381 125.917 8.67872 126.479 8.67872C127.078 8.67872 127.561 8.82689 127.928 9.12323C128.299 9.41956 128.484 9.80387 128.484 10.2762H127.359C127.359 10.0601 127.278 9.88104 127.118 9.73905C126.957 9.59397 126.744 9.52143 126.479 9.52143C126.232 9.52143 126.03 9.57853 125.872 9.69275C125.718 9.80696 125.641 9.95976 125.641 10.1511C125.641 10.324 125.713 10.4583 125.858 10.554C126.003 10.6497 126.297 10.7469 126.738 10.8457C127.18 10.9414 127.525 11.0571 127.775 11.1929C128.028 11.3257 128.215 11.4862 128.336 11.6745C128.459 11.8628 128.521 12.0912 128.521 12.3598C128.521 12.8104 128.334 13.1762 127.961 13.4571C127.587 13.7349 127.098 13.8739 126.493 13.8739C126.082 13.8739 125.716 13.7998 125.395 13.6516C125.074 13.5034 124.824 13.2997 124.645 13.0404C124.466 12.7811 124.377 12.5018 124.377 12.2023H125.469C125.485 12.4678 125.585 12.6731 125.77 12.8182C125.956 12.9602 126.201 13.0312 126.507 13.0312C126.803 13.0312 127.028 12.9756 127.183 12.8645C127.337 12.7502 127.414 12.6021 127.414 12.42ZM132.498 13.7812C132.449 13.6856 132.406 13.5297 132.368 13.3136C132.01 13.6871 131.572 13.8739 131.054 13.8739C130.55 13.8739 130.14 13.7303 129.822 13.4432C129.504 13.1562 129.345 12.8012 129.345 12.3783C129.345 11.8443 129.543 11.4353 129.938 11.1513C130.336 10.8642 130.904 10.7207 131.642 10.7207H132.331V10.3919C132.331 10.1326 132.259 9.9258 132.114 9.77146C131.969 9.61403 131.748 9.53532 131.452 9.53532C131.196 9.53532 130.986 9.60014 130.822 9.72979C130.658 9.85635 130.577 10.0184 130.577 10.216H129.451C129.451 9.94124 129.543 9.68503 129.725 9.44734C129.907 9.20657 130.154 9.01828 130.465 8.88245C130.78 8.74663 131.131 8.67872 131.517 8.67872C132.103 8.67872 132.571 8.82689 132.919 9.12323C133.268 9.41648 133.447 9.83011 133.457 10.3641V12.6237C133.457 13.0744 133.52 13.434 133.646 13.7025V13.7812H132.498ZM131.262 12.971C131.484 12.971 131.692 12.9169 131.887 12.8089C132.085 12.7009 132.233 12.5558 132.331 12.3737V11.4291H131.725C131.308 11.4291 130.995 11.5016 130.785 11.6467C130.575 11.7918 130.47 11.9971 130.47 12.2625C130.47 12.4786 130.541 12.6515 130.683 12.7811C130.828 12.9077 131.021 12.971 131.262 12.971ZM134.438 11.2392C134.438 10.4614 134.62 9.84091 134.985 9.37789C135.352 8.91178 135.838 8.67872 136.443 8.67872C137.014 8.67872 137.463 8.87782 137.791 9.27603L137.841 8.77133H138.855V13.6285C138.855 14.2859 138.65 14.8045 138.24 15.1842C137.832 15.5639 137.281 15.7537 136.587 15.7537C136.219 15.7537 135.86 15.6766 135.508 15.5222C135.159 15.371 134.894 15.1719 134.711 14.9249L135.244 14.2489C135.59 14.6595 136.016 14.8647 136.522 14.8647C136.895 14.8647 137.19 14.7629 137.406 14.5591C137.622 14.3585 137.73 14.0622 137.73 13.6701V13.3321C137.406 13.6933 136.974 13.8739 136.434 13.8739C135.847 13.8739 135.367 13.6408 134.994 13.1747C134.623 12.7086 134.438 12.0634 134.438 11.2392ZM135.559 11.3365C135.559 11.8396 135.661 12.2363 135.864 12.5265C136.071 12.8135 136.357 12.9571 136.721 12.9571C137.175 12.9571 137.511 12.7626 137.73 12.3737V10.1697C137.517 9.78998 137.184 9.60014 136.73 9.60014C136.36 9.60014 136.071 9.74677 135.864 10.04C135.661 10.3333 135.559 10.7654 135.559 11.3365ZM142.222 13.8739C141.509 13.8739 140.93 13.6501 140.485 13.2025C140.044 12.7518 139.823 12.1529 139.823 11.4059V11.267C139.823 10.767 139.919 10.3209 140.11 9.92889C140.305 9.53378 140.576 9.22664 140.925 9.00747C141.274 8.78831 141.663 8.67872 142.092 8.67872C142.774 8.67872 143.3 8.89635 143.671 9.33159C144.044 9.76683 144.231 10.3827 144.231 11.1791V11.6328H140.958C140.992 12.0465 141.129 12.3737 141.37 12.6144C141.614 12.8552 141.919 12.9756 142.286 12.9756C142.802 12.9756 143.222 12.7672 143.546 12.3505L144.152 12.9293C143.952 13.2287 143.683 13.4618 143.347 13.6285C143.013 13.7921 142.638 13.8739 142.222 13.8739ZM142.087 9.58162C141.779 9.58162 141.529 9.68966 141.337 9.90574C141.149 10.1218 141.029 10.4228 140.976 10.8086H143.12V10.7253C143.095 10.3487 142.995 10.0647 142.819 9.87333C142.643 9.67886 142.399 9.58162 142.087 9.58162Z" fill="black"/>
<rect x="85.2249" y="0.434909" width="80.0394" height="19.7557" rx="2.7658" stroke="#DBDBDB" stroke-width="0.790228"/>
<rect x="169.215" y="0.434909" width="80.0394" height="19.7557" rx="2.7658" fill="white"/>
<path d="M201.949 10.7716H199.181V12.8459H202.417V13.7812H198.009V7.03962H202.385V7.98419H199.181V9.84555H201.949V10.7716ZM204.32 8.77133L204.353 9.29455C204.704 8.884 205.186 8.67872 205.797 8.67872C206.467 8.67872 206.925 8.93493 207.172 9.44734C207.537 8.93493 208.049 8.67872 208.71 8.67872C209.262 8.67872 209.673 8.83152 209.941 9.13712C210.213 9.44271 210.352 9.89339 210.358 10.4891V13.7812H209.233V10.5216C209.233 10.2036 209.163 9.97056 209.024 9.82239C208.886 9.67423 208.656 9.60014 208.335 9.60014C208.078 9.60014 207.868 9.6696 207.705 9.8085C207.544 9.94432 207.432 10.1234 207.367 10.3456L207.371 13.7812H206.246V10.4845C206.231 9.89493 205.93 9.60014 205.343 9.60014C204.893 9.60014 204.573 9.78381 204.385 10.1511V13.7812H203.26V8.77133H204.32ZM214.507 13.7812C214.457 13.6856 214.414 13.5297 214.377 13.3136C214.019 13.6871 213.581 13.8739 213.062 13.8739C212.559 13.8739 212.148 13.7303 211.83 13.4432C211.512 13.1562 211.354 12.8012 211.354 12.3783C211.354 11.8443 211.551 11.4353 211.946 11.1513C212.344 10.8642 212.912 10.7207 213.65 10.7207H214.34V10.3919C214.34 10.1326 214.267 9.9258 214.122 9.77146C213.977 9.61403 213.757 9.53532 213.46 9.53532C213.204 9.53532 212.994 9.60014 212.831 9.72979C212.667 9.85635 212.585 10.0184 212.585 10.216H211.46C211.46 9.94124 211.551 9.68503 211.733 9.44734C211.915 9.20657 212.162 9.01828 212.474 8.88245C212.789 8.74663 213.139 8.67872 213.525 8.67872C214.112 8.67872 214.579 8.82689 214.928 9.12323C215.277 9.41648 215.456 9.83011 215.465 10.3641V12.6237C215.465 13.0744 215.528 13.434 215.655 13.7025V13.7812H214.507ZM213.27 12.971C213.493 12.971 213.701 12.9169 213.896 12.8089C214.093 12.7009 214.241 12.5558 214.34 12.3737V11.4291H213.733C213.317 11.4291 213.003 11.5016 212.794 11.6467C212.584 11.7918 212.479 11.9971 212.479 12.2625C212.479 12.4786 212.55 12.6515 212.692 12.7811C212.837 12.9077 213.03 12.971 213.27 12.971ZM217.84 13.7812H216.715V8.77133H217.84V13.7812ZM216.646 7.47023C216.646 7.29737 216.7 7.15383 216.808 7.03962C216.919 6.92541 217.076 6.8683 217.28 6.8683C217.484 6.8683 217.641 6.92541 217.752 7.03962C217.864 7.15383 217.919 7.29737 217.919 7.47023C217.919 7.64001 217.864 7.782 217.752 7.89621C217.641 8.00734 217.484 8.0629 217.28 8.0629C217.076 8.0629 216.919 8.00734 216.808 7.89621C216.7 7.782 216.646 7.64001 216.646 7.47023ZM220.267 13.7812H219.142V6.6692H220.267V13.7812Z" fill="black"/>
<rect x="169.215" y="0.434909" width="80.0394" height="19.7557" rx="2.7658" stroke="#DBDBDB" stroke-width="0.790228"/>
<rect x="253.206" y="0.434909" width="22.9166" height="19.7557" rx="2.7658" fill="white"/>
<path d="M266.764 9.52246L264.529 11.7576L262.294 9.52246" stroke="black" stroke-width="1.18534" stroke-linecap="round" stroke-linejoin="round"/>
<rect x="253.206" y="0.434909" width="22.9166" height="19.7557" rx="2.7658" stroke="#DBDBDB" stroke-width="0.790228"/>
</g>
<defs>
<clipPath id="clip0">
<rect width="275.679" height="20.5459" fill="white" transform="translate(0.839233 0.0397949)"/>
</clipPath>
</defs>
</svg>
