<svg width="297" height="35" viewBox="0 0 297 35" fill="none" xmlns="http://www.w3.org/2000/svg">
<path d="M0.332153 33.7913H296.668" stroke="#DBDBDB" stroke-width="0.790228"/>
<rect x="67.3037" y="10.6769" width="14.6192" height="14.6192" stroke="black" stroke-width="1.18534"/>
<rect x="67.3037" y="10.6769" width="4.45914" height="14.6192" stroke="black" stroke-width="1.18534"/>
<rect x="77.4639" y="10.6769" width="4.45914" height="14.6192" stroke="black" stroke-width="1.18534"/>
<rect x="67.3039" y="25.2962" width="4.45914" height="14.6192" transform="rotate(-90 67.3039 25.2962)" stroke="black" stroke-width="1.18534"/>
<rect x="67.3039" y="15.1361" width="4.45914" height="14.6192" transform="rotate(-90 67.3039 15.1361)" stroke="black" stroke-width="1.18534"/>
<path d="M214.287 12.6731C214.287 12.1276 214.729 11.6853 215.274 11.6853H219.961C220.328 11.6853 220.679 11.5396 220.939 11.2803L220.52 10.8612L220.939 11.2803L221.947 10.272C222.024 10.1949 222.149 10.1949 222.226 10.272L223.235 11.2803C223.494 11.5396 223.846 11.6853 224.212 11.6853H228.899C229.444 11.6853 229.887 12.1276 229.887 12.6731V25.0987C229.887 25.6443 229.444 26.0865 228.899 26.0865H215.274C214.729 26.0865 214.287 25.6443 214.287 25.0987V12.6731Z" stroke="#B4B4B4" stroke-width="1.18534"/>
<path d="M217.284 25.8344C217.284 23.9796 218.787 22.476 220.642 22.476H223.531C225.386 22.476 226.889 23.9796 226.889 25.8344V26.0865H217.284V25.8344Z" stroke="#B4B4B4" stroke-width="1.18534"/>
<path d="M224.491 17.0875C224.491 18.4156 223.415 19.4922 222.086 19.4922C220.758 19.4922 219.682 18.4156 219.682 17.0875C219.682 15.7594 220.758 14.6828 222.086 14.6828C223.415 14.6828 224.491 15.7594 224.491 17.0875Z" stroke="#B4B4B4" stroke-width="1.18534"/>
<path d="M0.332275 1.39185H296.668" stroke="#DBDBDB" stroke-width="0.790228"/>
<path d="M0.332153 33.001L148.895 33.001" stroke="black" stroke-width="0.790228"/>
</svg>
