<svg width="234" height="76" viewBox="0 0 234 76" fill="none" xmlns="http://www.w3.org/2000/svg">
<g clip-path="url(#clip0)">
<circle cx="29.7103" cy="35.4187" r="22.2873" stroke="#C8C8C8" stroke-width="0.779231"/>
<mask id="mask0" mask-type="alpha" maskUnits="userSpaceOnUse" x="9" y="15" width="41" height="41">
<circle cx="29.3975" cy="35.4173" r="20.3379" fill="#C4C4C4"/>
</mask>
<g mask="url(#mask0)">
<rect width="40.8317" height="40.8317" transform="translate(8.90356 14.9233)" fill="white"/>
</g>
<path d="M17.957 68.4512V63.9568H19.2257C19.6167 63.9568 19.9624 64.0432 20.2629 64.216C20.5633 64.3889 20.7948 64.6348 20.9574 64.9538C21.122 65.2728 21.2054 65.6391 21.2074 66.0527V66.3398C21.2074 66.7637 21.1251 67.1352 20.9605 67.4541C20.7979 67.7731 20.5644 68.018 20.2598 68.1888C19.9573 68.3596 19.6044 68.4471 19.201 68.4512H17.957ZM18.5497 64.4445V67.9665H19.1732C19.6301 67.9665 19.9851 67.8245 20.2382 67.5406C20.4934 67.2566 20.6209 66.8522 20.6209 66.3274V66.0651C20.6209 65.5547 20.5006 65.1586 20.2598 64.8766C20.0211 64.5926 19.6815 64.4486 19.2411 64.4445H18.5497ZM24.6462 66.3737H22.6984V67.9665H24.961V68.4512H22.1057V63.9568H24.9302V64.4445H22.6984V65.8891H24.6462V66.3737ZM27.023 66.4478C26.5147 66.3017 26.1443 66.1227 25.9118 65.9107C25.6813 65.6967 25.566 65.4333 25.566 65.1205C25.566 64.7665 25.707 64.4743 25.9889 64.2438C26.2729 64.0113 26.6413 63.895 27.094 63.895C27.4027 63.895 27.6774 63.9547 27.9182 64.0741C28.161 64.1934 28.3483 64.358 28.48 64.5679C28.6138 64.7778 28.6807 65.0073 28.6807 65.2563H28.0849C28.0849 64.9847 27.9985 64.7717 27.8256 64.6173C27.6527 64.4609 27.4089 64.3827 27.094 64.3827C26.8018 64.3827 26.5734 64.4476 26.4087 64.5772C26.2462 64.7048 26.1649 64.8828 26.1649 65.1112C26.1649 65.2944 26.2421 65.4497 26.3964 65.5773C26.5528 65.7029 26.8172 65.8181 27.1897 65.9231C27.5642 66.028 27.8565 66.1443 28.0664 66.2719C28.2783 66.3974 28.4347 66.5445 28.5356 66.7133C28.6385 66.882 28.6899 67.0806 28.6899 67.309C28.6899 67.6733 28.5479 67.9655 28.2639 68.1857C27.9799 68.4038 27.6003 68.5129 27.1249 68.5129C26.8162 68.5129 26.5281 68.4543 26.2606 68.337C25.9931 68.2176 25.7862 68.055 25.6401 67.8492C25.4961 67.6435 25.424 67.4099 25.424 67.1485H26.0198C26.0198 67.4202 26.1196 67.6352 26.3192 67.7937C26.5209 67.9501 26.7895 68.0283 27.1249 68.0283C27.4377 68.0283 27.6774 67.9645 27.8441 67.8369C28.0108 67.7093 28.0942 67.5354 28.0942 67.3152C28.0942 67.095 28.017 66.9253 27.8626 66.8059C27.7083 66.6845 27.4284 66.5651 27.023 66.4478ZM30.0882 68.4512H29.4956V63.9568H30.0882V68.4512ZM34.4931 67.8616C34.3409 68.0797 34.1279 68.2433 33.8542 68.3524C33.5825 68.4594 33.2656 68.5129 32.9034 68.5129C32.5371 68.5129 32.212 68.4275 31.928 68.2567C31.644 68.0838 31.4238 67.839 31.2674 67.522C31.1131 67.2051 31.0338 66.8378 31.0297 66.42V66.028C31.0297 65.351 31.1872 64.8262 31.502 64.4537C31.8189 64.0813 32.2634 63.895 32.8355 63.895C33.3047 63.895 33.6823 64.0154 33.9684 64.2562C34.2544 64.4949 34.4294 64.8344 34.4931 65.2748H33.9005C33.7894 64.6801 33.4354 64.3827 32.8386 64.3827C32.4414 64.3827 32.14 64.5227 31.9342 64.8025C31.7304 65.0804 31.6275 65.4837 31.6255 66.0126V66.3799C31.6255 66.8841 31.7407 67.2854 31.9712 67.5838C32.2017 67.8801 32.5135 68.0283 32.9065 68.0283C33.1288 68.0283 33.3232 68.0036 33.4899 67.9542C33.6566 67.9048 33.7945 67.8215 33.9036 67.7042V66.6948H32.8633V66.2132H34.4931V67.8616ZM38.9382 68.4512H38.3424L36.0798 64.9878V68.4512H35.484V63.9568H36.0798L38.3486 67.4356V63.9568H38.9382V68.4512Z" fill="black"/>
<circle cx="87.9965" cy="35.4187" r="22.327" stroke="#C8C8C8" stroke-width="0.858732"/>
<mask id="mask1" mask-type="alpha" maskUnits="userSpaceOnUse" x="67" y="15" width="42" height="41">
<circle cx="87.9953" cy="35.4173" r="20.3379" fill="#C4C4C4"/>
</mask>
<g mask="url(#mask1)">
<rect width="40.8317" height="40.8317" transform="translate(67.5015 15.0793)" fill="white"/>
</g>
<path d="M71.3685 68.4512V63.9568H72.8378C73.3256 63.9568 73.6919 64.0576 73.9368 64.2593C74.1837 64.4609 74.3072 64.7593 74.3072 65.1544C74.3072 65.3643 74.2475 65.5506 74.1281 65.7132C74.0088 65.8737 73.8462 65.9982 73.6404 66.0867C73.8832 66.1546 74.0746 66.2842 74.2146 66.4756C74.3566 66.6649 74.4276 66.8913 74.4276 67.1547C74.4276 67.558 74.2969 67.875 74.0355 68.1054C73.7742 68.3359 73.4048 68.4512 72.9274 68.4512H71.3685ZM71.9612 66.349V67.9665H72.9397C73.2155 67.9665 73.4326 67.8955 73.591 67.7535C73.7515 67.6095 73.8318 67.4119 73.8318 67.1609C73.8318 66.6197 73.5375 66.349 72.949 66.349H71.9612ZM71.9612 65.8737H72.8564C73.1157 65.8737 73.3225 65.8088 73.4768 65.6792C73.6332 65.5496 73.7114 65.3736 73.7114 65.1514C73.7114 64.9044 73.6394 64.7254 73.4953 64.6142C73.3513 64.5011 73.1321 64.4445 72.8378 64.4445H71.9612V65.8737ZM78.4713 63.9568V67.0127C78.4692 67.4366 78.3355 67.7834 78.07 68.053C77.8066 68.3226 77.4485 68.4738 76.9958 68.5067L76.8384 68.5129C76.3465 68.5129 75.9545 68.3802 75.6623 68.1147C75.3701 67.8492 75.2219 67.484 75.2178 67.0189V63.9568H75.8043V67.0004C75.8043 67.3255 75.8938 67.5786 76.0728 67.7597C76.2519 67.9388 76.507 68.0283 76.8384 68.0283C77.1738 68.0283 77.43 67.9388 77.607 67.7597C77.786 67.5807 77.8755 67.3286 77.8755 67.0034V63.9568H78.4713ZM80.0425 68.4512H79.4498V63.9568H80.0425V68.4512ZM81.7248 67.9665H83.8547V68.4512H81.1291V63.9568H81.7248V67.9665ZM84.5307 68.4512V63.9568H85.7994C86.1904 63.9568 86.5362 64.0432 86.8366 64.216C87.1371 64.3889 87.3686 64.6348 87.5311 64.9538C87.6958 65.2728 87.7791 65.6391 87.7812 66.0527V66.3398C87.7812 66.7637 87.6989 67.1352 87.5342 67.4541C87.3717 67.7731 87.1381 68.018 86.8335 68.1888C86.531 68.3596 86.1781 68.4471 85.7747 68.4512H84.5307ZM85.1234 64.4445V67.9665H85.747C86.2038 67.9665 86.5588 67.8245 86.8119 67.5406C87.0671 67.2566 87.1947 66.8522 87.1947 66.3274V66.0651C87.1947 65.5547 87.0743 65.1586 86.8335 64.8766C86.5948 64.5926 86.2553 64.4486 85.8149 64.4445H85.1234ZM89.3153 68.4512H88.7227V63.9568H89.3153V68.4512ZM93.856 68.4512H93.2603L90.9976 64.9878V68.4512H90.4019V63.9568H90.9976L93.2665 67.4356V63.9568H93.856V68.4512ZM98.227 67.8616C98.0747 68.0797 97.8617 68.2433 97.588 68.3524C97.3164 68.4594 96.9995 68.5129 96.6373 68.5129C96.271 68.5129 95.9458 68.4275 95.6618 68.2567C95.3779 68.0838 95.1577 67.839 95.0013 67.522C94.8469 67.2051 94.7677 66.8378 94.7636 66.42V66.028C94.7636 65.351 94.921 64.8262 95.2359 64.4537C95.5528 64.0813 95.9973 63.895 96.5694 63.895C97.0386 63.895 97.4162 64.0154 97.7022 64.2562C97.9883 64.4949 98.1632 64.8344 98.227 65.2748H97.6343C97.5232 64.6801 97.1692 64.3827 96.5725 64.3827C96.1753 64.3827 95.8738 64.5227 95.668 64.8025C95.4643 65.0804 95.3614 65.4837 95.3593 66.0126V66.3799C95.3593 66.8841 95.4746 67.2854 95.7051 67.5838C95.9355 67.8801 96.2473 68.0283 96.6404 68.0283C96.8626 68.0283 97.0571 68.0036 97.2238 67.9542C97.3905 67.9048 97.5283 67.8215 97.6374 67.7042V66.6948H96.5972V66.2132H98.227V67.8616ZM100.542 66.4478C100.034 66.3017 99.6634 66.1227 99.4309 65.9107C99.2004 65.6967 99.0851 65.4333 99.0851 65.1205C99.0851 64.7665 99.2261 64.4743 99.508 64.2438C99.792 64.0113 100.16 63.895 100.613 63.895C100.922 63.895 101.197 63.9547 101.437 64.0741C101.68 64.1934 101.867 64.358 101.999 64.5679C102.133 64.7778 102.2 65.0073 102.2 65.2563H101.604C101.604 64.9847 101.518 64.7717 101.345 64.6173C101.172 64.4609 100.928 64.3827 100.613 64.3827C100.321 64.3827 100.092 64.4476 99.9278 64.5772C99.7653 64.7048 99.684 64.8828 99.684 65.1112C99.684 65.2944 99.7611 65.4497 99.9155 65.5773C100.072 65.7029 100.336 65.8181 100.709 65.9231C101.083 66.028 101.376 66.1443 101.585 66.2719C101.797 66.3974 101.954 66.5445 102.055 66.7133C102.158 66.882 102.209 67.0806 102.209 67.309C102.209 67.6733 102.067 67.9655 101.783 68.1857C101.499 68.4038 101.119 68.5129 100.644 68.5129C100.335 68.5129 100.047 68.4543 99.7797 68.337C99.5121 68.2176 99.3053 68.055 99.1592 67.8492C99.0152 67.6435 98.9431 67.4099 98.9431 67.1485H99.5389C99.5389 67.4202 99.6387 67.6352 99.8383 67.7937C100.04 67.9501 100.309 68.0283 100.644 68.0283C100.957 68.0283 101.197 67.9645 101.363 67.8369C101.53 67.7093 101.613 67.5354 101.613 67.3152C101.613 67.095 101.536 66.9253 101.382 66.8059C101.227 66.6845 100.948 66.5651 100.542 66.4478Z" fill="black"/>
<circle cx="146.283" cy="35.4187" r="22.327" stroke="#C8C8C8" stroke-width="0.858732"/>
<mask id="mask2" mask-type="alpha" maskUnits="userSpaceOnUse" x="125" y="15" width="42" height="41">
<circle cx="146.282" cy="35.4173" r="20.3379" fill="#C4C4C4"/>
</mask>
<g mask="url(#mask2)">
<rect width="40.8317" height="40.8317" transform="translate(125.788 15.0793)" fill="white"/>
</g>
<path d="M143.052 67.2782H141.169L140.746 68.4512H140.135L141.852 63.9568H142.37L144.09 68.4512H143.481L143.052 67.2782ZM141.348 66.7905H142.876L142.111 64.6883L141.348 66.7905ZM146.343 66.633H145.287V68.4512H144.691V63.9568H146.179C146.686 63.9568 147.074 64.072 147.346 64.3025C147.62 64.533 147.757 64.8684 147.757 65.3088C147.757 65.5887 147.681 65.8325 147.528 66.0404C147.378 66.2482 147.168 66.4036 146.899 66.5065L147.954 68.4141V68.4512H147.318L146.343 66.633ZM145.287 66.1484H146.198C146.492 66.1484 146.726 66.0723 146.899 65.92C147.073 65.7677 147.161 65.564 147.161 65.3088C147.161 65.031 147.078 64.818 146.911 64.6698C146.746 64.5216 146.508 64.4465 146.195 64.4445H145.287V66.1484ZM151.449 64.4445H150.004V68.4512H149.414V64.4445H147.973V63.9568H151.449V64.4445Z" fill="black"/>
<circle cx="204.57" cy="35.4187" r="22.327" stroke="#C8C8C8" stroke-width="0.858732"/>
<mask id="mask3" mask-type="alpha" maskUnits="userSpaceOnUse" x="184" y="15" width="41" height="41">
<circle cx="204.568" cy="35.4173" r="20.3379" fill="#C4C4C4"/>
</mask>
<g mask="url(#mask3)">
<rect width="40.8317" height="40.8317" transform="translate(184.075 15.0793)" fill="white"/>
</g>
<path d="M192.074 68.4512V63.9568H193.342C193.733 63.9568 194.079 64.0432 194.38 64.216C194.68 64.3889 194.911 64.6348 195.074 64.9538C195.239 65.2728 195.322 65.6391 195.324 66.0527V66.3398C195.324 66.7637 195.242 67.1352 195.077 67.4541C194.915 67.7731 194.681 68.018 194.376 68.1888C194.074 68.3596 193.721 68.4471 193.318 68.4512H192.074ZM192.666 64.4445V67.9665H193.29C193.747 67.9665 194.102 67.8245 194.355 67.5406C194.61 67.2566 194.738 66.8522 194.738 66.3274V66.0651C194.738 65.5547 194.617 65.1586 194.376 64.8766C194.138 64.5926 193.798 64.4486 193.358 64.4445H192.666ZM198.763 66.3737H196.815V67.9665H199.078V68.4512H196.222V63.9568H199.047V64.4445H196.815V65.8891H198.763V66.3737ZM202.982 64.4445H201.538V68.4512H200.948V64.4445H199.507V63.9568H202.982V64.4445ZM205.884 67.2782H204.001L203.578 68.4512H202.967L204.683 63.9568H205.202L206.921 68.4512H206.313L205.884 67.2782ZM204.18 66.7905H205.708L204.943 64.6883L204.18 66.7905ZM208.162 68.4512H207.57V63.9568H208.162V68.4512ZM209.845 67.9665H211.974V68.4512H209.249V63.9568H209.845V67.9665ZM213.975 66.4478C213.466 66.3017 213.096 66.1227 212.863 65.9107C212.633 65.6967 212.518 65.4333 212.518 65.1205C212.518 64.7665 212.659 64.4743 212.941 64.2438C213.225 64.0113 213.593 63.895 214.046 63.895C214.354 63.895 214.629 63.9547 214.87 64.0741C215.113 64.1934 215.3 64.358 215.432 64.5679C215.565 64.7778 215.632 65.0073 215.632 65.2563H215.037C215.037 64.9847 214.95 64.7717 214.777 64.6173C214.604 64.4609 214.361 64.3827 214.046 64.3827C213.753 64.3827 213.525 64.4476 213.36 64.5772C213.198 64.7048 213.117 64.8828 213.117 65.1112C213.117 65.2944 213.194 65.4497 213.348 65.5773C213.504 65.7029 213.769 65.8181 214.141 65.9231C214.516 66.028 214.808 66.1443 215.018 66.2719C215.23 66.3974 215.386 66.5445 215.487 66.7133C215.59 66.882 215.642 67.0806 215.642 67.309C215.642 67.6733 215.5 67.9655 215.216 68.1857C214.932 68.4038 214.552 68.5129 214.077 68.5129C213.768 68.5129 213.48 68.4543 213.212 68.337C212.945 68.2176 212.738 68.055 212.592 67.8492C212.448 67.6435 212.376 67.4099 212.376 67.1485H212.971C212.971 67.4202 213.071 67.6352 213.271 67.7937C213.473 67.9501 213.741 68.0283 214.077 68.0283C214.389 68.0283 214.629 67.9645 214.796 67.8369C214.962 67.7093 215.046 67.5354 215.046 67.3152C215.046 67.095 214.969 66.9253 214.814 66.8059C214.66 66.6845 214.38 66.5651 213.975 66.4478Z" fill="black"/>
</g>
<defs>
<clipPath id="clip0">
<rect width="233.146" height="74.8061" fill="white" transform="translate(0.332153 0.585693)"/>
</clipPath>
</defs>
</svg>
