<svg width="277" height="32" viewBox="0 0 277 32" fill="none" xmlns="http://www.w3.org/2000/svg">
<path d="M11.4064 26.5889C14.0944 26.5889 15.691 24.4868 15.691 20.9272C15.691 17.4336 13.9918 15.5 11.465 15.5C9.16516 15.5 7.53918 17.0454 7.53918 19.2134C7.53918 21.2422 9.00402 22.7217 11.0182 22.7217C12.256 22.7217 13.2594 22.1504 13.7574 21.147H13.882C13.86 23.5933 12.9738 25.0068 11.4283 25.0068C10.5201 25.0068 9.79504 24.5161 9.56799 23.7251H7.68567C7.99328 25.4536 9.47277 26.5889 11.4064 26.5889ZM11.4723 21.2275C10.2418 21.2275 9.39221 20.3779 9.39221 19.1548C9.39221 17.9756 10.2858 17.0747 11.4796 17.0747C12.6735 17.0747 13.567 17.9902 13.567 19.1914C13.567 20.3706 12.6954 21.2275 11.4723 21.2275ZM18.7089 24.875C19.4047 24.875 19.8808 24.377 19.8808 23.7178C19.8808 23.0513 19.4047 22.5605 18.7089 22.5605C18.0204 22.5605 17.537 23.0513 17.537 23.7178C17.537 24.377 18.0204 24.875 18.7089 24.875ZM18.7089 19.5283C19.4047 19.5283 19.8808 19.0376 19.8808 18.3784C19.8808 17.7119 19.4047 17.2212 18.7089 17.2212C18.0204 17.2212 17.537 17.7119 17.537 18.3784C17.537 19.0376 18.0204 19.5283 18.7089 19.5283ZM26.883 26.3325H28.6921V24.3184H30.1203V22.7217H28.6921V15.7637H26.0261C24.5905 17.9463 23.0891 20.356 21.7195 22.7437V24.3184H26.883V26.3325ZM23.4699 22.6631C24.5027 20.8833 25.7258 18.9424 26.8098 17.3018H26.9123V22.7656H23.4699V22.6631ZM34.1489 26.3325H36.0386V15.7637H34.1563L31.395 17.6973V19.5137L34.0244 17.668H34.1489V26.3325Z" fill="black"/>
<path fill-rule="evenodd" clip-rule="evenodd" d="M225.371 8.12061H224.464C223.962 8.12061 223.556 8.52703 223.556 9.02839V16.8958C223.556 17.3972 223.962 17.8036 224.464 17.8036H225.371C225.873 17.8036 226.279 17.3972 226.279 16.8958V9.02839C226.279 8.52703 225.873 8.12061 225.371 8.12061ZM220.227 10.2388H221.135C221.636 10.2388 222.043 10.6452 222.043 11.1466V16.8958C222.043 17.3972 221.636 17.8036 221.135 17.8036H220.227C219.726 17.8036 219.32 17.3972 219.32 16.8958V11.1466C219.32 10.6452 219.726 10.2388 220.227 10.2388ZM216.899 12.3569H215.991C215.49 12.3569 215.083 12.7634 215.083 13.2647V16.8958C215.083 17.3972 215.49 17.8036 215.991 17.8036H216.899C217.4 17.8036 217.806 17.3972 217.806 16.8958V13.2647C217.806 12.7634 217.4 12.3569 216.899 12.3569ZM212.662 14.1725H211.754C211.253 14.1725 210.847 14.5789 210.847 15.0803V16.8958C210.847 17.3972 211.253 17.8036 211.754 17.8036H212.662C213.164 17.8036 213.57 17.3972 213.57 16.8958V15.0803C213.57 14.5789 213.164 14.1725 212.662 14.1725Z" fill="black"/>
<path fill-rule="evenodd" clip-rule="evenodd" d="M240.474 10.1879C242.485 10.188 244.42 10.9609 245.878 12.3469C245.988 12.4539 246.163 12.4526 246.271 12.3439L247.321 11.2848C247.375 11.2297 247.406 11.155 247.405 11.0773C247.405 10.9997 247.374 10.9254 247.318 10.8709C243.492 7.20385 237.455 7.20385 233.629 10.8709C233.573 10.9253 233.542 10.9996 233.541 11.0773C233.541 11.155 233.571 11.2297 233.626 11.2848L234.676 12.3439C234.784 12.4528 234.959 12.4541 235.069 12.3469C236.527 10.9608 238.462 10.1879 240.474 10.1879ZM240.474 13.6335C241.579 13.6335 242.645 14.0443 243.464 14.7861C243.575 14.8914 243.749 14.8891 243.857 14.781L244.906 13.7219C244.961 13.6664 244.991 13.591 244.991 13.5127C244.99 13.4344 244.958 13.3596 244.901 13.3052C242.407 10.9846 238.543 10.9846 236.048 13.3052C235.992 13.3596 235.96 13.4344 235.959 13.5127C235.958 13.5911 235.989 13.6664 236.044 13.7219L237.092 14.781C237.2 14.8891 237.375 14.8914 237.486 14.7861C238.304 14.0448 239.369 13.634 240.474 13.6335ZM242.574 15.9519C242.575 16.0304 242.544 16.1061 242.488 16.1611L240.675 17.9909C240.622 18.0447 240.55 18.075 240.474 18.075C240.398 18.075 240.326 18.0447 240.273 17.9909L238.459 16.1611C238.403 16.1061 238.373 16.0303 238.374 15.9518C238.376 15.8733 238.41 15.7989 238.468 15.7463C239.626 14.7669 241.322 14.7669 242.48 15.7463C242.538 15.7989 242.572 15.8733 242.574 15.9519Z" fill="black"/>
<path opacity="0.35" d="M255.121 11.9938C255.121 11.3084 255.122 10.8217 255.153 10.4408C255.184 10.0652 255.242 9.83269 255.336 9.64842C255.524 9.27833 255.825 8.97744 256.195 8.78887C256.38 8.69498 256.612 8.63666 256.988 8.60597C257.369 8.57485 257.855 8.5745 258.541 8.5745H270.766C271.451 8.5745 271.938 8.57485 272.319 8.60597C272.694 8.63666 272.927 8.69499 273.111 8.78887C273.481 8.97744 273.782 9.27833 273.971 9.64842L274.375 9.44236L273.971 9.64842C274.064 9.83269 274.123 10.0652 274.153 10.4408C274.185 10.8217 274.185 11.3084 274.185 11.9938V14.5356C274.185 15.221 274.185 15.7077 274.153 16.0886C274.123 16.4642 274.064 16.6967 273.971 16.881C273.782 17.2511 273.481 17.552 273.111 17.7405C272.927 17.8344 272.694 17.8928 272.319 17.9234C271.938 17.9546 271.451 17.9549 270.766 17.9549H258.541C257.855 17.9549 257.369 17.9546 256.988 17.9234C256.612 17.8928 256.38 17.8344 256.195 17.7405C255.825 17.552 255.524 17.2511 255.336 16.881C255.242 16.6967 255.184 16.4642 255.153 16.0886C255.122 15.7077 255.121 15.221 255.121 14.5356V11.9938Z" stroke="black" stroke-width="0.907782"/>
<path opacity="0.4" d="M275.547 11.4492V15.0803C276.277 14.7728 276.752 14.0574 276.752 13.2648C276.752 12.4722 276.277 11.7568 275.547 11.4492Z" fill="black"/>
<path d="M256.483 11.8729C256.483 11.195 256.483 10.8561 256.615 10.5972C256.731 10.3694 256.916 10.1842 257.144 10.0682C257.403 9.93628 257.742 9.93628 258.42 9.93628H270.887C271.565 9.93628 271.904 9.93628 272.162 10.0682C272.39 10.1842 272.575 10.3694 272.691 10.5972C272.823 10.8561 272.823 11.195 272.823 11.8729V14.6567C272.823 15.3346 272.823 15.6736 272.691 15.9325C272.575 16.1602 272.39 16.3454 272.162 16.4614C271.904 16.5934 271.565 16.5934 270.887 16.5934H258.42C257.742 16.5934 257.403 16.5934 257.144 16.4614C256.916 16.3454 256.731 16.1602 256.615 15.9325C256.483 15.6736 256.483 15.3346 256.483 14.6567V11.8729Z" fill="black"/>
</svg>
