<svg width="169" height="58" viewBox="0 0 169 58" fill="none" xmlns="http://www.w3.org/2000/svg">
<mask id="path-1-outside-1_3597_3070" maskUnits="userSpaceOnUse" x="-0.065918" y="0" width="169" height="58" fill="black">
<rect fill="white" x="-0.065918" width="169" height="58"/>
<path d="M18.6273 39.593C19.1618 40.242 19.658 40.8718 20.1161 41.4826C20.6123 42.0552 21.1086 42.666 21.6048 43.3149C20.536 44.1547 19.3335 44.8228 17.9975 45.319C16.6614 45.8153 15.2108 46.0634 13.6457 46.0634C11.8898 46.0634 10.2292 45.7389 8.66414 45.09C7.13722 44.4029 5.80116 43.4867 4.65596 42.3415C3.51077 41.1963 2.59461 39.8603 1.9075 38.3333C1.25855 36.8064 0.934082 35.184 0.934082 33.4663C0.934082 31.7485 1.25855 30.1261 1.9075 28.5992C2.59461 27.0723 3.51077 25.7553 4.65596 24.6483C5.80116 23.5031 7.13722 22.606 8.66414 21.9571C10.2292 21.2699 11.8898 20.9264 13.6457 20.9264C15.249 20.9264 16.7187 21.1745 18.0547 21.6708C19.429 22.167 20.6696 22.835 21.7766 23.6748L18.6273 27.3967C17.9784 26.8623 17.234 26.4615 16.3942 26.1943C15.5544 25.8889 14.6382 25.7362 13.6457 25.7362C12.5005 25.7362 11.4508 25.9461 10.4965 26.366C9.54212 26.7478 8.70232 27.2822 7.97703 27.9693C7.28991 28.6564 6.75549 29.4772 6.37375 30.4315C5.99202 31.3476 5.80116 32.3592 5.80116 33.4663C5.80116 34.5733 5.99202 35.6039 6.37375 36.5583C6.75549 37.4744 7.28991 38.2952 7.97703 39.0204C8.70232 39.7076 9.54212 40.2611 10.4965 40.681C11.4508 41.0627 12.5005 41.2536 13.6457 41.2536C14.6382 41.2536 15.5544 41.12 16.3942 40.8528C17.234 40.5474 17.9784 40.1275 18.6273 39.593Z"/>
<path d="M25.634 33.7526C25.634 31.9966 25.9585 30.3551 26.6075 28.8282C27.2946 27.2631 28.2107 25.908 29.3559 24.7628C30.5011 23.5794 31.8181 22.6442 33.3068 21.9571C34.8338 21.2699 36.4561 20.9264 38.1739 20.9264C39.3191 20.9264 40.3689 21.0791 41.3232 21.3845C42.2775 21.6517 43.0983 21.9952 43.7854 22.4151C44.4725 22.835 45.026 23.274 45.4459 23.7321C45.8658 24.1902 46.1521 24.591 46.3048 24.9346L46.5338 21.5562H51.2291V45.4908H46.3048V42.456C46.1139 42.7614 45.8085 43.1241 45.3886 43.544C44.9687 43.9639 44.4152 44.3647 43.7281 44.7464C43.0792 45.09 42.2966 45.3954 41.3805 45.6626C40.4643 45.9298 39.4145 46.0634 38.2312 46.0634C36.3989 46.0634 34.7002 45.7389 33.1351 45.09C31.6081 44.4029 30.2912 43.5058 29.1841 42.3988C28.0771 41.2536 27.1991 39.9366 26.5502 38.4478C25.9394 36.9591 25.634 35.394 25.634 33.7526ZM30.5584 33.4663C30.5584 34.5733 30.7492 35.6039 31.131 36.5583C31.5509 37.5126 32.1044 38.3333 32.7915 39.0204C33.4786 39.7076 34.2993 40.2611 35.2537 40.681C36.208 41.0627 37.2578 41.2536 38.403 41.2536C39.5482 41.2536 40.5979 41.0627 41.5522 40.681C42.5447 40.2611 43.3846 39.7076 44.0717 39.0204C44.797 38.2952 45.3505 37.4744 45.7322 36.5583C46.1139 35.6039 46.3048 34.5733 46.3048 33.4663C46.3048 32.3592 46.1139 31.3476 45.7322 30.4315C45.3505 29.4772 44.797 28.6564 44.0717 27.9693C43.3846 27.2822 42.5447 26.7478 41.5522 26.366C40.5979 25.9461 39.5482 25.7362 38.403 25.7362C37.2578 25.7362 36.208 25.9461 35.2537 26.366C34.2993 26.7478 33.4786 27.2822 32.7915 27.9693C32.1044 28.6564 31.5509 29.4772 31.131 30.4315C30.7492 31.3476 30.5584 32.3592 30.5584 33.4663Z"/>
<path d="M80.0929 33.4663C80.0929 32.3592 79.9212 31.3476 79.5776 30.4315C79.2341 29.4772 78.7378 28.6564 78.0889 27.9693C77.4399 27.2822 76.6574 26.7478 75.7412 26.366C74.8251 25.9461 73.7944 25.7362 72.6492 25.7362C71.504 25.7362 70.4351 25.9461 69.4426 26.366C68.4883 26.7478 67.6676 27.2822 66.9805 27.9693C66.2934 28.6564 65.7398 29.4772 65.3199 30.4315C64.9382 31.3476 64.7473 32.3592 64.7473 33.4663C64.7473 34.5733 64.9382 35.6039 65.3199 36.5583C65.7398 37.5126 66.2934 38.3333 66.9805 39.0204C67.6676 39.7076 68.4883 40.2611 69.4426 40.681C70.4351 41.0627 71.504 41.2536 72.6492 41.2536C73.7944 41.2536 74.8251 41.0627 75.7412 40.681C76.6574 40.2611 77.4399 39.7076 78.0889 39.0204C78.7378 38.2952 79.2341 37.4744 79.5776 36.5583C79.9212 35.6039 80.0929 34.5733 80.0929 33.4663ZM85.4181 33.5808C85.4181 35.3749 85.1127 37.0354 84.5019 38.5624C83.8912 40.0893 83.0323 41.4063 81.9253 42.5133C80.8182 43.6203 79.4822 44.4983 77.9171 45.1472C76.3902 45.758 74.7105 46.0634 72.8782 46.0634C71.9239 46.0634 71.0077 45.9489 70.1298 45.7198C69.2899 45.529 68.5074 45.2618 67.7821 44.9182C67.0568 44.5365 66.427 44.1356 65.8925 43.7157C65.3581 43.2577 64.9573 42.7996 64.6901 42.3415C64.6901 42.5324 64.6901 42.7423 64.6901 42.9714C64.7283 43.1622 64.7473 43.3531 64.7473 43.544V57H59.823V21.5562H64.5756C64.5756 22.0143 64.5947 22.5869 64.6328 23.274C64.7092 23.923 64.7473 24.5147 64.7473 25.0491C65.0527 24.591 65.4535 24.1329 65.9498 23.6748C66.4842 23.1786 67.095 22.7396 67.7821 22.3579C68.5074 21.938 69.309 21.5944 70.187 21.3272C71.065 21.06 72.0384 20.9264 73.1073 20.9264C74.9396 20.9264 76.6001 21.2318 78.0889 21.8425C79.6158 22.4151 80.9137 23.2549 81.9825 24.362C83.0895 25.4308 83.9293 26.7478 84.5019 28.3129C85.1127 29.878 85.4181 31.6339 85.4181 33.5808Z"/>
<path d="M105.805 23.6748L103.228 27.1104C103.19 27.0723 103.056 26.9768 102.827 26.8241C102.598 26.6714 102.293 26.5187 101.911 26.366C101.568 26.2134 101.148 26.0797 100.651 25.9652C100.193 25.8125 99.7162 25.7362 99.2199 25.7362C98.571 25.7362 97.922 25.8889 97.2731 26.1943C96.6623 26.4997 96.3569 27.0723 96.3569 27.9121C96.3569 28.6374 96.6051 29.229 97.1013 29.6871C97.6357 30.1452 98.2847 30.5651 99.0481 30.9468C99.8116 31.2904 100.632 31.653 101.51 32.0348C102.426 32.4165 103.266 32.8937 104.03 33.4663C104.793 34.0007 105.423 34.6878 105.919 35.5276C106.454 36.3292 106.721 37.3599 106.721 38.6196C106.721 40.7573 105.977 42.5324 104.488 43.9448C103.037 45.319 101.033 46.0061 98.4755 46.0061C96.9868 46.0061 95.5171 45.758 94.0666 45.2618C92.6541 44.7273 91.5089 43.9639 90.631 42.9714C90.8982 42.7042 91.1845 42.3606 91.4899 41.9407C91.8334 41.5208 92.1579 41.12 92.4633 40.7382C92.8068 40.3565 93.0741 40.0511 93.2649 39.8221C93.494 39.5549 93.6276 39.4213 93.6657 39.4213C93.6657 39.4594 93.7993 39.574 94.0666 39.7648C94.3719 39.9557 94.7537 40.1656 95.2117 40.3947C95.6698 40.5855 96.1852 40.7764 96.7578 40.9673C97.3304 41.12 97.9029 41.1963 98.4755 41.1963C99.3917 41.1963 100.174 40.9673 100.823 40.5092C101.472 40.0511 101.797 39.4403 101.797 38.6769C101.797 37.9898 101.529 37.4553 100.995 37.0736C100.499 36.6537 99.8689 36.272 99.1054 35.9284C98.3419 35.5849 97.5021 35.2413 96.586 34.8977C95.6698 34.516 94.83 34.0388 94.0666 33.4663C93.3031 32.8937 92.6541 32.1875 92.1197 31.3476C91.6235 30.4697 91.3753 29.3436 91.3753 27.9693C91.3753 26.6714 91.6044 25.5835 92.0625 24.7055C92.5587 23.8275 93.1695 23.1213 93.8948 22.5869C94.6582 22.0143 95.498 21.6135 96.4142 21.3845C97.3304 21.1172 98.2083 20.9836 99.0481 20.9836C100.155 20.9836 101.339 21.2127 102.598 21.6708C103.858 22.1288 104.927 22.7969 105.805 23.6748Z"/>
<path d="M113.64 1H118.507V27.3395C119.347 25.4308 120.531 23.9039 122.058 22.7587C123.585 21.5753 125.55 20.9645 127.955 20.9264C130.398 20.8882 132.345 21.5371 133.796 22.8732C135.285 24.2093 136.067 25.9461 136.143 28.0838V45.4908H131.219V30.317C131.143 29.0954 130.723 28.0648 129.959 27.2249C129.196 26.347 127.994 25.8698 126.352 25.7935C125.207 25.7935 124.157 26.0034 123.203 26.4233C122.248 26.805 121.428 27.3395 120.741 28.0266C120.054 28.7137 119.5 29.5344 119.08 30.4887C118.698 31.4431 118.507 32.4928 118.507 33.638V45.4908H113.64V1Z"/>
<path d="M142.831 33.4663C142.831 31.7485 143.155 30.1261 143.804 28.5992C144.491 27.0723 145.407 25.7553 146.553 24.6483C147.698 23.5031 149.034 22.606 150.561 21.9571C152.126 21.2699 153.806 20.9264 155.6 20.9264C157.394 20.9264 159.054 21.2699 160.581 21.9571C162.146 22.606 163.482 23.5031 164.589 24.6483C165.735 25.7553 166.613 27.0723 167.223 28.5992C167.872 30.1261 168.197 31.7485 168.197 33.4663C168.197 35.184 167.872 36.8064 167.223 38.3333C166.613 39.8603 165.735 41.1963 164.589 42.3415C163.482 43.4867 162.146 44.4029 160.581 45.09C159.054 45.7389 157.375 46.0634 155.542 46.0634C153.786 46.0634 152.126 45.758 150.561 45.1472C149.034 44.5365 147.698 43.6776 146.553 42.5705C145.407 41.4635 144.491 40.1465 143.804 38.6196C143.155 37.0545 142.831 35.3367 142.831 33.4663ZM147.698 33.5235C147.698 34.5924 147.889 35.6039 148.27 36.5583C148.69 37.4744 149.244 38.2952 149.931 39.0204C150.656 39.7076 151.477 40.2611 152.393 40.681C153.348 41.0627 154.359 41.2536 155.428 41.2536C156.497 41.2536 157.508 41.0627 158.463 40.681C159.417 40.2611 160.238 39.7076 160.925 39.0204C161.65 38.2952 162.223 37.4744 162.643 36.5583C163.063 35.6039 163.273 34.5924 163.273 33.5235C163.273 32.4547 163.063 31.4431 162.643 30.4887C162.223 29.5344 161.65 28.7137 160.925 28.0266C160.238 27.3013 159.417 26.7478 158.463 26.366C157.508 25.9461 156.497 25.7362 155.428 25.7362C154.359 25.7362 153.348 25.9461 152.393 26.366C151.477 26.7478 150.656 27.3013 149.931 28.0266C149.244 28.7137 148.69 29.5344 148.27 30.4887C147.889 31.4431 147.698 32.4547 147.698 33.5235Z"/>
</mask>
<path d="M18.6273 39.593C19.1618 40.242 19.658 40.8718 20.1161 41.4826C20.6123 42.0552 21.1086 42.666 21.6048 43.3149C20.536 44.1547 19.3335 44.8228 17.9975 45.319C16.6614 45.8153 15.2108 46.0634 13.6457 46.0634C11.8898 46.0634 10.2292 45.7389 8.66414 45.09C7.13722 44.4029 5.80116 43.4867 4.65596 42.3415C3.51077 41.1963 2.59461 39.8603 1.9075 38.3333C1.25855 36.8064 0.934082 35.184 0.934082 33.4663C0.934082 31.7485 1.25855 30.1261 1.9075 28.5992C2.59461 27.0723 3.51077 25.7553 4.65596 24.6483C5.80116 23.5031 7.13722 22.606 8.66414 21.9571C10.2292 21.2699 11.8898 20.9264 13.6457 20.9264C15.249 20.9264 16.7187 21.1745 18.0547 21.6708C19.429 22.167 20.6696 22.835 21.7766 23.6748L18.6273 27.3967C17.9784 26.8623 17.234 26.4615 16.3942 26.1943C15.5544 25.8889 14.6382 25.7362 13.6457 25.7362C12.5005 25.7362 11.4508 25.9461 10.4965 26.366C9.54212 26.7478 8.70232 27.2822 7.97703 27.9693C7.28991 28.6564 6.75549 29.4772 6.37375 30.4315C5.99202 31.3476 5.80116 32.3592 5.80116 33.4663C5.80116 34.5733 5.99202 35.6039 6.37375 36.5583C6.75549 37.4744 7.28991 38.2952 7.97703 39.0204C8.70232 39.7076 9.54212 40.2611 10.4965 40.681C11.4508 41.0627 12.5005 41.2536 13.6457 41.2536C14.6382 41.2536 15.5544 41.12 16.3942 40.8528C17.234 40.5474 17.9784 40.1275 18.6273 39.593Z" fill="white"/>
<path d="M25.634 33.7526C25.634 31.9966 25.9585 30.3551 26.6075 28.8282C27.2946 27.2631 28.2107 25.908 29.3559 24.7628C30.5011 23.5794 31.8181 22.6442 33.3068 21.9571C34.8338 21.2699 36.4561 20.9264 38.1739 20.9264C39.3191 20.9264 40.3689 21.0791 41.3232 21.3845C42.2775 21.6517 43.0983 21.9952 43.7854 22.4151C44.4725 22.835 45.026 23.274 45.4459 23.7321C45.8658 24.1902 46.1521 24.591 46.3048 24.9346L46.5338 21.5562H51.2291V45.4908H46.3048V42.456C46.1139 42.7614 45.8085 43.1241 45.3886 43.544C44.9687 43.9639 44.4152 44.3647 43.7281 44.7464C43.0792 45.09 42.2966 45.3954 41.3805 45.6626C40.4643 45.9298 39.4145 46.0634 38.2312 46.0634C36.3989 46.0634 34.7002 45.7389 33.1351 45.09C31.6081 44.4029 30.2912 43.5058 29.1841 42.3988C28.0771 41.2536 27.1991 39.9366 26.5502 38.4478C25.9394 36.9591 25.634 35.394 25.634 33.7526ZM30.5584 33.4663C30.5584 34.5733 30.7492 35.6039 31.131 36.5583C31.5509 37.5126 32.1044 38.3333 32.7915 39.0204C33.4786 39.7076 34.2993 40.2611 35.2537 40.681C36.208 41.0627 37.2578 41.2536 38.403 41.2536C39.5482 41.2536 40.5979 41.0627 41.5522 40.681C42.5447 40.2611 43.3846 39.7076 44.0717 39.0204C44.797 38.2952 45.3505 37.4744 45.7322 36.5583C46.1139 35.6039 46.3048 34.5733 46.3048 33.4663C46.3048 32.3592 46.1139 31.3476 45.7322 30.4315C45.3505 29.4772 44.797 28.6564 44.0717 27.9693C43.3846 27.2822 42.5447 26.7478 41.5522 26.366C40.5979 25.9461 39.5482 25.7362 38.403 25.7362C37.2578 25.7362 36.208 25.9461 35.2537 26.366C34.2993 26.7478 33.4786 27.2822 32.7915 27.9693C32.1044 28.6564 31.5509 29.4772 31.131 30.4315C30.7492 31.3476 30.5584 32.3592 30.5584 33.4663Z" fill="white"/>
<path d="M80.0929 33.4663C80.0929 32.3592 79.9212 31.3476 79.5776 30.4315C79.2341 29.4772 78.7378 28.6564 78.0889 27.9693C77.4399 27.2822 76.6574 26.7478 75.7412 26.366C74.8251 25.9461 73.7944 25.7362 72.6492 25.7362C71.504 25.7362 70.4351 25.9461 69.4426 26.366C68.4883 26.7478 67.6676 27.2822 66.9805 27.9693C66.2934 28.6564 65.7398 29.4772 65.3199 30.4315C64.9382 31.3476 64.7473 32.3592 64.7473 33.4663C64.7473 34.5733 64.9382 35.6039 65.3199 36.5583C65.7398 37.5126 66.2934 38.3333 66.9805 39.0204C67.6676 39.7076 68.4883 40.2611 69.4426 40.681C70.4351 41.0627 71.504 41.2536 72.6492 41.2536C73.7944 41.2536 74.8251 41.0627 75.7412 40.681C76.6574 40.2611 77.4399 39.7076 78.0889 39.0204C78.7378 38.2952 79.2341 37.4744 79.5776 36.5583C79.9212 35.6039 80.0929 34.5733 80.0929 33.4663ZM85.4181 33.5808C85.4181 35.3749 85.1127 37.0354 84.5019 38.5624C83.8912 40.0893 83.0323 41.4063 81.9253 42.5133C80.8182 43.6203 79.4822 44.4983 77.9171 45.1472C76.3902 45.758 74.7105 46.0634 72.8782 46.0634C71.9239 46.0634 71.0077 45.9489 70.1298 45.7198C69.2899 45.529 68.5074 45.2618 67.7821 44.9182C67.0568 44.5365 66.427 44.1356 65.8925 43.7157C65.3581 43.2577 64.9573 42.7996 64.6901 42.3415C64.6901 42.5324 64.6901 42.7423 64.6901 42.9714C64.7283 43.1622 64.7473 43.3531 64.7473 43.544V57H59.823V21.5562H64.5756C64.5756 22.0143 64.5947 22.5869 64.6328 23.274C64.7092 23.923 64.7473 24.5147 64.7473 25.0491C65.0527 24.591 65.4535 24.1329 65.9498 23.6748C66.4842 23.1786 67.095 22.7396 67.7821 22.3579C68.5074 21.938 69.309 21.5944 70.187 21.3272C71.065 21.06 72.0384 20.9264 73.1073 20.9264C74.9396 20.9264 76.6001 21.2318 78.0889 21.8425C79.6158 22.4151 80.9137 23.2549 81.9825 24.362C83.0895 25.4308 83.9293 26.7478 84.5019 28.3129C85.1127 29.878 85.4181 31.6339 85.4181 33.5808Z" fill="white"/>
<path d="M105.805 23.6748L103.228 27.1104C103.19 27.0723 103.056 26.9768 102.827 26.8241C102.598 26.6714 102.293 26.5187 101.911 26.366C101.568 26.2134 101.148 26.0797 100.651 25.9652C100.193 25.8125 99.7162 25.7362 99.2199 25.7362C98.571 25.7362 97.922 25.8889 97.2731 26.1943C96.6623 26.4997 96.3569 27.0723 96.3569 27.9121C96.3569 28.6374 96.6051 29.229 97.1013 29.6871C97.6357 30.1452 98.2847 30.5651 99.0481 30.9468C99.8116 31.2904 100.632 31.653 101.51 32.0348C102.426 32.4165 103.266 32.8937 104.03 33.4663C104.793 34.0007 105.423 34.6878 105.919 35.5276C106.454 36.3292 106.721 37.3599 106.721 38.6196C106.721 40.7573 105.977 42.5324 104.488 43.9448C103.037 45.319 101.033 46.0061 98.4755 46.0061C96.9868 46.0061 95.5171 45.758 94.0666 45.2618C92.6541 44.7273 91.5089 43.9639 90.631 42.9714C90.8982 42.7042 91.1845 42.3606 91.4899 41.9407C91.8334 41.5208 92.1579 41.12 92.4633 40.7382C92.8068 40.3565 93.0741 40.0511 93.2649 39.8221C93.494 39.5549 93.6276 39.4213 93.6657 39.4213C93.6657 39.4594 93.7993 39.574 94.0666 39.7648C94.3719 39.9557 94.7537 40.1656 95.2117 40.3947C95.6698 40.5855 96.1852 40.7764 96.7578 40.9673C97.3304 41.12 97.9029 41.1963 98.4755 41.1963C99.3917 41.1963 100.174 40.9673 100.823 40.5092C101.472 40.0511 101.797 39.4403 101.797 38.6769C101.797 37.9898 101.529 37.4553 100.995 37.0736C100.499 36.6537 99.8689 36.272 99.1054 35.9284C98.3419 35.5849 97.5021 35.2413 96.586 34.8977C95.6698 34.516 94.83 34.0388 94.0666 33.4663C93.3031 32.8937 92.6541 32.1875 92.1197 31.3476C91.6235 30.4697 91.3753 29.3436 91.3753 27.9693C91.3753 26.6714 91.6044 25.5835 92.0625 24.7055C92.5587 23.8275 93.1695 23.1213 93.8948 22.5869C94.6582 22.0143 95.498 21.6135 96.4142 21.3845C97.3304 21.1172 98.2083 20.9836 99.0481 20.9836C100.155 20.9836 101.339 21.2127 102.598 21.6708C103.858 22.1288 104.927 22.7969 105.805 23.6748Z" fill="white"/>
<path d="M113.64 1H118.507V27.3395C119.347 25.4308 120.531 23.9039 122.058 22.7587C123.585 21.5753 125.55 20.9645 127.955 20.9264C130.398 20.8882 132.345 21.5371 133.796 22.8732C135.285 24.2093 136.067 25.9461 136.143 28.0838V45.4908H131.219V30.317C131.143 29.0954 130.723 28.0648 129.959 27.2249C129.196 26.347 127.994 25.8698 126.352 25.7935C125.207 25.7935 124.157 26.0034 123.203 26.4233C122.248 26.805 121.428 27.3395 120.741 28.0266C120.054 28.7137 119.5 29.5344 119.08 30.4887C118.698 31.4431 118.507 32.4928 118.507 33.638V45.4908H113.64V1Z" fill="white"/>
<path d="M142.831 33.4663C142.831 31.7485 143.155 30.1261 143.804 28.5992C144.491 27.0723 145.407 25.7553 146.553 24.6483C147.698 23.5031 149.034 22.606 150.561 21.9571C152.126 21.2699 153.806 20.9264 155.6 20.9264C157.394 20.9264 159.054 21.2699 160.581 21.9571C162.146 22.606 163.482 23.5031 164.589 24.6483C165.735 25.7553 166.613 27.0723 167.223 28.5992C167.872 30.1261 168.197 31.7485 168.197 33.4663C168.197 35.184 167.872 36.8064 167.223 38.3333C166.613 39.8603 165.735 41.1963 164.589 42.3415C163.482 43.4867 162.146 44.4029 160.581 45.09C159.054 45.7389 157.375 46.0634 155.542 46.0634C153.786 46.0634 152.126 45.758 150.561 45.1472C149.034 44.5365 147.698 43.6776 146.553 42.5705C145.407 41.4635 144.491 40.1465 143.804 38.6196C143.155 37.0545 142.831 35.3367 142.831 33.4663ZM147.698 33.5235C147.698 34.5924 147.889 35.6039 148.27 36.5583C148.69 37.4744 149.244 38.2952 149.931 39.0204C150.656 39.7076 151.477 40.2611 152.393 40.681C153.348 41.0627 154.359 41.2536 155.428 41.2536C156.497 41.2536 157.508 41.0627 158.463 40.681C159.417 40.2611 160.238 39.7076 160.925 39.0204C161.65 38.2952 162.223 37.4744 162.643 36.5583C163.063 35.6039 163.273 34.5924 163.273 33.5235C163.273 32.4547 163.063 31.4431 162.643 30.4887C162.223 29.5344 161.65 28.7137 160.925 28.0266C160.238 27.3013 159.417 26.7478 158.463 26.366C157.508 25.9461 156.497 25.7362 155.428 25.7362C154.359 25.7362 153.348 25.9461 152.393 26.366C151.477 26.7478 150.656 27.3013 149.931 28.0266C149.244 28.7137 148.69 29.5344 148.27 30.4887C147.889 31.4431 147.698 32.4547 147.698 33.5235Z" fill="white"/>
<path d="M18.6273 39.593C19.1618 40.242 19.658 40.8718 20.1161 41.4826C20.6123 42.0552 21.1086 42.666 21.6048 43.3149C20.536 44.1547 19.3335 44.8228 17.9975 45.319C16.6614 45.8153 15.2108 46.0634 13.6457 46.0634C11.8898 46.0634 10.2292 45.7389 8.66414 45.09C7.13722 44.4029 5.80116 43.4867 4.65596 42.3415C3.51077 41.1963 2.59461 39.8603 1.9075 38.3333C1.25855 36.8064 0.934082 35.184 0.934082 33.4663C0.934082 31.7485 1.25855 30.1261 1.9075 28.5992C2.59461 27.0723 3.51077 25.7553 4.65596 24.6483C5.80116 23.5031 7.13722 22.606 8.66414 21.9571C10.2292 21.2699 11.8898 20.9264 13.6457 20.9264C15.249 20.9264 16.7187 21.1745 18.0547 21.6708C19.429 22.167 20.6696 22.835 21.7766 23.6748L18.6273 27.3967C17.9784 26.8623 17.234 26.4615 16.3942 26.1943C15.5544 25.8889 14.6382 25.7362 13.6457 25.7362C12.5005 25.7362 11.4508 25.9461 10.4965 26.366C9.54212 26.7478 8.70232 27.2822 7.97703 27.9693C7.28991 28.6564 6.75549 29.4772 6.37375 30.4315C5.99202 31.3476 5.80116 32.3592 5.80116 33.4663C5.80116 34.5733 5.99202 35.6039 6.37375 36.5583C6.75549 37.4744 7.28991 38.2952 7.97703 39.0204C8.70232 39.7076 9.54212 40.2611 10.4965 40.681C11.4508 41.0627 12.5005 41.2536 13.6457 41.2536C14.6382 41.2536 15.5544 41.12 16.3942 40.8528C17.234 40.5474 17.9784 40.1275 18.6273 39.593Z" stroke="white" mask="url(#path-1-outside-1_3597_3070)"/>
<path d="M25.634 33.7526C25.634 31.9966 25.9585 30.3551 26.6075 28.8282C27.2946 27.2631 28.2107 25.908 29.3559 24.7628C30.5011 23.5794 31.8181 22.6442 33.3068 21.9571C34.8338 21.2699 36.4561 20.9264 38.1739 20.9264C39.3191 20.9264 40.3689 21.0791 41.3232 21.3845C42.2775 21.6517 43.0983 21.9952 43.7854 22.4151C44.4725 22.835 45.026 23.274 45.4459 23.7321C45.8658 24.1902 46.1521 24.591 46.3048 24.9346L46.5338 21.5562H51.2291V45.4908H46.3048V42.456C46.1139 42.7614 45.8085 43.1241 45.3886 43.544C44.9687 43.9639 44.4152 44.3647 43.7281 44.7464C43.0792 45.09 42.2966 45.3954 41.3805 45.6626C40.4643 45.9298 39.4145 46.0634 38.2312 46.0634C36.3989 46.0634 34.7002 45.7389 33.1351 45.09C31.6081 44.4029 30.2912 43.5058 29.1841 42.3988C28.0771 41.2536 27.1991 39.9366 26.5502 38.4478C25.9394 36.9591 25.634 35.394 25.634 33.7526ZM30.5584 33.4663C30.5584 34.5733 30.7492 35.6039 31.131 36.5583C31.5509 37.5126 32.1044 38.3333 32.7915 39.0204C33.4786 39.7076 34.2993 40.2611 35.2537 40.681C36.208 41.0627 37.2578 41.2536 38.403 41.2536C39.5482 41.2536 40.5979 41.0627 41.5522 40.681C42.5447 40.2611 43.3846 39.7076 44.0717 39.0204C44.797 38.2952 45.3505 37.4744 45.7322 36.5583C46.1139 35.6039 46.3048 34.5733 46.3048 33.4663C46.3048 32.3592 46.1139 31.3476 45.7322 30.4315C45.3505 29.4772 44.797 28.6564 44.0717 27.9693C43.3846 27.2822 42.5447 26.7478 41.5522 26.366C40.5979 25.9461 39.5482 25.7362 38.403 25.7362C37.2578 25.7362 36.208 25.9461 35.2537 26.366C34.2993 26.7478 33.4786 27.2822 32.7915 27.9693C32.1044 28.6564 31.5509 29.4772 31.131 30.4315C30.7492 31.3476 30.5584 32.3592 30.5584 33.4663Z" stroke="white" mask="url(#path-1-outside-1_3597_3070)"/>
<path d="M80.0929 33.4663C80.0929 32.3592 79.9212 31.3476 79.5776 30.4315C79.2341 29.4772 78.7378 28.6564 78.0889 27.9693C77.4399 27.2822 76.6574 26.7478 75.7412 26.366C74.8251 25.9461 73.7944 25.7362 72.6492 25.7362C71.504 25.7362 70.4351 25.9461 69.4426 26.366C68.4883 26.7478 67.6676 27.2822 66.9805 27.9693C66.2934 28.6564 65.7398 29.4772 65.3199 30.4315C64.9382 31.3476 64.7473 32.3592 64.7473 33.4663C64.7473 34.5733 64.9382 35.6039 65.3199 36.5583C65.7398 37.5126 66.2934 38.3333 66.9805 39.0204C67.6676 39.7076 68.4883 40.2611 69.4426 40.681C70.4351 41.0627 71.504 41.2536 72.6492 41.2536C73.7944 41.2536 74.8251 41.0627 75.7412 40.681C76.6574 40.2611 77.4399 39.7076 78.0889 39.0204C78.7378 38.2952 79.2341 37.4744 79.5776 36.5583C79.9212 35.6039 80.0929 34.5733 80.0929 33.4663ZM85.4181 33.5808C85.4181 35.3749 85.1127 37.0354 84.5019 38.5624C83.8912 40.0893 83.0323 41.4063 81.9253 42.5133C80.8182 43.6203 79.4822 44.4983 77.9171 45.1472C76.3902 45.758 74.7105 46.0634 72.8782 46.0634C71.9239 46.0634 71.0077 45.9489 70.1298 45.7198C69.2899 45.529 68.5074 45.2618 67.7821 44.9182C67.0568 44.5365 66.427 44.1356 65.8925 43.7157C65.3581 43.2577 64.9573 42.7996 64.6901 42.3415C64.6901 42.5324 64.6901 42.7423 64.6901 42.9714C64.7283 43.1622 64.7473 43.3531 64.7473 43.544V57H59.823V21.5562H64.5756C64.5756 22.0143 64.5947 22.5869 64.6328 23.274C64.7092 23.923 64.7473 24.5147 64.7473 25.0491C65.0527 24.591 65.4535 24.1329 65.9498 23.6748C66.4842 23.1786 67.095 22.7396 67.7821 22.3579C68.5074 21.938 69.309 21.5944 70.187 21.3272C71.065 21.06 72.0384 20.9264 73.1073 20.9264C74.9396 20.9264 76.6001 21.2318 78.0889 21.8425C79.6158 22.4151 80.9137 23.2549 81.9825 24.362C83.0895 25.4308 83.9293 26.7478 84.5019 28.3129C85.1127 29.878 85.4181 31.6339 85.4181 33.5808Z" stroke="white" mask="url(#path-1-outside-1_3597_3070)"/>
<path d="M105.805 23.6748L103.228 27.1104C103.19 27.0723 103.056 26.9768 102.827 26.8241C102.598 26.6714 102.293 26.5187 101.911 26.366C101.568 26.2134 101.148 26.0797 100.651 25.9652C100.193 25.8125 99.7162 25.7362 99.2199 25.7362C98.571 25.7362 97.922 25.8889 97.2731 26.1943C96.6623 26.4997 96.3569 27.0723 96.3569 27.9121C96.3569 28.6374 96.6051 29.229 97.1013 29.6871C97.6357 30.1452 98.2847 30.5651 99.0481 30.9468C99.8116 31.2904 100.632 31.653 101.51 32.0348C102.426 32.4165 103.266 32.8937 104.03 33.4663C104.793 34.0007 105.423 34.6878 105.919 35.5276C106.454 36.3292 106.721 37.3599 106.721 38.6196C106.721 40.7573 105.977 42.5324 104.488 43.9448C103.037 45.319 101.033 46.0061 98.4755 46.0061C96.9868 46.0061 95.5171 45.758 94.0666 45.2618C92.6541 44.7273 91.5089 43.9639 90.631 42.9714C90.8982 42.7042 91.1845 42.3606 91.4899 41.9407C91.8334 41.5208 92.1579 41.12 92.4633 40.7382C92.8068 40.3565 93.0741 40.0511 93.2649 39.8221C93.494 39.5549 93.6276 39.4213 93.6657 39.4213C93.6657 39.4594 93.7993 39.574 94.0666 39.7648C94.3719 39.9557 94.7537 40.1656 95.2117 40.3947C95.6698 40.5855 96.1852 40.7764 96.7578 40.9673C97.3304 41.12 97.9029 41.1963 98.4755 41.1963C99.3917 41.1963 100.174 40.9673 100.823 40.5092C101.472 40.0511 101.797 39.4403 101.797 38.6769C101.797 37.9898 101.529 37.4553 100.995 37.0736C100.499 36.6537 99.8689 36.272 99.1054 35.9284C98.3419 35.5849 97.5021 35.2413 96.586 34.8977C95.6698 34.516 94.83 34.0388 94.0666 33.4663C93.3031 32.8937 92.6541 32.1875 92.1197 31.3476C91.6235 30.4697 91.3753 29.3436 91.3753 27.9693C91.3753 26.6714 91.6044 25.5835 92.0625 24.7055C92.5587 23.8275 93.1695 23.1213 93.8948 22.5869C94.6582 22.0143 95.498 21.6135 96.4142 21.3845C97.3304 21.1172 98.2083 20.9836 99.0481 20.9836C100.155 20.9836 101.339 21.2127 102.598 21.6708C103.858 22.1288 104.927 22.7969 105.805 23.6748Z" stroke="white" mask="url(#path-1-outside-1_3597_3070)"/>
<path d="M113.64 1H118.507V27.3395C119.347 25.4308 120.531 23.9039 122.058 22.7587C123.585 21.5753 125.55 20.9645 127.955 20.9264C130.398 20.8882 132.345 21.5371 133.796 22.8732C135.285 24.2093 136.067 25.9461 136.143 28.0838V45.4908H131.219V30.317C131.143 29.0954 130.723 28.0648 129.959 27.2249C129.196 26.347 127.994 25.8698 126.352 25.7935C125.207 25.7935 124.157 26.0034 123.203 26.4233C122.248 26.805 121.428 27.3395 120.741 28.0266C120.054 28.7137 119.5 29.5344 119.08 30.4887C118.698 31.4431 118.507 32.4928 118.507 33.638V45.4908H113.64V1Z" stroke="white" mask="url(#path-1-outside-1_3597_3070)"/>
<path d="M142.831 33.4663C142.831 31.7485 143.155 30.1261 143.804 28.5992C144.491 27.0723 145.407 25.7553 146.553 24.6483C147.698 23.5031 149.034 22.606 150.561 21.9571C152.126 21.2699 153.806 20.9264 155.6 20.9264C157.394 20.9264 159.054 21.2699 160.581 21.9571C162.146 22.606 163.482 23.5031 164.589 24.6483C165.735 25.7553 166.613 27.0723 167.223 28.5992C167.872 30.1261 168.197 31.7485 168.197 33.4663C168.197 35.184 167.872 36.8064 167.223 38.3333C166.613 39.8603 165.735 41.1963 164.589 42.3415C163.482 43.4867 162.146 44.4029 160.581 45.09C159.054 45.7389 157.375 46.0634 155.542 46.0634C153.786 46.0634 152.126 45.758 150.561 45.1472C149.034 44.5365 147.698 43.6776 146.553 42.5705C145.407 41.4635 144.491 40.1465 143.804 38.6196C143.155 37.0545 142.831 35.3367 142.831 33.4663ZM147.698 33.5235C147.698 34.5924 147.889 35.6039 148.27 36.5583C148.69 37.4744 149.244 38.2952 149.931 39.0204C150.656 39.7076 151.477 40.2611 152.393 40.681C153.348 41.0627 154.359 41.2536 155.428 41.2536C156.497 41.2536 157.508 41.0627 158.463 40.681C159.417 40.2611 160.238 39.7076 160.925 39.0204C161.65 38.2952 162.223 37.4744 162.643 36.5583C163.063 35.6039 163.273 34.5924 163.273 33.5235C163.273 32.4547 163.063 31.4431 162.643 30.4887C162.223 29.5344 161.65 28.7137 160.925 28.0266C160.238 27.3013 159.417 26.7478 158.463 26.366C157.508 25.9461 156.497 25.7362 155.428 25.7362C154.359 25.7362 153.348 25.9461 152.393 26.366C151.477 26.7478 150.656 27.3013 149.931 28.0266C149.244 28.7137 148.69 29.5344 148.27 30.4887C147.889 31.4431 147.698 32.4547 147.698 33.5235Z" stroke="white" mask="url(#path-1-outside-1_3597_3070)"/>
</svg>
