<?xml version="1.0" encoding="UTF-8" standalone="no"?>
<!DOCTYPE svg PUBLIC "-//W3C//DTD SVG 1.1//EN" "http://www.w3.org/Graphics/SVG/1.1/DTD/svg11.dtd">
<svg version="1.1" xmlns="http://www.w3.org/2000/svg" xmlns:xlink="http://www.w3.org/1999/xlink" preserveAspectRatio="xMidYMid meet" viewBox="-1 -1 415.45000000000005 28.25" width="420" height="24.75"><defs><path d="M14.73 24.23L14.46 24.2L14.46 24.2L14.3 24.19L12.82 24.03L11.39 23.77L10 23.4L8.68 22.95L7.43 22.4L6.25 21.78L5.15 21.08L4.14 20.3L3.23 19.46L2.41 18.56L1.7 17.6L1.11 16.59L0.63 15.53L0.29 14.43L0.07 13.29L0 12.13L0.07 10.96L0.29 9.82L0.63 8.72L1.11 7.66L1.7 6.65L2.41 5.69L3.23 4.79L4.14 3.95L5.15 3.17L6.25 2.47L7.43 1.85L8.68 1.3L10 0.85L11.39 0.48L12.82 0.22L14.3 0.06L14.46 0.05L14.46 0.05L14.73 0.02L15 0.01L15.28 0L394.33 0L394.61 0.01L394.88 0.02L394.92 0.03L395.62 0L397.15 0.06L398.63 0.22L400.06 0.48L401.45 0.85L402.77 1.3L404.02 1.85L405.2 2.47L406.3 3.17L407.31 3.95L408.22 4.79L409.04 5.69L409.75 6.65L410.34 7.66L410.82 8.72L411.16 9.82L411.38 10.96L411.45 12.13L411.38 13.29L411.16 14.43L410.82 15.53L410.34 16.59L409.75 17.6L409.04 18.56L408.22 19.46L407.31 20.3L406.3 21.08L405.2 21.78L404.02 22.4L402.77 22.95L401.45 23.4L400.06 23.77L398.63 24.03L397.15 24.19L395.62 24.25L394.92 24.22L394.88 24.23L394.61 24.24L394.33 24.25L15.28 24.25L15 24.24L14.73 24.23Z" id="bCmOOMrSo"></path></defs><g><g><use xlink:href="#bCmOOMrSo" opacity="1" fill="#ffb137" fill-opacity="1"></use></g></g></svg>