<svg width="252" height="16" viewBox="0 0 252 16" fill="none" xmlns="http://www.w3.org/2000/svg">
<path opacity="0.4" fill-rule="evenodd" clip-rule="evenodd" d="M0 8C0 7.44772 0.447715 7 1 7H117C117.552 7 118 7.44772 118 8C118 8.55228 117.552 9 117 9H1C0.447715 9 0 8.55228 0 8Z" fill="#FCD08B"/>
<path fill-rule="evenodd" clip-rule="evenodd" d="M123.529 3.52827C123.268 3.78862 123.268 4.21073 123.529 4.47108L127.057 7.99967L123.529 11.5283C123.268 11.7886 123.268 12.2107 123.529 12.4711C123.789 12.7314 124.211 12.7314 124.472 12.4711L128.472 8.47108C128.732 8.21073 128.732 7.78862 128.472 7.52827L124.472 3.52827C124.211 3.26792 123.789 3.26792 123.529 3.52827Z" fill="#FCD08B"/>
<path opacity="0.4" fill-rule="evenodd" clip-rule="evenodd" d="M134 8C134 7.44772 134.448 7 135 7H251C251.552 7 252 7.44772 252 8C252 8.55228 251.552 9 251 9H135C134.448 9 134 8.55228 134 8Z" fill="#FCD08B"/>
</svg>
