<svg width="55" height="49" viewBox="0 0 55 49" fill="none" xmlns="http://www.w3.org/2000/svg">
<path d="M20.7298 19.7242C22.8167 19.7242 24.5084 18.0325 24.5084 15.9456C24.5084 13.8587 22.8167 12.167 20.7298 12.167C18.6429 12.167 16.9512 13.8587 16.9512 15.9456C16.9512 18.0325 18.6429 19.7242 20.7298 19.7242Z" fill="#6267DA"/>
<path d="M51.7462 29.8531C49.9618 28.1737 47.7051 27.0716 45.2385 26.7567V7.54873C45.2385 5.50198 44.3988 3.66515 43.0868 2.30064C41.7223 0.93614 39.8855 0.148926 37.8387 0.148926H7.39981C5.35305 0.148926 3.51622 0.988621 2.15172 2.30064C0.787214 3.66515 0 5.50198 0 7.54873V31.7424V33.9991V38.8798C0 40.9266 0.839695 42.7634 2.15172 44.1279C3.51622 45.4924 5.35305 46.2796 7.39981 46.2796H36.8416C38.7834 47.8541 41.1975 48.8512 43.874 48.8512C46.9704 48.8512 49.7519 47.5917 51.7462 45.5974C53.7405 43.6031 55 40.8216 55 37.7253C55 34.6289 53.7405 31.8474 51.7462 29.8531ZM2.78149 7.54873C2.78149 6.28919 3.3063 5.13461 4.14599 4.29492C4.98569 3.45522 6.14027 2.93041 7.39981 2.93041H37.8387C39.0983 2.93041 40.2529 3.45522 41.0926 4.29492C41.9323 5.13461 42.4571 6.28919 42.4571 7.54873V23.9228L34.6899 16.2081C34.1651 15.6833 33.2729 15.6308 32.6956 16.2081L20.9924 27.9638L13.0677 19.9867C12.5429 19.4619 11.6508 19.4094 11.0735 19.9867L2.78149 28.3837V7.54873ZM7.34733 43.5506V43.4982C6.08779 43.4982 4.93321 42.9734 4.09351 42.1337C3.3063 41.294 2.78149 40.1394 2.78149 38.8798V33.9991V32.3197L12.1231 22.9781L20.0477 30.9027C20.5725 31.4275 21.4647 31.4275 22.042 30.9027L33.7452 19.147L41.4074 26.8617C41.25 26.9142 41.0926 26.9667 40.9351 27.0192C40.7252 27.0716 40.5153 27.1241 40.2529 27.2291C40.0429 27.2816 39.833 27.3865 39.6231 27.439C39.4656 27.4915 39.3607 27.544 39.2032 27.6489C38.9933 27.7539 38.8359 27.8064 38.6784 27.9113C38.416 28.0688 38.1536 28.2262 37.8912 28.3837C37.7338 28.4886 37.6288 28.5411 37.4714 28.6461C37.3664 28.6985 37.3139 28.751 37.209 28.8035C36.7366 29.1184 36.3168 29.4858 35.9494 29.9056C33.9552 31.8999 32.6956 34.6814 32.6956 37.7777C32.6956 38.565 32.8006 39.2997 32.958 40.0869C33.0105 40.2968 33.063 40.4543 33.1155 40.6642C33.2729 41.189 33.4303 41.7138 33.6403 42.2386V42.2911C33.8502 42.7109 34.0601 43.1833 34.3225 43.5506H7.34733ZM49.6994 43.6031C48.1775 45.1251 46.1307 46.0172 43.8216 46.0172C41.6174 46.0172 39.5706 45.1251 38.1011 43.7081C37.8912 43.4982 37.6813 43.2358 37.4714 43.0258C37.3139 42.8684 37.1565 42.6585 36.999 42.501C36.7891 42.2386 36.6317 41.9237 36.4742 41.6088C36.3693 41.3989 36.2643 41.2415 36.1593 41.0316C36.0544 40.7692 35.9494 40.4543 35.8969 40.1394C35.8445 39.9295 35.7395 39.6671 35.687 39.4571C35.5821 38.9323 35.5296 38.355 35.5296 37.7777C35.5296 35.4686 36.4742 33.4218 37.9437 31.8999C39.4656 30.3779 41.5124 29.4858 43.8216 29.4858C46.1307 29.4858 48.1775 30.4304 49.6994 31.8999C51.2214 33.3693 52.1135 35.4686 52.1135 37.7777C52.1135 40.0344 51.1689 42.0812 49.6994 43.6031Z" fill="#6267DA"/>
<path d="M48.3875 36.3083H45.1862V33.1069C45.1862 32.3197 44.5564 31.6899 43.7692 31.6899C42.982 31.6899 42.3522 32.3197 42.3522 33.1069V36.3083H39.1509C38.3637 36.3083 37.7339 36.938 37.7339 37.7252C37.7339 38.5125 38.3637 39.1422 39.1509 39.1422H42.3522V42.3436C42.3522 43.1308 42.982 43.7605 43.7692 43.7605C44.5564 43.7605 45.1862 43.1308 45.1862 42.3436V39.1422H48.3875C49.1747 39.1422 49.8045 38.5125 49.8045 37.7252C49.8045 36.938 49.1747 36.3083 48.3875 36.3083Z" fill="#6267DA"/>
</svg>
