<svg width="112" height="112" viewBox="0 0 112 112" fill="none" xmlns="http://www.w3.org/2000/svg">
<path d="M82.7664 60.1861V33.3142C82.7664 31.7035 82.1139 30.2437 81.0622 29.1794C81.054 29.171 81.0518 29.1596 81.0433 29.1514C81.0371 29.1452 81.0284 29.1435 81.022 29.1375C79.957 28.0806 78.4928 27.4253 76.8776 27.4253H24.3782C22.7617 27.4253 21.2965 28.0813 20.2313 29.1395C20.2258 29.1446 20.2185 29.1461 20.2132 29.1514C20.2061 29.1583 20.2042 29.1678 20.1973 29.1748C19.1432 30.2395 18.4893 31.7013 18.4893 33.3142V67.9412C18.4893 69.552 19.1419 71.0117 20.1936 72.0759C20.2017 72.0844 20.2041 72.0958 20.2125 72.104C20.2189 72.1102 20.2276 72.1119 20.2341 72.1181C21.2992 73.1747 22.7631 73.83 24.3782 73.83H69.1225C69.8659 79.8753 75.023 84.5748 81.2661 84.5748C88.0179 84.5748 93.5105 79.0815 93.5105 72.3297C93.5105 66.0866 88.8117 60.9295 82.7664 60.1861ZM79.7656 33.3142V60.1861C77.545 60.4592 75.5115 61.3294 73.8208 62.6303L62.0028 50.6276L79.6865 32.6675C79.7346 32.8763 79.7656 33.0911 79.7656 33.3142ZM24.3782 30.4262H76.8776C77.1236 30.4262 77.3585 30.4666 77.5867 30.5247L52.6861 55.8132C52.1389 56.3685 51.4077 56.6748 50.6282 56.6748C49.8487 56.6748 49.1176 56.3685 48.5702 55.8147L42.4137 49.5619C42.4125 49.5607 42.4122 49.5591 42.4111 49.558C42.41 49.5571 42.4088 49.5568 42.4077 49.5558L23.6694 30.5246C23.8974 30.4665 24.1323 30.4262 24.3782 30.4262ZM21.4901 67.9412V33.3142C21.4901 33.0909 21.5212 32.8758 21.5694 32.667L39.2531 50.6282L21.5692 68.588C21.5211 68.3793 21.4901 68.1643 21.4901 67.9412ZM69.1225 70.8292H24.3782C24.1322 70.8292 23.8973 70.7887 23.6691 70.7306L41.3577 52.7659L46.4325 57.9203C47.5476 59.0514 49.0377 59.6757 50.6275 59.6757C52.2173 59.6757 53.7082 59.0529 54.824 57.9188L59.8982 52.7653L71.6807 64.732C70.315 66.4514 69.4037 68.5427 69.1225 70.8292ZM81.2661 81.5739C76.1684 81.5739 72.0217 77.4272 72.0217 72.3297C72.0217 67.232 76.1684 63.0853 81.2661 63.0853C86.3629 63.0853 90.5096 67.232 90.5096 72.3297C90.5096 77.4272 86.3629 81.5739 81.2661 81.5739Z" fill="#6267DA"/>
<path d="M84.6464 68.1828L79.5371 73.2921L77.8849 71.6408C77.2989 71.0547 76.3493 71.0547 75.7633 71.6408C75.1772 72.2268 75.1772 73.1763 75.7633 73.7624L78.4762 76.4747C78.7693 76.7677 79.1531 76.9142 79.5371 76.9142C79.9209 76.9142 80.3049 76.7677 80.5979 76.4747L86.7681 70.3044C87.3542 69.7184 87.3542 68.7689 86.7681 68.1828C86.182 67.5966 85.2325 67.5966 84.6464 68.1828V68.1828Z" fill="#6267DA"/>
</svg>
