<svg width="49" height="48" viewBox="0 0 49 48" fill="none" xmlns="http://www.w3.org/2000/svg">
<g clip-path="url(#clip0_30_116)">
<path opacity="0.988" fill-rule="evenodd" clip-rule="evenodd" d="M22.3467 0.796824C24.8864 0.615342 27.0238 1.42785 28.7588 3.23432C31.1125 0.806437 33.8879 0.197062 37.085 1.4062C40.3124 3.37419 41.3173 6.13981 40.0996 9.70307C39.8928 10.1711 39.6376 10.6086 39.334 11.0156C35.8582 14.5299 32.333 17.9986 28.7588 21.4218C25.0222 17.8709 21.3696 14.2459 17.8008 10.5468C16.3527 7.94507 16.5123 5.44507 18.2793 3.04682C19.3684 1.81848 20.7242 1.06848 22.3467 0.796824Z" fill="white"/>
<path opacity="0.986" fill-rule="evenodd" clip-rule="evenodd" d="M48.9521 27.047C48.9521 27.3908 48.9521 27.7344 48.9521 28.0782C44.8314 32.7563 40.6524 37.397 36.415 42.0001C35.4184 42.8318 34.27 43.3631 32.9697 43.5938C26.6233 43.7155 20.275 43.7781 13.9248 43.7813C12.791 44.9077 11.6426 46.0171 10.4795 47.1095C6.96837 43.7013 3.45927 40.295 -0.0478516 36.8907C-0.0478516 36.8282 -0.0478516 36.7658 -0.0478516 36.7032C3.18945 33.5476 6.44336 30.407 9.71387 27.2813C12.7882 24.8353 16.2335 24.1791 20.0498 25.3126C20.9671 25.7618 21.9242 26.1056 22.9209 26.3438C25.2472 26.46 27.576 26.5225 29.9072 26.5313C32.8065 27.1484 33.7794 28.8203 32.8262 31.547C32.0866 32.5734 31.0817 33.1828 29.8115 33.3751C27.6742 33.4063 25.5368 33.4376 23.3994 33.4688C22.5754 33.9287 22.5435 34.4288 23.3037 34.9688C26.43 35.0314 29.5563 35.0314 32.6826 34.9688C35.5258 32.5898 38.3969 30.246 41.2959 27.9376C42.1229 27.2511 43.0161 26.6573 43.9756 26.1563C45.4316 25.4415 46.8672 25.4727 48.2822 26.2501C48.5873 26.4617 48.8107 26.7273 48.9521 27.047Z" fill="white"/>
</g>
<defs>
<clipPath id="clip0_30_116">
<rect width="49" height="48" fill="#02B7E4"/>
</clipPath>
</defs>
</svg>
