<svg width="42" height="44" viewBox="0 0 42 44" fill="none" xmlns="http://www.w3.org/2000/svg">
<g clip-path="url(#clip0_30_148)">
<path opacity="0.989" fill-rule="evenodd" clip-rule="evenodd" d="M34.4942 -0.0429688C36.9825 -0.0429688 39.4708 -0.0429688 41.9591 -0.0429688C41.9591 0.816406 41.9591 1.67578 41.9591 2.53516C40.2911 2.53516 38.6231 2.53516 36.9552 2.53516C36.9689 4.99886 36.9552 7.46241 36.9142 9.92578C36.5673 11.3491 35.7333 12.3087 34.4122 12.8047C32.1637 13.31 30.5914 12.465 29.6954 10.2695C29.2126 7.91501 30.0193 6.26787 32.1153 5.32812C32.9028 5.20859 33.6958 5.16563 34.4942 5.19922C34.4942 3.45183 34.4942 1.70442 34.4942 -0.0429688Z" fill="white"/>
<path opacity="0.988" fill-rule="evenodd" clip-rule="evenodd" d="M41.959 30.8087C41.959 31.267 41.959 31.7254 41.959 32.1837C41.5294 33.4704 40.6544 34.1292 39.334 34.1602C33.9894 33.785 30.2023 31.0636 27.9727 25.9962C27.6434 25.1046 27.3973 24.1879 27.2344 23.2462C27.1934 27.1133 27.1797 30.9804 27.1934 34.8477C25.116 35.1341 23.0379 35.4206 20.959 35.7071C18.882 35.4065 16.8039 35.12 14.7246 34.8477C14.7383 30.9231 14.7246 26.9986 14.6836 23.0743C13.7001 28.3439 10.788 31.8531 5.94727 33.6016C4.5494 34.0499 3.12752 34.193 1.68164 34.0313C0.81118 33.7068 0.236961 33.0909 -0.0410156 32.1837C-0.0410156 31.7254 -0.0410156 31.267 -0.0410156 30.8087C0.253069 29.8277 0.881975 29.2118 1.8457 28.961C4.97569 28.9623 7.34092 27.573 8.94141 24.793C9.63834 23.3354 9.96647 21.7885 9.92578 20.1524C10.459 17.6459 11.9218 16.1133 14.3145 15.5548C16.2012 15.5261 18.0879 15.4974 19.9746 15.4688C17.3777 14.8968 15.6961 13.2784 14.9297 10.6133C14.3798 6.96642 15.7059 4.40262 18.9082 2.92194C21.9689 2.04171 24.4161 2.94405 26.25 5.62897C27.2395 7.56743 27.3763 9.57264 26.6602 11.6446C25.7244 13.7754 24.1521 15.0501 21.9434 15.4688C23.8301 15.4974 25.7168 15.5261 27.6035 15.5548C29.9961 16.1133 31.459 17.6459 31.9922 20.1524C31.9343 23.8867 33.4792 26.5938 36.627 28.2735C37.7337 28.7231 38.8822 28.9522 40.0723 28.961C41.036 29.2118 41.6649 29.8277 41.959 30.8087Z" fill="white"/>
<path opacity="0.989" fill-rule="evenodd" clip-rule="evenodd" d="M-0.0410156 17.6602C-0.0410156 17.0872 -0.0410156 16.5144 -0.0410156 15.9414C0.829336 13.5502 2.49731 12.5476 4.96289 12.9336C4.96289 11.2148 4.96289 9.49609 4.96289 7.77734C7.42383 7.77734 9.88477 7.77734 12.3457 7.77734C12.3457 8.63672 12.3457 9.49609 12.3457 10.3555C10.7051 10.3555 9.06445 10.3555 7.42383 10.3555C7.43749 12.7905 7.42383 15.2255 7.38281 17.6602C6.60509 20.0949 5.00548 21.0545 2.58398 20.5391C1.27307 20.0109 0.398068 19.0512 -0.0410156 17.6602Z" fill="white"/>
<path opacity="0.989" fill-rule="evenodd" clip-rule="evenodd" d="M25.3068 43.957C18.6622 43.957 12.0177 43.957 5.37317 43.957C2.79359 42.9341 1.95961 41.0435 2.87121 38.2852C3.62569 36.9228 4.76045 36.2353 6.27551 36.2227C12.7137 37.0335 19.1395 37.9358 25.5529 38.9297C26.8065 39.5655 27.3124 40.6111 27.0704 42.0664C26.7956 43.0274 26.2077 43.6576 25.3068 43.957Z" fill="white"/>
<path opacity="0.982" fill-rule="evenodd" clip-rule="evenodd" d="M36.5449 43.957C33.9746 43.957 31.4043 43.957 28.834 43.957C30.0295 41.4105 29.6194 39.1905 27.6035 37.2969C30.2776 36.8864 32.9572 36.5283 35.6426 36.2227C37.6029 36.3148 38.847 37.346 39.375 39.3164C39.6079 41.667 38.6645 43.2138 36.5449 43.957Z" fill="white"/>
</g>
<defs>
<clipPath id="clip0_30_148">
<rect width="42" height="44" fill="#02B7E4"/>
</clipPath>
</defs>
</svg>
