<svg width="41" height="41" viewBox="0 0 41 41" fill="none" xmlns="http://www.w3.org/2000/svg">
<g clip-path="url(#clip0_30_107)">
<path opacity="0.993" fill-rule="evenodd" clip-rule="evenodd" d="M9.96973 -0.0400391C10.5569 -0.0400391 11.1442 -0.0400391 11.7314 -0.0400391C14.5836 0.773005 15.8781 2.66819 15.6152 5.64551C15.1568 7.78561 13.8622 9.10688 11.7314 9.60938C15.4416 9.64941 19.1519 9.66279 22.8623 9.64941C22.8623 11.251 22.8623 12.8525 22.8623 14.4541C20.0596 14.4541 17.2568 14.4541 14.4541 14.4541C14.4541 16.8564 14.4541 19.2588 14.4541 21.6611C15.4688 21.6478 16.4831 21.6611 17.4971 21.7012C18.3913 21.9548 18.9651 22.5286 19.2188 23.4229C19.2855 26.0392 19.2722 28.655 19.1787 31.2705C17.6242 32.3748 16.0626 33.4691 14.4941 34.5537C14.4541 31.8579 14.4407 29.1619 14.4541 26.4658C13.6533 26.4658 12.8525 26.4658 12.0518 26.4658C12.0784 29.7494 12.0518 33.0326 11.9717 36.3154C10.0924 37.3501 9.39837 38.8983 9.88965 40.96C9.24902 40.96 8.6084 40.96 7.96777 40.96C7.64916 40.8146 7.42227 40.5744 7.28711 40.2393C7.28614 32.7091 7.23276 25.1818 7.12695 17.6572C6.77141 16.9529 6.22421 16.7527 5.48535 17.0566C5.22683 17.1818 5.05332 17.382 4.96484 17.6572C4.84729 20.5902 4.80725 23.5264 4.84473 26.4658C2.98525 26.4239 1.55719 25.6231 0.560547 24.0635C0.310428 23.5652 0.110233 23.058 -0.0400391 22.542C-0.0400391 19.5524 -0.0400391 16.5628 -0.0400391 13.5732C0.487681 11.4574 1.82231 10.1629 3.96387 9.68945C5.96582 9.66279 7.96777 9.63604 9.96973 9.60938C7.83899 9.10688 6.5444 7.78561 6.08594 5.64551C5.82301 2.66819 7.11761 0.773005 9.96973 -0.0400391Z" fill="white"/>
<path opacity="0.994" fill-rule="evenodd" clip-rule="evenodd" d="M25.9854 -0.0400391C30.3096 -0.0400391 34.6338 -0.0400391 38.958 -0.0400391C39.2767 0.105288 39.5035 0.345522 39.6387 0.680664C39.6921 3.43001 39.6921 6.17936 39.6387 8.92871C39.5186 9.2624 39.2917 9.48926 38.958 9.60938C35.1944 9.64941 31.4308 9.66279 27.667 9.64941C27.6536 16.3761 27.667 23.1026 27.707 29.8291C31.8902 32.7816 36.0943 35.7044 40.3193 38.5977C40.5977 38.7704 40.8113 38.9972 40.96 39.2783C40.96 39.5986 40.96 39.9189 40.96 40.2393C40.8556 40.3583 40.7622 40.4918 40.6797 40.6396C40.5183 40.7355 40.3715 40.8422 40.2393 40.96C31.0837 40.96 21.928 40.96 12.7725 40.96C12.1096 40.5931 11.8827 40.0326 12.0918 39.2783C12.1853 39.1315 12.2786 38.9847 12.3721 38.8379C16.6632 35.8448 20.9474 32.8419 25.2246 29.8291C25.2513 20.113 25.278 10.3968 25.3047 0.680664C25.4399 0.345522 25.6667 0.105288 25.9854 -0.0400391Z" fill="white"/>
</g>
<defs>
<clipPath id="clip0_30_107">
<rect width="41" height="41" fill="#02B7E4"/>
</clipPath>
</defs>
</svg>
