<svg width="51" height="53" viewBox="0 0 51 53" fill="none" xmlns="http://www.w3.org/2000/svg">
<g clip-path="url(#clip0_30_138)">
<path opacity="0.992" fill-rule="evenodd" clip-rule="evenodd" d="M50.9502 15.0616C50.9502 16.0277 50.9502 16.9939 50.9502 17.96C50.0052 22.6169 47.2826 25.429 42.7822 26.3966C37.0049 26.431 31.2275 26.4656 25.4502 26.5001C22.2959 28.6912 19.1416 30.8822 15.9873 33.0733C15.8877 30.866 15.8545 28.6577 15.8877 26.4483C11.5705 26.2913 8.56566 24.1519 6.87305 20.0303C5.42559 14.915 6.80352 10.8606 11.0068 7.86725C12.0938 7.22617 13.2559 6.81211 14.4932 6.62507C24.1251 6.52302 33.7539 6.55752 43.3799 6.72858C47.5677 7.88846 50.0911 10.6661 50.9502 15.0616ZM14.3936 11.6456C23.8896 11.6456 33.3858 11.6456 42.8818 11.6456C42.8818 12.6807 42.8818 13.7159 42.8818 14.751C33.3858 14.751 23.8896 14.751 14.3936 14.751C14.3936 13.7159 14.3936 12.6807 14.3936 11.6456ZM14.3936 18.2706C23.8896 18.2706 33.3858 18.2706 42.8818 18.2706C42.8818 19.3057 42.8818 20.3409 42.8818 21.376C33.3858 21.376 23.8896 21.376 14.3936 21.376C14.3936 20.3409 14.3936 19.3057 14.3936 18.2706Z" fill="white"/>
<path opacity="0.987" fill-rule="evenodd" clip-rule="evenodd" d="M-0.0498047 31.21C-0.0498047 30.2438 -0.0498047 29.2776 -0.0498047 28.3115C0.447207 25.3621 1.89154 23.0502 4.2832 21.376C5.9919 25.3252 8.84737 27.9131 12.8496 29.1396C12.8828 32.3486 12.916 35.5576 12.9492 38.7666C17.3487 35.7129 21.748 32.6592 26.1475 29.6055C30.1649 29.5537 34.1825 29.5364 38.2002 29.5537C38.1546 33.8949 36.262 37.0176 32.5225 38.9219C31.2853 39.4927 29.9904 39.7514 28.6377 39.6982C28.6709 41.9077 28.6377 44.116 28.5381 46.3232C25.3838 44.1321 22.2295 41.9411 19.0752 39.75C15.4228 39.7155 11.7705 39.681 8.11816 39.6465C3.61784 38.6789 0.895182 35.8668 -0.0498047 31.21Z" fill="white"/>
</g>
<defs>
<clipPath id="clip0_30_138">
<rect width="51" height="53" fill="#02B7E4"/>
</clipPath>
</defs>
</svg>
