<svg width="45" height="47" viewBox="0 0 45 47" fill="none" xmlns="http://www.w3.org/2000/svg">
<path opacity="0.989" fill-rule="evenodd" clip-rule="evenodd" d="M20.5225 -0.0458984C21.8116 -0.0458984 23.1006 -0.0458984 24.3896 -0.0458984C33.2021 1.10531 39.4863 5.87875 43.2422 14.2744C44.1471 16.5862 44.7184 18.9729 44.9561 21.4346C44.9561 22.781 44.9561 24.1272 44.9561 25.4736C43.8538 34.6777 39.2835 41.2412 31.2451 45.1641C29.0317 46.1092 26.7465 46.7059 24.3896 46.9541C23.1006 46.9541 21.8116 46.9541 20.5225 46.9541C11.71 45.8029 5.42584 41.0294 1.66992 32.6338C0.764994 30.322 0.193705 27.9353 -0.0439453 25.4736C-0.0439453 24.1272 -0.0439453 22.781 -0.0439453 21.4346C1.05827 12.2305 5.62859 5.66699 13.667 1.74414C15.8804 0.798994 18.1656 0.202314 20.5225 -0.0458984ZM14.1943 11.7959C16.1337 11.5766 17.5254 12.3722 18.3691 14.1826C19.0311 16.4232 18.372 18.0909 16.3916 19.1855C14.5647 19.804 13.0559 19.3297 11.8652 17.7627C10.8461 15.7448 11.1538 13.9853 12.7881 12.4844C13.2366 12.1915 13.7053 11.962 14.1943 11.7959ZM29.2236 11.7959C31.449 11.6033 32.8992 12.6131 33.5742 14.8252C33.8369 17.1392 32.9141 18.6539 30.8057 19.3691C28.1552 19.6517 26.6318 18.4124 26.2354 15.6514C26.4346 13.6706 27.4307 12.3854 29.2236 11.7959ZM10.7666 25.4736C18.5596 25.4583 26.3526 25.4736 34.1455 25.5195C35.0632 25.8432 35.5319 26.5164 35.5518 27.5391C35.1807 32.6347 32.9249 36.5208 28.7842 39.1973C23.529 42.0478 18.6071 41.5276 14.0186 37.6367C11.1242 34.9563 9.57146 31.5905 9.36035 27.5391C9.39041 26.5086 9.85922 25.8202 10.7666 25.4736Z" fill="white"/>
</svg>
