<svg width="43" height="43" viewBox="0 0 43 43" fill="none" xmlns="http://www.w3.org/2000/svg">
<path opacity="0.991" fill-rule="evenodd" clip-rule="evenodd" d="M15.3271 2.64539C19.4145 2.63139 23.5017 2.64539 27.5889 2.68738C28.9874 3.0221 29.8972 3.87593 30.3184 5.2489C30.4398 6.75595 30.4818 8.26767 30.4443 9.78406C33.6079 9.77003 36.7713 9.78406 39.9346 9.82605C41.1691 10.109 41.883 10.8788 42.0762 12.1356C42.1322 14.4872 42.1322 16.8387 42.0762 19.1903C41.8917 20.2169 41.3179 20.9308 40.3545 21.3319C39.436 21.45 38.5122 21.492 37.583 21.4579C37.787 19.6923 37.0591 18.5304 35.3994 17.9725C34.4476 17.9165 33.4957 17.9165 32.5439 17.9725C31.5304 18.2301 30.8726 18.86 30.5703 19.8622C30.4597 20.3877 30.4177 20.9196 30.4443 21.4579C24.4535 21.4579 18.4625 21.4579 12.4717 21.4579C12.6066 18.9613 11.4308 17.7855 8.94434 17.9305C7.23326 17.6864 6.07148 18.3583 5.45898 19.9462C5.37809 20.4471 5.3361 20.951 5.33301 21.4579C4.40383 21.492 3.48 21.45 2.56152 21.3319C1.59816 20.9308 1.02427 20.2169 0.839844 19.1903C0.783854 16.8387 0.783854 14.4872 0.839844 12.1356C1.03297 10.8788 1.74683 10.109 2.98145 9.82605C6.14473 9.78406 9.30816 9.77003 12.4717 9.78406C12.4577 8.38404 12.4717 6.9843 12.5137 5.58484C12.8704 4.03855 13.8082 3.05872 15.3271 2.64539ZM16.083 6.25672C19.6664 6.25672 23.2496 6.25672 26.833 6.25672C26.833 7.4325 26.833 8.60828 26.833 9.78406C23.2496 9.78406 19.6664 9.78406 16.083 9.78406C16.083 8.60828 16.083 7.4325 16.083 6.25672Z" fill="white"/>
<path opacity="0.972" fill-rule="evenodd" clip-rule="evenodd" d="M7.76856 19.6105C8.52492 19.5965 9.28078 19.6105 10.0361 19.6524C10.2986 19.7347 10.5085 19.8887 10.666 20.1144C10.722 21.5981 10.722 23.0818 10.666 24.5655C10.561 24.8075 10.379 24.9614 10.1201 25.0274C9.30824 25.0835 8.49645 25.0835 7.68457 25.0274C7.44662 24.9015 7.26465 24.7195 7.13867 24.4815C7.08268 23.0538 7.08268 21.6261 7.13867 20.1983C7.28706 19.9235 7.49702 19.7276 7.76856 19.6105Z" fill="white"/>
<path opacity="0.972" fill-rule="evenodd" clip-rule="evenodd" d="M32.8799 19.6105C33.6363 19.5965 34.3921 19.6105 35.1475 19.6524C35.4361 19.7452 35.6461 19.9272 35.7774 20.1983C35.8334 21.6261 35.8334 23.0538 35.7774 24.4815C35.6514 24.7195 35.4694 24.9015 35.2315 25.0274C34.4196 25.0835 33.6078 25.0835 32.7959 25.0274C32.537 24.9614 32.3551 24.8075 32.25 24.5655C32.194 23.0818 32.194 21.5981 32.25 20.1144C32.4271 19.8941 32.6371 19.7262 32.8799 19.6105Z" fill="white"/>
<path opacity="0.995" fill-rule="evenodd" clip-rule="evenodd" d="M1.72156 23.2217C2.92533 23.2217 4.12911 23.2217 5.33289 23.2217C5.21415 25.7205 6.40393 26.9242 8.90222 26.833C11.4056 26.9192 12.5954 25.7154 12.4716 23.2217C18.4624 23.2217 24.4534 23.2217 30.4442 23.2217C30.3203 25.7154 31.5101 26.9192 34.0135 26.833C36.5118 26.9242 37.7016 25.7205 37.5829 23.2217C38.7866 23.2217 39.9905 23.2217 41.1942 23.2217C41.2082 28.2048 41.1942 33.1879 41.1522 38.1709C40.8649 39.214 40.2071 39.8999 39.1786 40.2285C27.3648 40.2845 15.551 40.2845 3.73718 40.2285C2.7087 39.8999 2.05082 39.214 1.76355 38.1709C1.72156 33.1879 1.70756 28.2048 1.72156 23.2217Z" fill="white"/>
</svg>
