<svg width="42" height="47" viewBox="0 0 42 47" fill="none" xmlns="http://www.w3.org/2000/svg">
<g clip-path="url(#clip0_30_163)">
<path opacity="0.963" fill-rule="evenodd" clip-rule="evenodd" d="M39.8261 -0.0458984C40.1269 -0.0458984 40.4276 -0.0458984 40.7284 -0.0458984C41.4042 0.334727 41.664 0.94671 41.5077 1.79004C41.3459 2.06212 41.2228 2.35281 41.1386 2.66211C41.2746 3.4075 41.3839 4.15718 41.4667 4.91113C41.4667 6.31868 40.8378 7.02246 39.58 7.02246C38.8404 6.89457 38.1021 6.78747 37.3651 6.70117C37.3137 6.8607 37.2864 7.02899 37.2831 7.20605C37.3918 7.8908 37.4738 8.57928 37.5292 9.27148C37.5598 10.6755 36.9446 11.3946 35.6835 11.4287C34.9334 11.2727 34.1814 11.1657 33.4276 11.1074C33.3771 11.2359 33.3498 11.3736 33.3456 11.5205C33.5622 12.4869 33.6306 13.4661 33.5507 14.458C33.4003 15.1159 33.0312 15.529 32.4433 15.6973C31.4516 15.732 30.4672 15.6707 29.4901 15.5137C29.4412 15.6112 29.4139 15.7182 29.4081 15.835C30.3711 19.6226 29.1679 20.9383 25.7987 19.7822C25.5442 19.8982 25.2981 20.0359 25.0605 20.1953C23.9286 20.3971 23.3681 19.8615 23.3788 18.5889C23.6725 17.7267 24.233 17.2218 25.0605 17.0742C25.723 17.0453 26.3793 17.0301 27.0292 17.0283C26.5821 13.6732 27.8672 12.2351 30.8847 12.7139C30.4581 9.33574 31.7432 7.89761 34.7401 8.39941C34.3522 4.94736 35.6921 3.47862 38.7597 3.99316C38.6393 3.10325 38.6529 2.21588 38.8007 1.33105C38.9903 0.718699 39.3322 0.259714 39.8261 -0.0458984Z" fill="#02B7E4"/>
<path opacity="0.956" fill-rule="evenodd" clip-rule="evenodd" d="M23.4199 0.87202C24.4138 0.806073 24.9744 1.32626 25.1016 2.43257C25.7063 7.45804 24.3528 11.696 21.041 15.1464C20.4046 15.5021 19.8168 15.4256 19.2774 14.9169C18.8945 14.3049 18.8945 13.693 19.2774 13.081C22.1941 9.98993 23.2879 6.22628 22.5586 1.78999C22.7314 1.33626 23.0185 1.03028 23.4199 0.87202Z" fill="#02B7E4"/>
<path opacity="0.921" fill-rule="evenodd" clip-rule="evenodd" d="M29.4903 3.80957C30.8711 3.80955 31.3496 4.54393 30.9259 6.0127C30.3676 6.72706 29.725 6.83416 28.9981 6.33398C28.3295 5.26805 28.4936 4.42657 29.4903 3.80957Z" fill="#02B7E4"/>
<path opacity="0.925" fill-rule="evenodd" clip-rule="evenodd" d="M17.3497 5.7373C18.7447 5.79896 19.1959 6.56394 18.7032 8.03223C18.2567 8.57499 17.7235 8.71269 17.1036 8.44531C16.2083 7.69364 16.1536 6.86747 16.9395 5.9668C17.0884 5.89732 17.2251 5.82082 17.3497 5.7373Z" fill="#02B7E4"/>
<path opacity="0.979" fill-rule="evenodd" clip-rule="evenodd" d="M12.92 13.4482C14.4989 15.0773 16.0439 16.7603 17.5547 18.4971C17.2217 25.8572 19.2725 32.2217 23.7071 37.5908C23.7467 37.6778 23.7603 37.7696 23.7481 37.8662C22.1132 38.5118 20.4862 39.185 18.8672 39.8857C13.9202 35.438 11.3909 29.6395 11.2793 22.4902C11.274 19.3478 11.8208 16.3338 12.92 13.4482Z" fill="#02B7E4"/>
<path opacity="0.925" fill-rule="evenodd" clip-rule="evenodd" d="M38.1855 13.54C39.3059 13.4629 39.8391 14.0442 39.7851 15.2841C39.4152 16.3098 38.7726 16.6005 37.8574 16.1562C37.2123 15.5366 37.1166 14.8174 37.5703 13.999C37.7736 13.8324 37.9787 13.6794 38.1855 13.54Z" fill="#02B7E4"/>
<path opacity="0.957" fill-rule="evenodd" clip-rule="evenodd" d="M37.3653 19.0478C38.4149 19.0276 39.454 19.1347 40.4824 19.3691C41.5009 19.7666 41.788 20.5163 41.3438 21.6181C41.1024 21.998 40.7742 22.2122 40.3594 22.2607C37.7747 21.5662 35.3548 22.0099 33.0996 23.5918C32.2349 24.2222 31.4419 24.9566 30.7207 25.7949C30.0736 26.255 29.4583 26.2091 28.875 25.6572C28.4922 25.0146 28.4922 24.372 28.875 23.7295C31.2037 21.0266 34.0338 19.466 37.3653 19.0478Z" fill="#02B7E4"/>
<path opacity="0.97" fill-rule="evenodd" clip-rule="evenodd" d="M8.90039 19.7822C8.39779 28.1021 10.8314 35.1399 16.2012 40.8955C14.5442 41.6722 12.8626 42.4066 11.1562 43.0986C7.98574 40.1065 5.89395 36.3428 4.88086 31.8076C6.20513 27.7899 7.54498 23.7814 8.90039 19.7822Z" fill="#02B7E4"/>
<path opacity="0.964" fill-rule="evenodd" clip-rule="evenodd" d="M19.9746 21.3428C23.4951 25.1445 26.9814 29 30.4336 32.9092C30.8708 33.6924 30.8025 34.4114 30.2285 35.0664C28.9283 35.6329 27.6295 36.199 26.332 36.7646C22.3344 32.62 20.2152 27.4794 19.9746 21.3428Z" fill="#02B7E4"/>
<path opacity="0.929" fill-rule="evenodd" clip-rule="evenodd" d="M36.7911 27.126C37.7116 27.2534 38.1354 27.8347 38.0626 28.8701C37.6923 29.9867 37.0224 30.2775 36.0528 29.7422C35.377 28.9195 35.4044 28.124 36.1349 27.3555C36.3605 27.2689 36.5792 27.1924 36.7911 27.126Z" fill="#02B7E4"/>
<path opacity="0.964" fill-rule="evenodd" clip-rule="evenodd" d="M2.09169 46.9541C1.7909 46.9541 1.49013 46.9541 1.18934 46.9541C0.515022 46.5767 0.255256 45.9647 0.410047 45.1182C1.42331 42.0067 2.47605 38.9162 3.56825 35.8467C4.7844 38.9502 6.45237 41.7041 8.57216 44.1084C6.41309 45.0767 4.25293 46.0252 2.09169 46.9541Z" fill="#02B7E4"/>
</g>
<defs>
<clipPath id="clip0_30_163">
<rect width="42" height="47" fill="white"/>
</clipPath>
</defs>
</svg>
